<?xml version="1.0" encoding="UTF-8" standalone="no"?>
<!-- Created with Inkscape (http://www.inkscape.org/) -->

<svg
   width="210mm"
   height="297mm"
   viewBox="0 0 210 297"
   version="1.1"
   id="svg1"
   inkscape:export-filename="位图.png"
   inkscape:export-xdpi="96"
   inkscape:export-ydpi="96"
   xml:space="preserve"
   xmlns:inkscape="http://www.inkscape.org/namespaces/inkscape"
   xmlns:sodipodi="http://sodipodi.sourceforge.net/DTD/sodipodi-0.dtd"
   xmlns="http://www.w3.org/2000/svg"
   xmlns:svg="http://www.w3.org/2000/svg"><sodipodi:namedview
     id="namedview1"
     pagecolor="#ffffff"
     bordercolor="#000000"
     borderopacity="0.25"
     inkscape:showpageshadow="2"
     inkscape:pageopacity="0.0"
     inkscape:pagecheckerboard="0"
     inkscape:deskcolor="#d1d1d1"
     inkscape:document-units="mm" /><defs
     id="defs1"><linearGradient
       id="swatch5"
       inkscape:swatch="solid"><stop
         style="stop-color:#000000;stop-opacity:1;"
         offset="0"
         id="stop5" /></linearGradient><linearGradient
       id="swatch4"
       inkscape:swatch="solid"><stop
         style="stop-color:#43c6c6;stop-opacity:0;"
         offset="0"
         id="stop4" /></linearGradient></defs><g
     inkscape:label="图层 1"
     inkscape:groupmode="layer"
     id="layer1"><path
       style="fill:#000000;fill-opacity:1;stroke-width:2.15452;image-rendering:auto"
       d="m 111.08773,170.36045 c -10.83387,-0.71064 -18.463989,-2.51613 -28.378756,-6.71516 -0.853127,-0.36132 -5.392044,-2.62863 -6.300416,-3.14724 C 63.89009,153.35096 54.298619,144.00619 46.904224,131.75261 45.473822,129.38223 42.486808,123.29508 41.45671,120.65129 36.828557,108.7729 35.104832,96.610244 36.28337,84.148066 37.79406,68.17362 43.874208,53.653997 54.389737,40.909378 c 2.063288,-2.500667 7.474379,-7.866954 10.135474,-10.051552 12.120642,-9.950311 25.96477,-15.79821 41.793629,-17.654043 2.97887,-0.349253 13.16958,-0.398038 16.10476,-0.07709 16.39429,1.792608 30.72253,7.810413 42.93064,18.030711 15.91312,13.322012 25.92446,32.359945 27.89637,53.048803 0.322,3.3786 0.31899,11.362207 -0.007,14.799487 -0.91972,9.739226 -3.38736,18.450476 -7.72609,27.274436 -2.28419,4.64551 -5.72882,10.26335 -7.9796,13.01391 -0.21502,0.26275 -0.74143,0.92493 -1.1699,1.47155 -1.42181,1.81388 -3.88531,4.56497 -5.86547,6.55014 -12.93855,12.97139 -29.6519,20.86441 -48.15853,22.74328 -2.29474,0.23297 -9.40086,0.42326 -11.25768,0.30144 z m 9.60209,-1.9526 c 26.57711,-1.89005 50.72842,-18.04573 62.86031,-42.04956 4.528,-8.95898 7.1063,-18.07953 8.00031,-28.300546 0.31739,-3.62867 0.22739,-11.567782 -0.16934,-14.932053 -2.13362,-18.096154 -9.93659,-34.061924 -22.77208,-46.594302 -3.91494,-3.822489 -7.29461,-6.550676 -11.63067,-9.388697 -11.22445,-7.346588 -23.59793,-11.481708 -37.2129,-12.436245 -3.19305,-0.223864 -9.84465,-0.103938 -12.89942,0.232591 -15.702649,1.729831 -29.632556,7.622047 -41.589969,17.592148 -3.729603,3.109748 -8.487194,8.057593 -11.513954,11.974396 -8.665572,11.213745 -13.912525,24.186721 -15.619999,38.620109 -0.347425,2.936797 -0.483403,10.914293 -0.240889,14.132293 0.216259,2.869606 0.787993,7.014286 1.355167,9.824046 2.203532,10.91621 6.982112,21.55077 13.755391,30.61213 10.065779,13.46612 24.175613,23.24123 40.300024,27.91934 8.806709,2.55507 17.814619,3.47447 27.377959,2.79435 z m -3.3484,-7.37745 c -3.3e-4,-1.13945 -0.0468,-3.08062 -0.10321,-4.31369 l -0.10262,-2.24195 -1.53875,0.053 -1.53879,0.053 1.5e-4,-0.50818 1.5e-4,-0.50816 1.75902,-6.2e-4 c 0.96747,-3.5e-4 2.65611,-0.0463 3.75257,-0.10239 l 1.99354,-0.10168 v 0.5659 0.56592 l -1.57423,0.0445 -1.57424,0.0446 0.0151,3.97097 c 0.008,2.18404 0.0575,4.03886 0.10886,4.12184 0.12969,0.21007 -0.25463,0.42336 -0.76768,0.42623 l -0.43,0.002 z m -10.24676,1.54549 c -2.16626,-1.00875 -3.08998,-3.55522 -2.262,-6.2359 0.59878,-1.9386 2.15935,-3.12014 4.14142,-3.13554 2.66964,-0.0215 4.43014,1.62614 4.58426,4.28849 0.13509,2.33398 -0.78633,4.19335 -2.50168,5.04813 -1.11391,0.55509 -2.81267,0.57002 -3.962,0.0349 z m 3.28947,-0.86377 c 1.29764,-0.59891 1.9891,-1.89661 2.00295,-3.75902 0.0129,-1.76938 -0.52956,-2.81363 -1.8013,-3.4658 -0.69216,-0.35496 -2.0869,-0.39596 -2.83515,-0.0834 -2.16276,0.90365 -2.79437,5.11548 -1.01589,6.77436 0.8908,0.83093 2.49664,1.06579 3.64939,0.53378 z m 14.07209,0.24034 c -1.62171,-0.7568 -2.59104,-2.34173 -2.7043,-4.42177 -0.12066,-2.21567 0.75036,-3.83719 2.45508,-4.57052 2.49167,-1.0719 4.95103,-0.17818 6.04806,2.19774 0.40689,0.8812 0.45543,1.15301 0.45543,2.54991 0,1.42792 -0.0388,1.63355 -0.44708,2.37022 -1.06919,1.92903 -3.80077,2.81072 -5.80719,1.87442 z m 2.94753,-0.73919 c 0.3491,-0.097 0.88465,-0.44971 1.27432,-0.83937 0.88575,-0.88574 1.14124,-1.89729 0.87106,-3.44874 -0.3345,-1.92086 -1.20883,-3.03296 -2.62294,-3.33623 -1.46859,-0.31496 -2.87787,0.27672 -3.60493,1.51352 -0.36758,0.62529 -0.42739,0.89605 -0.42013,1.90175 0.0228,3.1678 1.90757,4.92962 4.50262,4.20907 z m -25.16498,0.84355 c -0.2885,-0.0569 -0.35203,-0.24973 -0.53312,-1.61783 -0.15384,-1.16278 -0.26809,-1.57185 -0.45426,-1.62721 -0.59695,-0.17752 -3.807429,-0.87904 -3.832059,-0.83732 -0.0151,0.0254 -0.39813,0.62028 -0.85146,1.32207 -0.80975,1.25361 -0.83264,1.27358 -1.30396,1.13841 -0.26387,-0.0756 -0.50909,-0.16697 -0.54497,-0.20274 -0.0357,-0.0357 1.18741,-1.93833 2.71838,-4.22773 l 2.783599,-4.16251 0.54725,0.0916 c 0.30099,0.0504 0.59642,0.13897 0.65652,0.19671 0.10451,0.10062 1.68883,9.28467 1.68883,9.78987 0,0.23816 -0.20102,0.26957 -0.87475,0.13681 z m -1.23144,-6.69436 c -0.17216,-1.33294 -0.34916,-2.42293 -0.39336,-2.4222 -0.0442,7.2e-4 -0.26108,0.33492 -0.48203,0.74268 -0.220929,0.40778 -0.776659,1.32315 -1.234969,2.03418 -0.4583,0.71104 -0.79198,1.33408 -0.74152,1.38456 0.1105,0.11049 2.404769,0.6501 2.849739,0.67014 l 0.31516,0.0151 z m 32.04774,5.20272 c -0.0396,-0.10967 -0.38634,-1.28989 -0.77045,-2.62283 -0.38408,-1.33294 -0.94432,-3.26785 -1.24496,-4.2998 -0.30066,-1.03195 -0.49549,-1.92774 -0.43301,-1.99063 0.0625,-0.0629 0.32709,-0.15706 0.58803,-0.2092 0.43736,-0.0875 0.74225,0.13121 3.90403,2.7987 1.88628,1.59148 3.45066,2.83619 3.47641,2.76602 0.0375,-0.10251 -1.70086,-6.31424 -1.95493,-6.98535 -0.0701,-0.18507 0.84287,-0.46772 1.00084,-0.30976 0.0476,0.0476 0.66581,2.09145 1.3737,4.54171 l 1.28704,4.45509 -0.47007,0.16373 c -0.25854,0.09 -0.52225,0.16396 -0.58603,0.16396 -0.10403,0 -1.25643,-0.94955 -5.67078,-4.67266 -0.75296,-0.63504 -1.39346,-1.12757 -1.42332,-1.09449 -0.03,0.0332 0.4088,1.65834 0.97482,3.61167 0.56598,1.95333 0.99725,3.57931 0.95834,3.61328 -0.22752,0.19865 -0.94519,0.24881 -1.00966,0.0704 z M 92.598551,159.4009 c -0.33089,-0.0898 -0.33364,0.03 0.0248,-1.08093 0.16417,-0.50867 0.80612,-2.50797 1.42653,-4.4429 0.62042,-1.93491 1.14948,-3.54229 1.17569,-3.57198 0.11309,-0.12819 1.008,0.17409 1.00632,0.34 -0.001,0.10062 -0.62198,2.11794 -1.3799,4.48285 -1.44735,4.51601 -1.43615,4.49477 -2.25353,4.27296 z m -4.877104,-1.69184 c -1.262613,-0.44979 -1.802407,-1.10563 -1.802713,-2.19024 -2.58e-4,-0.91014 0.14802,-1.32902 0.470075,-1.32902 0.616389,0 0.746871,0.15426 0.662563,0.78282 -0.117645,0.87681 0.0556,1.36802 0.57734,1.63785 0.965833,0.49946 1.662499,0.19498 2.254779,-0.98527 0.20187,-0.40248 0.87941,-1.96311 1.5054,-3.46804 0.62597,-1.50494 1.16077,-2.76331 1.18844,-2.79637 0.0789,-0.0944 0.99844,0.31889 0.99844,0.44868 0,0.1241 -2.17604,5.29068 -2.66808,6.33478 -0.39497,0.83811 -0.7505,1.2453 -1.35033,1.54669 -0.604545,0.30372 -1.022567,0.30786 -1.835914,0.0173 z m 55.008383,-1.41817 c -1.98479,-0.73249 -3.52933,-3.73883 -3.06304,-5.96193 0.33201,-1.58295 1.3447,-2.6677 3.10549,-3.32649 1.51872,-0.56824 2.81936,-0.37231 3.83554,0.5778 l 0.41802,0.39083 -0.41802,0.3621 -0.41802,0.36212 -0.40266,-0.38297 c -1.15761,-1.101 -3.47134,-0.59926 -4.58801,0.99496 -0.40768,0.58202 -0.46785,0.80375 -0.46674,1.71991 0.001,1.24795 0.48443,2.44998 1.3845,3.44624 1.49252,1.65205 4.31494,1.22352 5.76994,-0.87605 l 0.4348,-0.62741 -0.40403,-0.7973 c -0.22222,-0.43854 -0.46374,-0.79733 -0.53672,-0.79733 -0.073,0 -0.65225,0.24088 -1.2873,0.53527 l -1.15463,0.53527 -0.18981,-0.33982 c -0.1045,-0.18678 -0.19241,-0.39102 -0.19542,-0.45359 -0.007,-0.11285 3.21091,-1.68434 3.44743,-1.68434 0.0678,0 0.44498,0.67894 0.83807,1.50878 l 0.71469,1.50876 -0.39934,0.68143 c -0.55942,0.95456 -1.56278,1.87221 -2.57342,2.35361 -1.07157,0.51038 -2.86029,0.63585 -3.85119,0.27015 z m -65.869542,-4.42991 c -0.20692,-0.159 -0.337885,-0.38618 -0.291048,-0.5047 0.04684,-0.1185 1.037992,-1.74383 2.202563,-3.61184 l 2.117399,-3.39641 -1.161311,-0.72381 -1.16131,-0.72382 0.259602,-0.43947 0.259603,-0.43948 0.951635,0.59772 c 0.5234,0.32877 1.834564,1.14932 2.913695,1.82347 1.07914,0.67415 1.969259,1.29608 1.978075,1.38208 0.0082,0.0859 -0.06512,0.31115 -0.164183,0.50039 -0.178395,0.34049 -0.1939,0.33539 -1.503123,-0.49686 -0.727579,-0.46249 -1.361224,-0.81719 -1.408128,-0.78821 -0.04697,0.0291 -1.069167,1.6422 -2.271716,3.58491 -1.202548,1.94271 -2.222228,3.53063 -2.265955,3.52872 -0.04374,-0.002 -0.248796,-0.13358 -0.455712,-0.29269 z m 79.232902,-2.86562 c -0.31489,-0.0804 -0.84925,-0.38308 -1.18744,-0.67256 -0.60835,-0.52073 -4.4207,-5.40683 -4.41122,-5.65365 0.006,-0.14329 0.77311,-0.73659 0.84289,-0.65145 0.0246,0.03 0.6301,0.82842 1.34563,1.77437 2.16194,2.85806 2.86815,3.6953 3.31038,3.92456 0.69576,0.36073 1.54351,0.27209 2.36192,-0.24693 1.30521,-0.82775 1.68119,-1.96383 1.05584,-3.19041 -0.16697,-0.32739 -1.13172,-1.68513 -2.14405,-3.0172 l -1.84058,-2.42194 0.38503,-0.2959 c 0.21178,-0.16267 0.43812,-0.29746 0.50297,-0.29935 0.17215,-0.005 3.8143,4.90483 4.20164,5.66407 0.40417,0.79223 0.42755,1.89755 0.0567,2.67907 -0.33397,0.70382 -1.50133,1.76557 -2.34362,2.13162 -0.85338,0.37088 -1.45791,0.44892 -2.13608,0.2757 z m -85.158858,-1.21593 c -0.370327,-0.16805 -1.076683,-0.71181 -1.56968,-1.20832 -1.279539,-1.28867 -1.569834,-2.42696 -0.961057,-3.76847 l 0.307097,-0.67672 0.461675,0.32874 c 0.45369,0.32307 0.457689,0.33828 0.231178,0.8804 -0.451538,1.08069 0.222788,2.4851 1.5732,3.27649 0.874302,0.51236 1.65531,0.5576 2.229252,0.12905 0.916849,-0.68451 0.776721,-1.35967 -0.71358,-3.43809 -1.210239,-1.68785 -1.511605,-2.49257 -1.266243,-3.38117 0.304265,-1.10199 1.720996,-1.85759 2.89177,-1.54234 2.039987,0.54931 3.634738,2.64125 3.2028,4.20129 -0.26943,0.97311 -0.382245,1.07405 -0.854469,0.76464 -0.338197,-0.22159 -0.386318,-0.33705 -0.288083,-0.69123 0.32399,-1.16816 -0.06481,-2.00669 -1.314146,-2.83421 -0.858562,-0.56869 -1.554714,-0.62058 -2.140808,-0.15944 -0.296975,0.23361 -0.411977,0.46869 -0.411977,0.84214 0,0.50392 0.249716,0.93492 1.801116,3.10861 0.297069,0.41623 0.620515,1.0251 0.718768,1.35303 0.643906,2.14918 -1.674406,3.82431 -3.896813,2.81569 z m 39.371608,-1.97324 c -12.667439,-1.11753 -24.318709,-6.41934 -33.283983,-15.14564 -4.688773,-4.56377 -7.956213,-8.98601 -10.797331,-14.61334 -2.946198,-5.83546 -4.491985,-10.96836 -5.511753,-18.302176 -0.27588,-1.98403 -0.275858,-10.322529 3.3e-5,-12.352174 0.911741,-6.707429 2.390985,-11.769264 5.093625,-17.429917 2.599858,-5.445379 6.110123,-10.351976 10.634966,-14.865407 3.371866,-3.363368 6.355424,-5.696157 10.380722,-8.116507 6.761372,-4.065518 13.827621,-6.438451 22.232861,-7.466081 2.15317,-0.263243 9.26608,-0.262821 11.41404,6.81e-4 10.45293,1.282315 18.94015,4.63883 26.97152,10.666668 10.92764,8.20155 18.21875,19.981966 20.80484,33.614846 0.7439,3.92145 1.05408,10.177742 0.70851,14.289921 -1.31011,15.589656 -9.14744,29.669796 -21.79733,39.159986 -7.22348,5.41918 -15.55378,8.80361 -25.28031,10.27088 -1.57988,0.23831 -9.81179,0.4434 -11.57041,0.28826 z m 8.29473,-1.16217 c 17.11249,-1.33748 32.06198,-10.32364 41.21519,-24.77451 9.80214,-15.47545 10.80555,-35.269108 2.62757,-51.832245 -7.48082,-15.151122 -21.91244,-25.950282 -38.53445,-28.835279 -3.2159,-0.558165 -4.36973,-0.63796 -9.22505,-0.63796 -4.9924,0 -6.41811,0.112532 -9.89144,0.780759 -9.131559,1.756788 -17.69512,5.895797 -24.691694,11.934197 -7.352933,6.34595 -12.734237,14.354557 -15.777246,23.480144 -1.906717,5.71798 -2.693425,10.623777 -2.695683,16.809821 -0.0036,10.087473 2.517789,19.120253 7.747237,27.753303 4.452089,7.34976 11.066656,13.81882 18.728184,18.31624 4.784423,2.8085 10.454103,4.94715 16.104732,6.07482 4.85438,0.96878 9.80759,1.28907 14.39265,0.93071 z m -5.82069,-2.8192 C 98.232021,138.64372 86.027751,130.11449 79.202341,118.3583 76.867966,114.33755 75.209984,109.7637 74.252377,104.7029 73.881139,102.74098 73.81496,96.758524 73.954726,77.795418 l 0.114188,-15.493451 1.192896,-0.586066 c 1.650063,-0.810668 3.94561,-2.376602 5.302145,-3.616918 1.811299,-1.656118 3.707045,-4.261216 4.646089,-6.384551 l 0.387577,-0.876406 h 29.051999 29.05199 l 0.53996,1.133586 c 1.92546,4.042331 5.64267,7.734955 9.92577,9.860086 l 1.31993,0.654904 -0.002,18.0592 c -0.002,18.364292 -0.0924,22.619718 -0.53818,25.407958 -1.88478,11.7899 -8.79013,21.68669 -19.97965,28.63496 -5.41195,3.36059 -12.99022,6.31411 -19.12846,7.45496 -1.04927,0.19499 -1.22284,0.1825 -3.05874,-0.21886 z m 4.56199,-0.70013 c 9.98295,-2.24325 19.67341,-7.44531 26.17419,-14.0509 6.17334,-6.27284 9.67724,-13.28588 10.98184,-21.97999 0.24232,-1.61487 0.27567,-3.8567 0.3273,-22.001117 l 0.0575,-20.203023 -0.98482,-0.49416 c -2.543,-1.276021 -5.4295,-3.496762 -7.08273,-5.449154 -1.16628,-1.377322 -2.60447,-3.546654 -3.08004,-4.645914 l -0.35981,-0.831641 -28.69145,-7.52e-4 -28.691468,-7.53e-4 -0.755617,1.461671 c -1.945572,3.763462 -5.43956,7.160721 -9.359433,9.100327 l -1.173579,0.580701 -0.103504,6.427112 c -0.05692,3.53491 -0.106219,12.478112 -0.109557,19.87379 -0.0058,12.915863 0.0069,13.523633 0.319843,15.396313 2.103183,12.58157 9.781123,23.36438 21.735916,30.52571 5.174389,3.09961 10.460289,5.12403 17.433779,6.67687 0.72701,0.16179 1.13611,0.11508 3.36166,-0.38509 z m -4.2998,-1.70312 c -7.52802,-1.55639 -13.961439,-4.52864 -20.224919,-9.34391 -2.20664,-1.69642 -6.655762,-6.16539 -8.374532,-8.41187 -4.57203,-5.97575 -7.380912,-12.49797 -8.14702,-18.91734 -0.194617,-1.63076 -0.231765,-4.932506 -0.224284,-19.935479 0.0049,-9.889555 0.04569,-18.159188 0.09057,-18.376947 0.05909,-0.286642 0.325192,-0.523457 0.96405,-0.857942 1.350078,-0.706854 3.719382,-2.340149 5.151311,-3.551086 2.670427,-2.258277 4.399835,-4.445775 4.990611,-6.312472 l 0.252511,-0.797886 27.184752,-0.0016 c 25.77456,-0.0016 27.18475,0.0125 27.18475,0.271622 0,0.562396 1.27518,2.792022 2.25077,3.935398 1.12378,1.317066 2.94381,2.972074 4.6663,4.243206 0.98045,0.723529 3.77029,2.484732 4.17284,2.634272 0.0765,0.0284 0.15836,8.552544 0.18636,19.360762 0.0533,20.691232 0.0562,20.596812 -0.74318,24.211562 -1.13056,5.1123 -3.86281,10.6423 -7.50522,15.19032 -1.42859,1.78377 -4.47038,4.80774 -6.38945,6.35202 -6.61748,5.32508 -14.35903,8.82456 -23.45349,10.60191 -0.17193,0.0336 -1.08668,-0.0989 -2.03265,-0.29446 z m -3.20529,-25.41545 V 91.64713 H 94.136061 c -10.227211,0 -15.719,0.05407 -15.752949,0.15492 -0.02867,0.08511 -0.01249,3.022724 0.03572,6.527874 l 0.08785,6.373016 0.486946,1.83402 c 0.946372,3.56436 2.649323,7.24464 4.954319,10.70683 2.087174,3.135 5.947014,7.5548 6.595464,7.55226 0.1812,-6.9e-4 0.65333,-0.24868 1.04934,-0.55104 0.39601,-0.30239 1.1625,-0.70804 1.70332,-0.90145 l 0.9833,-0.35169 -0.006,-2.03022 c -0.008,-2.66288 -0.17796,-3.04655 -1.34767,-3.04655 -0.43931,0 -1.07527,-0.083 -1.41328,-0.18422 -0.48233,-0.14456 -0.73381,-0.1409 -1.16889,0.0173 -0.70796,0.25601 -1.06657,-0.0173 -0.89932,-0.68265 0.28944,-1.15319 2.94527,-1.58354 3.85444,-0.62456 0.64354,0.67879 1.21557,0.40165 1.21557,-0.58892 0,-0.32676 -0.065,-0.59415 -0.14435,-0.59415 -0.0795,0 -0.37405,-0.19347 -0.65477,-0.42997 -0.46029,-0.38773 -0.66101,-0.43803 -2.0429,-0.51201 -1.21416,-0.0651 -1.58967,-0.14198 -1.80784,-0.37064 -0.26537,-0.27814 -0.25834,-0.28506 0.1937,-0.19089 1.12145,0.23373 2.07153,0.28632 2.1741,0.12045 0.0584,-0.0944 -0.0194,-0.36569 -0.17408,-0.60291 l -0.28011,-0.4313 0.54725,0.40599 c 0.62609,0.46451 1.98959,1.012 2.14161,0.85996 0.21438,-0.21438 -0.21762,-2.93175 -0.53359,-3.35686 -0.61789,-0.83136 -1.83826,-0.46927 -2.05787,0.6106 -0.15599,0.76662 -0.64295,0.79335 -1.43397,0.0786 -0.34034,-0.30747 -0.74706,-0.55905 -0.90381,-0.55905 -0.45271,0 -0.964328,0.67217 -1.20445,1.58239 -0.260069,0.98591 -0.580666,1.28064 -1.24283,1.14265 -0.668641,-0.1394 -0.873849,-0.39247 -0.90259,-1.11326 -0.03491,-0.87726 0.34078,-1.37065 1.32481,-1.73955 0.721221,-0.27034 0.827852,-0.36584 0.843603,-0.75537 0.03468,-0.85599 0.06254,-0.87948 0.418364,-0.35174 0.296773,0.44017 0.459963,0.53403 0.951553,0.54735 0.42765,0.0106 0.70053,0.13164 0.97715,0.42998 0.21115,0.22764 0.43373,0.41241 0.49475,0.41057 0.061,-0.002 0.29887,-0.26922 0.52859,-0.59416 0.56349,-0.79715 1.42777,-1.26573 1.84916,-1.00258 0.16978,0.10603 0.56067,0.19283 0.86849,0.19283 0.81458,0 1.1052,0.21855 1.40097,1.05362 0.51767,1.46152 0.75109,1.91356 1.10926,2.14825 0.5274,0.34556 1.3612,0.30319 1.71444,-0.087 0.2887,-0.319 0.28756,-0.33664 -0.0608,-0.94194 -0.35349,-0.6142 -0.34363,-0.92196 0.0295,-0.92196 0.24756,0 0.88243,0.68557 1.33206,1.43843 0.548179,0.91781 1.534589,1.40749 2.268229,1.12596 0.34362,-0.13186 0.8875,-1.0616 1.26884,-2.16907 0.24812,-0.72053 0.39661,-0.94256 0.63033,-0.94256 0.44312,0 0.46654,0.71894 0.0735,2.25817 -0.72243,2.82952 -0.71194,3.43105 0.066,3.78551 0.33923,0.15468 0.52019,0.096 1.45883,-0.47098 1.17233,-0.70833 1.91274,-0.84461 1.91274,-0.35208 0,0.52028 -0.51191,0.95407 -2.1103,1.7883 -1.35707,0.70829 -1.61196,0.90649 -1.94883,1.51549 -0.5064,0.91547 -0.52825,2.53043 -0.0489,3.61237 0.43522,0.98227 1.38605,2.00054 2.20925,2.36592 1.15626,0.51323 0.647,0.67109 -1.97917,0.6135 -2.66831,-0.0587 -2.95001,-0.16913 -2.47533,-0.97277 0.17043,-0.28848 0.33137,-1.01281 0.40902,-1.84068 0.1478,-1.57542 -0.0194,-4.3358 -0.27964,-4.59525 -0.13142,-0.13143 -0.41739,-0.10391 -1.11521,0.10756 -0.723369,0.21902 -1.206329,0.26152 -2.107359,0.18529 -0.91338,-0.0771 -1.21853,-0.0491 -1.39597,0.1282 -0.30037,0.30033 -0.47333,1.87707 -0.33584,3.06152 0.14887,1.2828 0.54828,1.7505 1.48382,1.73759 0.72562,-0.0106 2.121179,0.41412 2.777429,0.84412 0.5495,0.36005 0.18184,0.55219 -0.831469,0.43445 -0.66402,-0.0771 -0.92626,-0.023 -1.63793,0.3375 -0.80235,0.40658 -0.88836,0.41886 -1.61963,0.23145 -0.70112,-0.17969 -0.79152,-0.17172 -0.98103,0.0875 -0.11485,0.15706 -0.20877,0.37758 -0.20877,0.49013 0,0.34322 -0.45936,0.22899 -0.90616,-0.22532 -0.39086,-0.39744 -0.52372,-0.43179 -1.75571,-0.45368 -0.9194,-0.0173 -1.42449,0.0433 -1.62825,0.1924 -0.27903,0.20403 -0.25342,0.25302 0.46187,0.88367 3.63856,3.20805 7.22825,5.68739 10.966089,7.57408 2.31897,1.17051 5.80515,2.48652 7.12972,2.69139 0.0644,0.0106 0.1172,-10.04343 0.1172,-22.34087 z m -23.218977,3.88325 c -1.007246,-0.55571 -1.688959,-1.57544 -1.542573,-2.30741 0.07993,-0.4001 0.0047,-0.58047 -0.461928,-1.0962 -1.12656,-1.24697 -1.382985,-2.45245 -0.665149,-3.12683 0.54761,-0.51446 0.732565,-0.29532 0.681219,0.80719 l -0.0442,0.94961 0.839419,0.49704 c 1.045803,0.61926 1.419802,1.09519 1.424269,1.81241 0.0047,0.73344 0.563163,1.26652 1.451413,1.38508 0.50849,0.0678 0.673378,0.1618 0.707973,0.40302 0.09417,0.65631 -1.572125,1.12758 -2.390443,0.67609 z m 17.941927,-3.17076 c -0.51148,-0.2298 -0.61374,-0.46025 -0.37284,-0.84016 0.0976,-0.15383 0.37086,-0.17861 1.08033,-0.0985 0.87425,0.0989 0.97877,0.0771 1.31339,-0.27306 0.19993,-0.2092 0.49903,-0.62236 0.66457,-0.91792 0.43373,-0.77429 0.50996,-0.21523 0.092,0.67416 -0.65265,1.38844 -1.70226,1.93843 -2.77739,1.45537 z m 1.11313,-3.13296 c -0.0491,-0.12797 0.11829,-0.49524 0.37417,-0.82088 0.25465,-0.32417 0.55676,-0.85191 0.67134,-1.1728 0.21308,-0.59655 0.0959,-1.03012 -0.50173,-1.85795 -0.10016,-0.13876 -0.1381,-0.36748 -0.0841,-0.50815 0.227,-0.59155 2.30701,-0.0129 2.54317,0.70703 0.32234,0.98321 -0.0911,1.84724 -1.35918,2.84025 -0.41981,0.32877 -0.7633,0.69816 -0.7633,0.82088 0,0.29958 -0.76505,0.29231 -0.88042,-0.008 z m -3.12215,-1.51406 c 0.27967,-1.42822 0.28506,-2.18282 0.0215,-2.87552 -0.33606,-0.87995 -1.32955,-2.15163 -2.04093,-2.6124 -0.999189,-0.64716 -0.615139,-0.74081 0.8345,-0.2036 0.37119,0.13767 0.74948,0.20403 0.84063,0.14779 0.11156,-0.069 0.12562,-0.5414 0.0424,-1.4491 -0.1814,-1.98194 -0.0888,-3.144776 0.25065,-3.144776 0.0802,0 0.14587,0.512036 0.14587,1.137886 0,0.78046 0.0771,1.24785 0.24523,1.488 0.31144,0.44465 0.48546,0.33354 0.69468,-0.44349 0.0916,-0.34035 0.2534,-0.61882 0.35942,-0.61882 0.23112,0 0.18399,5.93904 -0.0582,7.34875 -0.17042,0.99124 -0.57089,1.61897 -1.08103,1.69429 -0.32571,0.0481 -0.34718,0.008 -0.25369,-0.46906 z m -17.773001,0.0879 c -0.218833,-0.21884 -0.112496,-1.0449 0.199719,-1.54988 0.340615,-0.55113 0.861389,-0.82118 1.718558,-0.89119 0.425582,-0.0347 0.558003,-0.12023 0.595666,-0.38475 0.03668,-0.25699 -0.08428,-0.40299 -0.494877,-0.59784 -1.171195,-0.55578 -1.759149,-2.08022 -1.625905,-4.21569 0.067,-1.07349 0.168262,-1.46072 0.579479,-2.217 0.620221,-1.140446 1.1707,-1.586006 2.229693,-1.804726 1.016262,-0.20986 1.999439,0.10767 1.999439,0.64588 0,0.39947 -0.0836,0.40064 -0.58277,0.008 -0.852425,-0.67051 -2.15389,-0.26966 -2.684714,0.82689 -0.670428,1.384876 -0.453676,1.698416 1.323176,1.914086 1.178538,0.14306 1.507668,0.31312 1.445618,0.74695 -0.0685,0.47844 -0.519646,0.51013 -1.398927,0.0983 -0.976366,-0.45729 -1.430135,-0.28321 -1.87329,0.71866 -0.5608,1.26779 -0.06983,1.73273 1.1573,1.09604 1.078964,-0.55979 1.206377,-0.52947 1.206377,0.28697 0,0.73945 0.155555,0.95081 0.82322,1.11839 0.23683,0.0595 0.47173,0.17452 0.52202,0.25598 0.19218,0.31098 -0.10556,0.87861 -0.55948,1.06663 -0.25799,0.10685 -0.433883,0.25122 -0.390883,0.32081 0.151903,0.2459 -0.284826,0.91296 -0.714345,1.09086 -0.241849,0.10015 -0.940865,0.15706 -1.572972,0.12777 -1.234566,-0.0569 -1.231027,-0.0593 -1.654504,1.09123 -0.07324,0.19909 -0.184638,0.31048 -0.247598,0.24759 z m 10.589402,-0.97897 c -0.59872,-0.3651 -1.30488,-1.19566 -1.585,-1.86416 -0.12712,-0.30357 -0.38937,-0.57872 -0.64083,-0.67262 -1.36429,-0.50941 -2.45971,-1.29142 -2.862,-2.04311 -0.1241,-0.23197 -0.10192,-0.26376 0.12647,-0.18054 0.15255,0.0556 0.49987,0.29281 0.77199,0.52718 0.45626,0.39299 1.11863,0.68475 1.82203,0.80254 0.25171,0.0422 0.29306,-0.10756 0.3622,-1.31114 l 0.0779,-1.35872 -0.50707,-0.26221 c -0.27888,-0.14413 -0.84261,-0.28032 -1.25274,-0.30244 -0.77602,-0.0419 -1.11803,-0.25668 -1.29463,-0.81308 -0.1058,-0.33326 0.23132,-0.83005 0.56323,-0.83005 0.091,0 0.43792,0.24626 0.77108,0.54725 0.35155,0.31762 0.76958,0.54724 0.99617,0.54724 0.37055,0 0.39044,-0.0453 0.39044,-0.88845 0,-1.387916 0.33028,-3.622156 0.56414,-3.816236 0.15577,-0.12927 0.34267,-0.12927 0.71239,-4.8e-4 1.10736,0.38604 1.35927,1.08819 0.7011,1.95418 -0.75332,0.991206 -0.93234,1.499216 -0.74404,2.111276 0.095,0.30885 0.19046,0.84297 0.21222,1.18697 0.0497,0.78827 0.48087,0.90407 1.17889,0.31673 0.27994,-0.23555 0.51926,-0.3377 0.57604,-0.24582 0.10532,0.17041 -0.17064,0.78859 -0.35281,0.7898 -0.0614,4.1e-4 -0.37562,0.24309 -0.69811,0.53927 -0.55134,0.5064 -0.58582,0.59267 -0.57752,1.44556 0.008,0.95576 0.27277,1.94247 0.54205,2.03007 0.0882,0.0287 0.51813,-0.28952 0.95582,-0.70699 0.55278,-0.52725 1.01448,-0.8141 1.51189,-0.93935 0.88092,-0.22183 1.40964,-0.23172 1.28123,-0.0239 -0.0533,0.0859 -0.2546,0.15641 -0.44768,0.15641 -0.44183,0 -1.74209,0.81405 -1.96471,1.23009 -0.24241,0.4529 -0.20577,0.97009 0.0918,1.29902 0.21114,0.23323 0.22622,0.35922 0.0815,0.67684 -0.21545,0.47269 -0.69406,0.50744 -1.36387,0.0989 z m 5.322799,-0.4191 c -0.42998,-0.20899 -0.980439,-0.38099 -1.223229,-0.3821 -0.65215,-0.002 -0.50862,-0.53269 0.16202,-0.59774 0.595249,-0.0577 2.624799,0.78785 2.624799,1.09355 0,0.34244 -0.73534,0.28897 -1.56355,-0.11379 z m 3.60511,-1.7769 c -0.0525,-0.0851 0.28819,-0.43816 0.75725,-0.78468 0.46906,-0.3465 0.90142,-0.70862 0.96081,-0.80471 0.0595,-0.096 -0.037,-0.37066 -0.21416,-0.6102 l -0.32198,-0.43554 0.39674,-0.37047 c 0.4261,-0.39787 0.427,-0.42768 0.0799,-2.62982 -0.11485,-0.72851 -0.22848,-0.93327 -0.78372,-1.411466 -1.10155,-0.94873 -0.74638,-1.23861 0.69515,-0.5674 1.39858,0.651216 1.95034,1.934286 1.33742,3.110036 -0.25473,0.48865 -0.28095,0.69139 -0.15061,1.1638 0.19521,0.70713 -0.0287,1.55136 -0.58781,2.21581 -0.64596,0.7677 -1.96673,1.45243 -2.16931,1.12464 z m -7.276029,-4.31851 c -0.002,-0.47801 0.0963,-0.92845 0.25093,-1.14931 0.23849,-0.34049 0.23259,-0.40692 -0.0946,-1.06181 -0.60092,-1.203236 -0.58861,-1.740986 0.0584,-2.553476 0.97867,-1.22883 0.61611,-2.15348 -0.76328,-1.94663 -0.67721,0.10145 -0.76587,0.0737 -1.24699,-0.39271 -0.48922,-0.47417 -0.56449,-0.49655 -1.35657,-0.40373 -0.66353,0.0778 -0.92481,0.0399 -1.25142,-0.18206 -0.3059,-0.20769 -0.63799,-0.26651 -1.28266,-0.22714 -1.07919,0.066 -1.49766,0.43704 -2.01216,1.78443 -0.402703,1.05457 -0.636559,1.24378 -0.908712,0.73523 -0.220973,-0.41287 0.03938,-1.63019 0.445506,-2.08295 0.322616,-0.35965 2.666226,-1.45905 3.406256,-1.59788 1.09063,-0.204685 2.68329,0.48791 3.34583,1.45482 0.3314,0.48367 0.41203,0.51786 1.1632,0.4933 1.59941,-0.0523 2.18249,0.61611 1.82583,2.09286 -0.10886,0.45079 -0.2105,1.0307 -0.22605,1.2887 -0.0241,0.40191 0.0271,0.46906 0.35723,0.46906 0.29737,0 0.60092,-0.28189 1.329039,-1.23423 1.02177,-1.33644 1.40229,-1.57089 2.3027,-1.41876 0.65376,0.1105 1.58549,1.01409 1.50167,1.4564 -0.0875,0.46113 -1.25412,0.42213 -2.16256,-0.0724 -0.92258,-0.50213 -1.01654,-0.44975 -1.32286,0.7375 -0.17408,0.67509 -0.35157,0.95371 -0.886009,1.391366 -1.28752,1.05439 -1.85089,1.67819 -1.85443,2.05334 -0.002,0.2036 -0.14111,0.54608 -0.30924,0.76108 l -0.30573,0.3909 z m 27.828019,32.193 c 5.81766,-2.26497 11.34149,-5.93252 15.8983,-10.55569 2.24215,-2.27481 2.93251,-3.07933 4.38555,-5.1107 2.56683,-3.58852 4.13875,-6.80669 5.32094,-10.8935 l 0.40706,-1.4072 0.0605,-7.622386 0.0605,-7.622377 h -15.41167 -15.41175 v 22.254753 c 0,12.24012 0.0375,22.29236 0.0836,22.33831 0.13423,0.13423 2.6582,-0.62242 4.60718,-1.38121 z m 11.10082,-9.32156 c -9.6e-4,-0.38297 -2.19646,-17.3766 -2.25215,-17.4323 -0.0642,-0.0642 -0.0836,-0.0173 -3.53233,8.4027 -1.39113,3.39686 -2.55834,6.20541 -2.5938,6.24123 -0.3605,0.36429 0.39962,-2.25998 2.41916,-8.35203 0.8674,-2.61649 2.51978,-7.87795 2.51978,-8.02332 0,-0.11202 -0.24733,-0.1855 -0.62541,-0.1855 h -0.62544 v -1.87628 -1.87628 H 129.096 c -2.80318,0 -2.77508,0.0235 -2.93172,-2.462616 l -0.11073,-1.759 h -1.46313 c -1.4126,0 -1.4632,-0.0129 -1.46486,-0.35181 -9.5e-4,-0.19347 -0.0453,-0.61566 -0.0987,-0.93815 l -0.097,-0.58633 h 11.66901 11.66904 v 0.93815 0.93814 h -1.4854 -1.4854 v 1.69882 c 0,1.481916 -0.0414,1.751446 -0.32405,2.110826 -0.32333,0.41106 -0.32911,0.41197 -2.57989,0.41197 h -2.25582 v 1.79811 1.7981 h -0.62542 c -0.49669,0 -0.62544,0.0575 -0.62544,0.27983 0,0.15383 0.73978,3.50676 1.64395,7.45081 0.90417,3.94405 1.60776,7.20715 1.56355,7.25134 -0.0442,0.0442 -0.11957,0.0411 -0.16762,-0.006 -0.0481,-0.0481 -0.82638,-2.57508 -1.72984,-5.6158 -0.90343,-3.04071 -1.77921,-5.91559 -1.94615,-6.38856 l -0.30356,-0.85996 0.0802,4.53434 c 0.0442,2.4939 0.12561,6.45167 0.1812,8.79508 0.0752,3.17246 0.0549,4.26072 -0.0795,4.26072 -0.0991,0 -0.18054,-0.0879 -0.18077,-0.19542 z m 0.59371,-21.88993 -0.0459,-1.13359 h -1.71991 -1.71993 l -0.0459,1.13359 -0.0458,1.1336 h 1.81181 1.8118 z m 4.53357,-4.143446 -0.0453,-1.36812 h -6.48882 -6.48879 l -0.0453,1.36812 -0.0453,1.368116 h 6.57916 6.57915 z m -29.0455,28.103066 c 0.63896,-0.34197 2.10772,-2.71474 2.65918,-4.29592 0.16503,-0.473 0.30632,-0.69065 0.35659,-0.54908 0.0458,0.12906 0.23415,0.6567 0.41854,1.17269 0.91749,2.56752 3.06981,5.02937 2.82467,3.2309 -0.0151,-0.11485 -0.27099,-0.54652 -0.5674,-0.95911 -0.668,-0.92978 -1.68278,-3.10478 -1.9354,-4.14808 -0.19412,-0.80137 -0.51053,-4.31793 -0.39871,-4.42976 0.16568,-0.16568 1.50983,0.67993 1.77766,1.11828 0.42692,0.69871 0.80257,2.06509 0.80257,2.91908 0,0.39794 0.0978,0.85745 0.21761,1.02113 0.19175,0.26234 0.24971,0.27098 0.48841,0.0728 0.22262,-0.18486 0.25499,-0.39226 0.18206,-1.16677 -0.11144,-1.18201 -0.59713,-2.75901 -1.05608,-3.4288 -0.45827,-0.66878 -1.21584,-1.17814 -1.923,-1.29288 l -0.56699,-0.0921 v -1.55398 c 0,-1.52211 -0.006,-1.55296 -0.3518,-1.50403 -0.33226,0.0471 -0.35432,0.131 -0.39691,1.50677 l -0.045,1.45677 -0.58032,0.23944 c -0.87888,0.36258 -1.54641,0.92719 -1.98892,1.68229 -0.50406,0.86012 -0.95799,3.26541 -0.71636,3.79576 0.3567,0.78287 0.70438,0.29643 0.86058,-1.20412 0.13724,-1.31901 0.72984,-2.54918 1.47012,-3.05221 0.85547,-0.58132 0.9671,-0.5222 0.96574,0.51141 -0.005,3.23806 -0.71835,5.21543 -3.03357,8.40063 -0.14047,0.19326 -0.0332,0.70715 0.14759,0.70715 0.0513,0 0.22656,-0.0713 0.38936,-0.15835 z m -10.94881,-10.3635 c 0.64922,-0.32845 0.52527,-0.90787 -0.27362,-1.27897 -0.76162,-0.35377 -0.819439,-0.47851 -0.28405,-0.61287 1.18876,-0.29836 0.06,-2.12742 -1.313029,-2.12742 -0.32355,0 -0.74121,0.18917 -1.21315,0.54955 -0.61264,0.46782 -0.79993,0.5345 -1.25897,0.44838 l -0.53929,-0.1011 0.11309,0.84156 c 0.0623,0.46286 0.18421,0.92951 0.27121,1.03702 0.21308,0.26354 0.77375,0.24684 1.14522,-0.0341 0.48915,-0.36997 0.69439,-0.28784 0.69439,0.27787 0,0.54499 0.23388,0.9541 0.62544,1.09405 0.44435,0.15879 1.642589,0.10344 2.032629,-0.0939 z m 12.03396,-5.88525 c 0.089,-0.16632 0.16438,-0.71164 0.1674,-1.21176 0.0106,-1.97195 0.5338,-3.87292 1.29073,-4.70076 0.29935,-0.32741 0.34086,-0.33399 0.60385,-0.096 0.44275,0.40067 0.86876,1.73214 1.14835,3.58917 0.36603,2.43098 0.42755,2.63597 0.8076,2.69104 0.2387,0.0347 0.3541,-0.0584 0.42548,-0.34277 0.22555,-0.89866 -0.59307,-4.68797 -1.27494,-5.90159 l -0.40703,-0.72442 0.40553,-0.48192 c 0.82211,-0.97703 0.6701,-2.4236 -0.3326,-3.16493 -0.34099,-0.25212 -0.48343,-0.48696 -0.48343,-0.79708 0,-0.539766 0.24577,-0.559586 0.90526,-0.073 0.6396,0.47186 1.07867,1.03599 1.58254,2.03328 0.23226,0.45965 0.53086,0.8254 0.70052,0.85806 0.26467,0.051 0.28716,-0.0194 0.21417,-0.66771 -0.15017,-1.33166 -1.7064,-3.136676 -2.98014,-3.456336 -0.37115,-0.0931 -0.41169,-0.18098 -0.45398,-0.98473 -0.0377,-0.71853 -0.10109,-0.89283 -0.34042,-0.93842 -0.40088,-0.0763 -0.56075,0.23204 -0.56359,1.08712 -0.002,0.70361 -0.0194,0.7278 -0.66692,0.97782 -1.26862,0.48943 -2.85317,2.413936 -2.74724,3.336676 0.0752,0.65527 0.46397,0.53536 0.90944,-0.2805 0.6216,-1.13845 1.4889,-2.04416 2.15051,-2.245786 0.31056,-0.0946 0.35182,-0.0521 0.35182,0.362396 0,0.38298 -0.1125,0.53276 -0.60932,0.81205 -0.73514,0.41318 -0.95426,0.84619 -0.95426,1.88594 0,0.66536 0.0722,0.85866 0.46908,1.25552 0.25798,0.25799 0.46906,0.50352 0.46906,0.54564 0,0.042 -0.16892,0.30058 -0.37542,0.57433 -0.60155,0.79745 -1.05754,2.49817 -1.14772,4.28056 -0.0444,0.87663 -0.0386,1.70337 0.0129,1.83721 0.12948,0.33719 0.52846,0.3046 0.7231,-0.059 z m 1.12741,-7.62488 c -0.18658,-0.1547 -0.38281,-0.50727 -0.43612,-0.7833 -0.0812,-0.42005 -0.0194,-0.57942 0.37838,-0.97723 0.55424,-0.55425 0.85086,-0.59295 1.27719,-0.16654 0.47713,0.47711 0.54753,1.01999 0.20792,1.60357 -0.35228,0.60547 -0.92984,0.73638 -1.42741,0.32356 z m 23.17929,-14.236244 -0.0129,-1.446299 0.55951,-0.0024 c 0.69134,-0.0035 1.02625,-0.199848 0.89992,-0.529073 -0.13208,-0.343872 -0.46745,-0.362915 -1.4191,-0.08052 l -0.45325,0.13449 0.336,-0.357636 c 0.46527,-0.495254 0.42102,-0.624807 -0.17214,-0.504176 -0.27949,0.05678 -0.73886,0.14313 -1.02082,0.191737 -0.41536,0.07159 -0.47851,0.129565 -0.33265,0.305292 0.0991,0.11929 0.31209,0.216904 0.47356,0.216904 0.16138,0 0.29357,0.05737 0.29357,0.12739 0,0.177643 -1.03744,0.654394 -1.42398,0.654394 -0.21871,0 -0.30244,0.08534 -0.26652,0.271825 0.0778,0.403599 0.52857,0.420327 1.24627,0.0462 0.35098,-0.182932 0.66316,-0.307618 0.69372,-0.277055 0.0306,0.03056 0.0129,0.420832 -0.0404,0.867243 -0.0888,0.748599 -0.12777,0.811136 -0.50434,0.804812 -0.2245,-0.0035 -0.68964,-0.108264 -1.03363,-0.232186 -0.74783,-0.269415 -0.7036,-0.263867 -0.7036,-0.08816 0,0.224287 2.23283,1.417382 2.57989,1.378531 0.28866,-0.03233 0.31178,-0.146292 0.30045,-1.481294 z m -15.86987,0.766149 c 0.9563,-0.582076 0.97184,-0.774061 0.0567,-0.699228 -1.01853,0.08323 -3.07053,-0.554181 -3.14952,-0.978399 -0.0662,-0.35458 -0.31606,-0.691176 -0.51347,-0.691176 -0.0771,0 -0.0942,0.183697 -0.0377,0.408231 0.10168,0.404786 0.0967,0.407302 -0.58335,0.29738 -0.60979,-0.09851 -0.65983,-0.08487 -0.45129,0.12384 0.12905,0.129083 0.7797,0.459119 1.44602,0.733412 0.66631,0.274293 1.25522,0.569522 1.3087,0.656039 0.0905,0.146422 0.97941,0.590917 1.15421,0.577105 0.0431,-0.0047 0.38942,-0.195629 0.76985,-0.427204 z m -20.40934,-0.270778 c 0.27013,-0.703965 0.10039,-1.29487 -0.6463,-2.249853 -0.15297,-0.195699 -0.34877,0.472778 -0.3509,1.198372 -0.002,0.663434 0.0612,0.856534 0.34511,1.055407 0.43599,0.305374 0.53361,0.304798 0.65209,-0.0035 z m 13.45163,-0.02857 c 0.0795,-0.04902 -0.1603,-0.235631 -0.53284,-0.414755 -0.37258,-0.179136 -0.95725,-0.657556 -1.29931,-1.063153 -0.59046,-0.700169 -0.61184,-0.761718 -0.42289,-1.217874 0.18012,-0.434915 0.16483,-0.516907 -0.16245,-0.86521 -0.45421,-0.483499 -0.56131,-0.482217 -0.6844,0.0082 l -0.0987,0.392984 -0.47059,-0.347927 -0.47058,-0.347916 0.59135,-0.296192 c 0.32524,-0.162902 0.71292,-0.447035 0.86151,-0.631401 0.23449,-0.290951 0.2706,-0.299085 0.27362,-0.0616 0.002,0.199014 0.13142,0.273623 0.47254,0.273623 0.39045,0 0.46909,-0.06265 0.46909,-0.373941 0,-0.540452 -0.61746,-0.654394 -1.39545,-0.257495 -0.40885,0.208582 -0.63269,0.254074 -0.67186,0.136547 -0.0756,-0.226568 -1.21618,0.766055 -1.21618,1.058346 0,0.12009 0.0879,0.221313 0.19542,0.224945 0.10755,0.0035 0.35777,0.260822 0.55616,0.571521 0.30467,0.477127 0.33367,0.630202 0.18658,0.98517 -0.22028,0.531776 -1.57527,1.875171 -2.14663,2.128258 l -0.43336,0.191961 0.4362,0.0127 c 0.60831,0.01763 1.57599,-0.51077 2.29846,-1.255231 l 0.61099,-0.629556 0.39601,0.781502 c 0.53939,1.064435 0.92181,1.315418 1.80898,1.187217 0.387,-0.05595 0.76868,-0.141778 0.8482,-0.19075 z M 125.2909,89.65787 c 0.54115,-0.320126 1.32421,-0.941888 1.74017,-1.381669 l 0.75624,-0.799628 0.36709,0.608185 c 0.92038,1.524776 1.14522,1.631723 2.08697,0.992634 0.66557,-0.451677 0.65256,-0.599427 -0.0592,-0.672449 -0.61511,-0.06312 -1.16874,-0.342038 -1.79374,-0.903778 l -0.4459,-0.400743 0.36771,-0.543285 c 0.2356,-0.348068 0.56435,-0.597276 0.91496,-0.693538 0.61747,-0.169544 1.25085,-0.570733 1.25085,-0.792305 0,-0.08111 -0.28142,-0.147503 -0.62541,-0.147503 -0.34399,0 -0.62544,-0.03597 -0.62544,-0.07993 0,-0.04396 0.15255,-0.404352 0.33894,-0.800921 0.24983,-0.531495 0.2968,-0.787944 0.1786,-0.975532 -0.337,-0.535197 -0.59417,-0.342602 -1.12573,0.842993 -0.58789,1.311245 -0.88599,1.559583 -1.69091,1.408577 -0.59686,-0.111909 -0.59616,-0.0071 0.005,0.660389 l 0.31691,0.352006 -0.75533,1.105472 c -0.68174,0.99776 -2.23849,2.490315 -2.5974,2.490315 -0.0779,0 -0.14199,0.07041 -0.14199,0.156354 0,0.305527 0.56787,0.148385 1.53829,-0.425698 z M 89.595821,89.06646 c 0.47474,-1.003555 1.00917,-1.42494 1.00917,-0.795737 0,0.565338 0.2869,0.650256 0.48009,0.142096 0.20145,-0.529602 0.88919,-1.456409 1.08091,-1.456409 0.0758,0 0.18248,0.140709 0.2371,0.312709 0.15211,0.478997 0.54238,0.376151 0.65196,-0.171753 0.0644,-0.322607 0.30613,-0.636056 0.72317,-0.938139 0.34444,-0.249513 0.68369,-0.453664 0.75387,-0.453664 0.0702,0 -0.1504,0.510112 -0.49033,1.13359 -0.33988,0.623467 -0.61893,1.335872 -0.62014,1.583105 -0.002,0.422748 -0.0323,0.443519 -0.50632,0.348703 -0.57792,-0.115553 -1.98875,0.325816 -2.11799,0.662646 -0.11485,0.299261 0.25324,0.4884 0.95591,0.491198 0.47061,0.0024 0.61872,-0.06548 0.68275,-0.310323 0.045,-0.171988 0.14155,-0.312708 0.21437,-0.312708 0.073,0 0.20792,0.140708 0.29998,0.312708 0.20683,0.386378 0.80915,0.407361 1.12248,0.03903 0.12798,-0.150488 0.39486,-0.729497 0.59295,-1.286676 0.19799,-0.557191 0.59674,-1.451272 0.88591,-1.986857 0.62208,-1.152104 0.64188,-1.34129 0.16698,-1.5954 -0.30773,-0.164689 -0.45773,-0.135384 -1.05539,0.206231 -0.86304,0.493302 -0.93123,0.494783 -0.93123,0.02022 0,-0.209911 -0.0799,-0.431047 -0.17753,-0.491398 -0.17581,-0.108617 0.64895,-0.707374 1.38932,-1.008669 0.40378,-0.164324 0.49299,-0.88832 0.12691,-1.028852 -0.12368,-0.04749 -0.63389,0.149725 -1.13361,0.438218 -1.33877,0.772932 -1.70946,0.908797 -2.47949,0.908797 -0.80275,0 -0.87252,0.157589 -0.26627,0.601473 l 0.43,0.314825 -0.36431,0.341379 c -0.26843,0.251524 -0.33879,0.443073 -0.26731,0.727816 0.0535,0.212544 0.0561,0.515437 0.006,0.673097 -0.14544,0.457954 -2.081878,2.033336 -2.365634,1.92446 -0.297816,-0.114259 -0.521174,0.201294 -0.524407,0.7409 -0.0024,0.492714 0.261563,0.773966 0.727911,0.773966 0.27683,0 0.44471,-0.189574 0.76222,-0.860731 z m 1.95281,-3.194257 c -0.22431,-0.419151 -0.22707,-0.413543 0.38937,-0.794514 0.64782,-0.400378 1.01234,-0.318257 1.01234,0.22806 0,0.275716 -0.1366,0.462457 -0.4613,0.630332 -0.60097,0.310781 -0.74514,0.300977 -0.94041,-0.06383 z m 11.064559,3.867365 c 0.10321,-0.103209 0.18767,-0.310122 0.18767,-0.459847 0,-0.496911 0.33334,-0.488365 0.85996,0.02198 0.28614,0.277326 0.58938,0.461493 0.6739,0.409253 0.0844,-0.05219 0.23422,-0.557367 0.33261,-1.122505 0.0985,-0.565149 0.31679,-1.377237 0.48528,-1.804664 0.36236,-0.919342 0.39666,-1.678862 0.0812,-1.799892 -0.12388,-0.04749 -0.70427,0.194688 -1.28996,0.538171 -0.58567,0.343484 -1.09493,0.594902 -1.13166,0.558708 -0.15642,-0.154156 0.91229,-1.062989 1.65129,-1.404298 0.81812,-0.377855 1.15953,-0.805529 0.81366,-1.019284 -0.20059,-0.123933 -0.66924,0.06089 -0.83512,0.329225 -0.19411,0.314131 -0.38014,0.143165 -0.29857,-0.274458 0.10192,-0.521925 -0.253,-1.068819 -0.60583,-0.933436 -0.13724,0.05266 -0.36504,0.51693 -0.51403,1.047954 -0.30503,1.08717 -0.73387,1.519334 -1.65353,1.66639 -0.91584,0.146445 -0.66303,0.909644 0.26736,0.806998 0.70432,-0.0777 0.60413,0.292643 -0.15793,0.583676 -0.78525,0.299884 -0.90795,0.615355 -0.34003,0.874131 0.55202,0.2515 2.28677,-0.55625 2.28677,-1.064775 0,-0.359107 0.69989,-0.965034 0.89238,-0.772556 0.14845,0.148419 -0.20834,2.262325 -0.42604,2.524687 -0.28247,0.340368 -0.82778,0.0059 -0.69131,-0.4243 0.0954,-0.301001 0.0603,-0.315848 -0.49946,-0.210816 -0.78476,0.147209 -0.88176,0.217422 -0.78923,0.571297 0.0424,0.162279 0.0129,0.295065 -0.0647,0.295065 -0.0779,0 -0.14177,0.10556 -0.14177,0.234537 0,0.128989 0.0704,0.234538 0.15642,0.234538 0.0859,0 0.15641,0.128988 0.15641,0.286659 0,0.489564 0.27157,0.630108 0.59417,0.307502 z m 18.24462,-0.903296 c 0.052,-0.08405 0.19801,-0.793551 0.32474,-1.576721 0.12668,-0.783171 0.34285,-1.641598 0.48041,-1.907616 0.23266,-0.449926 0.23085,-0.497734 -0.0259,-0.685439 -0.15168,-0.110968 -0.35352,-0.155332 -0.44834,-0.09862 -0.0948,0.05678 -0.0765,-0.01481 0.0405,-0.159364 0.11696,-0.144423 0.16761,-0.380771 0.11202,-0.525264 -0.0647,-0.168521 0.0742,-0.48036 0.3871,-0.86983 0.5122,-0.637349 0.5184,-1.060438 0.0151,-1.060438 -0.16417,0 -0.85239,0.389599 -1.52939,0.865786 -0.67698,0.476187 -1.42396,0.986299 -1.6599,1.13359 -0.59721,0.372801 -0.53838,0.50233 0.22818,0.50233 0.57231,0 0.76221,-0.0978 1.44147,-0.742698 0.43027,-0.408478 0.65284,-0.587002 0.49456,-0.396711 -0.15835,0.19028 -0.24822,0.448998 -0.19993,0.574906 0.0482,0.125909 -0.0151,0.31499 -0.14264,0.420174 -0.12668,0.105208 -0.20316,0.268651 -0.16978,0.363244 0.0831,0.235443 -0.82375,1.368233 -1.0054,1.255961 -0.19498,-0.120502 -0.63763,0.965233 -0.65586,1.608695 -0.0173,0.605175 0.20015,0.876929 0.58358,0.729791 0.20921,-0.08029 0.25371,-0.21587 0.18464,-0.561446 -0.0805,-0.4032 -0.0644,-0.428885 0.14134,-0.223206 0.12776,0.127848 0.23245,0.456756 0.23245,0.730919 0,0.415942 0.0502,0.485368 0.3026,0.41934 0.17495,-0.04573 0.33779,0.01246 0.38599,0.138122 0.0967,0.252053 0.34536,0.285331 0.48187,0.06454 z m -0.53406,-1.05898 c -0.006,-0.279489 0.0595,-0.508161 0.14543,-0.508161 0.18572,0 0.18572,0.271637 0,0.703612 -0.11273,0.262057 -0.13616,0.230388 -0.14543,-0.19544 z m 0.0933,-1.394177 c -0.20986,-0.209793 -0.096,-0.792881 0.20855,-1.068444 0.3045,-0.275562 0.31267,-0.273105 0.3106,0.09298 -0.005,0.807939 -0.24144,1.253022 -0.51907,0.975414 z m 14.38737,0.93909 c 0.59727,-0.72925 1.84561,-1.462286 2.47309,-1.4522 0.23472,0.0035 0.17625,0.07982 -0.23454,0.304633 -0.45471,0.24895 -0.4894,0.300719 -0.20511,0.306162 0.18809,0.0035 0.81698,-0.103563 1.3974,-0.238194 1.09715,-0.254439 1.93488,-0.721268 1.93488,-1.0782 0,-0.398156 -0.49644,-0.439064 -1.61591,-0.133173 -0.27633,0.07547 -0.27669,0.06195 -0.008,-0.366336 0.15253,-0.2446 0.58068,-0.822209 0.95141,-1.283561 0.37072,-0.461364 0.67406,-0.936293 0.67406,-1.055407 0,-0.315178 -0.78881,-0.27206 -1.75733,0.09604 -1.01979,0.3876 -1.03754,0.387224 -0.53092,-0.01176 0.50011,-0.393372 0.52807,-0.827746 0.0739,-1.145933 -0.38059,-0.266582 -0.62979,-0.196862 -0.5005,0.139991 0.10403,0.270896 -0.71912,1.478332 -1.01091,1.483022 -0.14413,0.0024 -0.18012,0.135325 -0.11763,0.433316 0.15986,0.761189 -0.1282,0.885076 -0.50384,0.216682 -0.18744,-0.333316 -0.45844,-0.703107 -0.60248,-0.821787 -0.23767,-0.195804 -0.25146,-0.172376 -0.1491,0.253311 0.32137,1.336623 0.43514,1.624223 0.66073,1.669962 0.20985,0.04255 0.19736,0.112026 -0.084,0.469005 -0.40983,0.519822 -0.1868,0.701414 0.34646,0.282004 0.35693,-0.280758 0.89223,-0.287882 0.89223,-0.01187 0,0.0596 -0.31399,0.261022 -0.69778,0.447469 -0.38376,0.186459 -0.98709,0.600403 -1.34071,0.919883 l -0.64297,0.580877 0.3438,-0.582688 c 0.49631,-0.841194 0.26599,-0.874378 -0.30535,-0.04396 -0.92493,1.344347 -0.45637,1.864228 0.56081,0.62222 z m 3.02035,-1.590263 c 0.12905,-0.0797 0.41043,-0.191961 0.62543,-0.249467 0.27166,-0.07265 0.31934,-0.0603 0.15641,0.04032 -0.12906,0.0797 -0.41043,0.191973 -0.62543,0.249467 -0.27167,0.07265 -0.31935,0.0603 -0.15641,-0.04032 z m -0.62543,-0.689025 c 0,-0.133126 0.11567,-0.286401 0.25691,-0.340615 0.38501,-0.147738 0.40925,-0.02022 0.0567,0.298791 -0.26513,0.239933 -0.31366,0.24641 -0.31366,0.04185 z m -0.1564,-0.893151 c 0,-0.0817 0.0952,-0.204844 0.21156,-0.273623 0.11638,-0.06877 0.2442,-0.227015 0.28404,-0.351665 0.059,-0.184579 0.0909,-0.178184 0.17258,0.03456 0.0564,0.146869 -0.005,0.365819 -0.13876,0.50025 -0.26936,0.269368 -0.52945,0.313814 -0.52945,0.09051 z m 1.02864,-0.714498 c -0.25815,-0.393983 -0.25808,-0.394066 0.47322,-0.707538 0.40227,-0.172424 0.76511,-0.279807 0.80628,-0.238617 0.067,0.06689 -0.85872,1.340174 -0.97427,1.340174 -0.0259,0 -0.16331,-0.177314 -0.30523,-0.394019 z m -19.79146,3.677509 c 0,-0.331764 -0.51213,-0.938139 -0.7923,-0.938139 -0.0989,0 -0.1256,0.14353 -0.0657,0.351807 0.0556,0.193488 0.13551,0.474929 0.17752,0.625417 0.10862,0.389352 0.68067,0.356497 0.68067,-0.03903 z m 17.01006,-2.116257 c 0.0272,-0.188622 -0.14543,-0.497628 -0.42997,-0.770346 -0.43353,-0.415354 -0.47534,-0.42738 -0.47534,-0.136747 0,0.175245 0.0784,0.543802 0.17451,0.819012 0.19521,0.560095 0.65496,0.615497 0.73089,0.08816 z M 113.099,83.76217 c 0.26119,-0.135077 0.58394,-0.245587 0.71719,-0.245587 0.13811,0 0.2423,-0.134537 0.2423,-0.31272 0,-0.353217 -0.48063,-0.419469 -1.16248,-0.160234 -0.3162,0.120231 -0.40108,0.104503 -0.40108,-0.07417 0,-0.24005 -0.7622,-0.703753 -1.15678,-0.703753 -0.19498,0 -0.20533,0.08276 -0.0616,0.495065 0.15966,0.458214 0.13553,0.528239 -0.32643,0.940913 l -0.49901,0.445858 1.08649,-0.06994 c 0.59755,-0.03844 1.30017,-0.180429 1.56138,-0.315507 z m 1.89764,-15.021301 V 56.935938 l 10.51499,0.0036 10.515,0.0036 0.74208,1.52089 c 0.942,1.930636 2.42515,3.922325 4.35498,5.848202 2.05819,2.053962 4.98286,4.17573 7.02058,5.093229 0.2933,0.132072 -3.16136,0.177618 -13.83758,0.182444 l -14.22847,0.0065 v 1.449567 1.449565 l 4.02621,0.04173 4.02618,0.04173 v 1.873633 1.873643 h -3.98709 -3.9871 v 2.110814 2.110814 h 15.40114 15.40113 v -2.111014 -2.110814 h -3.90891 -3.90893 v -1.876232 -1.876271 h 3.90893 3.90891 l -3.7e-4,-3.713471 -3.6e-4,-3.713473 -0.8987,-0.468606 c -3.17975,-1.658045 -7.82035,-6.180204 -9.42703,-9.186421 l -0.4805,-0.89905 H 114.68958 89.227471 l -0.426466,0.742695 c -1.831149,3.188969 -5.536517,6.657406 -9.961882,9.324876 l -0.429982,0.25918 v 7.81423 7.814227 h 18.29374 18.293719 z m -33.676088,9.942446 c -0.225318,-0.502072 -0.409667,-1.155443 -0.409667,-1.451942 0,-0.519234 0.05127,-0.566113 1.393195,-1.273652 0.766249,-0.40401 4.231226,-2.311297 7.699921,-4.238413 5.72914,-3.182961 6.31524,-3.545468 6.39968,-3.958392 0.13897,-0.679328 0.17172,-0.709777 1.90164,-1.767982 2.355109,-1.440611 4.339139,-2.790714 4.339139,-2.952706 0,-0.07805 -0.67005,-1.179523 -1.48901,-2.447716 -0.81896,-1.268191 -1.465539,-2.381054 -1.436889,-2.473028 0.0564,-0.181001 2.903279,-1.808587 3.160439,-1.806855 0.0859,5.79e-4 0.72362,0.932616 1.41697,2.071193 l 1.26061,2.070142 h 1.06548 1.06547 l 0.91833,1.454183 c 0.50505,0.799802 0.91829,1.483369 0.91829,1.519037 0,0.03568 -0.21415,0.308707 -0.47578,0.60675 l -0.47578,0.541894 0.84418,1.69163 c 1.05705,2.11815 1.60505,3.494739 1.98931,4.997225 0.25877,1.011659 0.27763,1.341754 0.13595,2.374547 -0.0905,0.659755 -0.34065,1.727258 -0.55569,2.372224 -0.38863,1.165658 -1.05819,2.263795 -1.29211,2.11923 -0.0672,-0.04161 -0.16654,-0.697405 -0.22042,-1.45736 -0.1868,-2.631564 -1.34006,-5.650862 -3.30237,-8.645795 -0.55994,-0.854609 -1.05766,-1.553832 -1.10603,-1.553832 -0.2702,0 -1.82181,0.887134 -9.378709,5.362301 -2.32189,1.375018 -5.3474,3.096833 -6.723335,3.826259 -1.375945,0.729427 -3.314182,1.807627 -4.307193,2.396016 -0.993023,0.588377 -2.057571,1.175097 -2.365667,1.303839 l -0.560176,0.234056 z m 48.438018,-2.564267 c 0.2433,-0.17789 0.27319,-0.403458 0.22533,-1.700138 -0.0564,-1.528349 0.0409,-1.847301 0.56365,-1.847301 0.20252,0 0.24113,0.273652 0.24113,1.712153 0,1.465671 0.0394,1.735098 0.27363,1.871527 0.20834,0.121348 0.052,0.160516 -0.65532,0.164136 -0.8042,0.0035 -0.89126,-0.0228 -0.64842,-0.200377 z m 2.75003,-0.107559 c -0.41119,-0.411181 -0.39445,-0.657391 0.0766,-1.1285 0.38743,-0.387424 0.38782,-0.390774 0.0782,-0.67098 -0.42159,-0.381523 -0.4032,-1.089121 0.0362,-1.396964 0.46878,-0.328349 0.63278,-0.306632 0.40757,0.05397 -0.14952,0.239288 -0.13379,0.376729 0.0805,0.703602 0.40785,0.622491 0.72803,0.526087 0.72803,-0.219185 0,-0.372284 -0.0739,-0.625437 -0.18248,-0.625437 -0.10039,0 -0.13768,-0.0447 -0.0832,-0.09936 0.16525,-0.165317 0.8909,0.399562 0.8909,0.693604 0,0.150876 -0.11015,0.431447 -0.24456,0.62349 -0.22586,0.322454 -0.21989,0.380571 0.0782,0.759484 0.41977,0.533622 0.41009,1.071018 -0.0248,1.37558 -0.47719,0.334233 -0.63457,0.304939 -0.42866,-0.07982 0.13487,-0.252158 0.11696,-0.408665 -0.0818,-0.712017 -0.25023,-0.381876 -0.65137,-0.634704 -0.78889,-0.497181 -0.23521,0.235195 -0.23403,1.036375 0.002,1.272264 0.23036,0.230365 0.23202,0.260129 0.0151,0.260129 -0.13509,0 -0.38644,-0.140709 -0.55843,-0.312721 z m 3.55711,0.143835 c -0.56024,-0.326309 -0.1786,-1.059321 0.42998,-0.825794 0.26772,0.102739 0.31223,0.45913 0.0756,0.605363 -0.0875,0.05407 -0.11851,0.163701 -0.069,0.243765 0.11697,0.18921 -0.0907,0.178113 -0.43665,-0.02327 z m 1.24063,-0.183908 c 0.0703,-0.19296 0.12756,-0.969042 0.12756,-1.724659 0,-1.051058 -0.0551,-1.408661 -0.23453,-1.522079 -0.12904,-0.08153 -0.15447,-0.14933 -0.0564,-0.150644 0.63845,-0.0086 1.27392,1.385064 1.05262,2.308473 -0.15686,0.654617 -0.48913,1.237294 -0.76611,1.343583 -0.2036,0.07817 -0.22668,0.03045 -0.12302,-0.254674 z m 2.58683,0.248138 c -0.33181,-0.133491 -0.66124,-0.936845 -0.66124,-1.612539 0,-0.820364 0.34728,-1.646476 0.79226,-1.884621 0.3146,-0.168376 0.33612,-0.157862 0.2148,0.10469 -0.21372,0.462221 -0.26887,2.810617 -0.0745,3.17379 0.17193,0.321302 0.10921,0.371802 -0.27121,0.218692 z m 0.89684,-0.197779 c 0.26061,-0.486966 0.18895,-1.233979 -0.15082,-1.573853 -0.28661,-0.286613 -0.28951,-0.312709 -0.0347,-0.312709 0.57036,0 0.97294,0.452864 0.97294,1.094492 0,0.450726 -0.0898,0.670569 -0.34751,0.851104 -0.46927,0.328672 -0.63535,0.306384 -0.43978,-0.05901 z m -4.65042,-1.348179 c -0.70722,-0.49536 -0.27656,-2.126966 0.55155,-2.089608 0.16354,0.0073 0.195,0.04411 0.0782,0.0912 -0.2947,0.118907 -0.25512,1.690711 0.0502,1.996096 0.22336,0.22337 0.21942,0.245705 -0.0433,0.245705 -0.159,0 -0.44547,-0.109558 -0.6366,-0.243401 z m 4.58555,-1.151164 c -0.0549,-0.08887 -0.002,-0.346117 0.11509,-0.571638 0.20317,-0.387828 0.22943,-0.395477 0.48381,-0.141084 0.14802,0.147925 0.24715,0.383556 0.22048,0.523618 -0.0554,0.290903 -0.66885,0.432505 -0.81928,0.189116 z m -10.7495,-5.20369 c 0.12086,-0.120912 0.18787,-0.746385 0.18851,-1.759012 4.7e-4,-0.864263 0.0707,-1.822408 0.15577,-2.129215 0.15255,-0.548948 0.16548,-0.556415 0.81999,-0.469071 0.53773,0.07176 0.67461,0.156117 0.715,0.440563 0.038,0.2676 -0.0274,0.351802 -0.27362,0.351802 -0.21935,0 -0.32358,-0.100741 -0.32358,-0.312713 0,-0.175981 -0.10427,-0.312714 -0.23841,-0.312714 -0.62336,0 -0.65848,2.051495 -0.0446,2.606463 0.22959,0.207566 0.55382,0.283755 1.18073,0.277466 0.75196,-0.0075 0.91428,-0.0669 1.24983,-0.456983 0.34862,-0.405292 0.3801,-0.557653 0.32809,-1.587746 -0.0316,-0.626688 -0.008,-1.053917 0.0489,-0.949399 0.16051,0.286901 0.44635,2.520275 0.44635,3.488088 0,0.638394 0.0631,0.87777 0.25031,0.949613 0.13768,0.05283 0.31702,-0.0021 0.39855,-0.122184 0.19239,-0.28336 0.0151,-3.056116 -0.26516,-4.12956 -0.11763,-0.451243 -0.17301,-1.071232 -0.12324,-1.377755 0.18141,-1.117526 -0.26866,-1.668786 -1.36231,-1.668786 -0.25392,0 -0.4617,-0.07037 -0.4617,-0.156353 0,-0.09018 0.49088,-0.156354 1.15991,-0.156354 1.36299,0 1.65451,-0.0856 1.65451,-0.485799 0,-0.268484 -0.13077,-0.295984 -1.4072,-0.295984 -1.14661,0 -1.40722,-0.04344 -1.40722,-0.234535 0,-0.128991 0.13121,-0.234537 0.29163,-0.234537 0.54889,0 1.11559,-0.601465 1.11559,-1.184024 0,-0.665756 -0.40139,-0.734278 -0.63908,-0.109099 -0.21071,0.554082 -0.40076,0.662856 -1.15902,0.663171 -0.92888,3.83e-4 -1.30567,-0.14319 -1.35935,-0.517973 -0.0263,-0.183846 -0.16504,-0.356578 -0.30815,-0.383846 -0.38888,-0.07407 -0.51818,0.534275 -0.21265,1.000584 0.26407,0.403016 0.32763,0.438971 1.05928,0.599287 0.80443,0.176261 0.43776,0.400973 -0.65435,0.400973 -1.22257,0 -1.88646,0.191235 -1.88646,0.543379 0,0.264228 0.0375,0.26932 1.75901,0.239513 0.76501,-0.01314 1.21177,0.04033 1.21177,0.145324 0,0.09145 -0.16546,0.166285 -0.36755,0.166285 -0.5808,0 -1.34482,0.319134 -1.51203,0.631594 -0.0843,0.157302 -0.15297,0.533442 -0.15297,0.835887 0,0.302444 -0.10556,0.955098 -0.23454,1.450341 -0.23573,0.904993 -0.33266,4.124331 -0.13034,4.326705 0.1508,0.150731 0.27734,0.129164 0.48991,-0.08338 z m 1.43131,-2.327472 c -0.22877,-0.42743 -0.14802,-0.486669 0.78549,-0.576371 0.6972,-0.06698 0.78523,-0.04167 0.78523,0.225887 0,0.441696 -0.30751,0.67659 -0.88574,0.67659 -0.35744,0 -0.56278,-0.09777 -0.68498,-0.326106 z m 1.18856,-1.379708 c -0.12928,-0.209183 0.0719,-0.639538 0.29902,-0.639538 0.12497,0 0.16892,0.141983 0.1213,0.390894 -0.0758,0.397108 -0.26102,0.506581 -0.42043,0.248644 z m -1.46813,-1.401956 c -0.16634,-0.105467 -0.15599,-0.152411 0.052,-0.232141 0.43156,-0.165596 0.70393,-0.113519 0.70393,0.134594 0,0.254849 -0.42179,0.309283 -0.75581,0.09753 z m 1.53757,-0.112191 c 0,-0.241598 0.39975,-0.302215 0.53628,-0.08131 0.0471,0.07623 -0.0543,0.175184 -0.22532,0.219897 -0.20145,0.0527 -0.31096,0.0039 -0.31096,-0.138578 z m -2.03261,-0.833502 c 0,-0.185418 0.10556,-0.235879 0.82086,-0.392631 0.52784,-0.115658 0.57843,0.153294 0.0536,0.285015 -0.20706,0.05195 -0.48846,0.13748 -0.62542,0.190028 -0.13789,0.05293 -0.24907,0.01616 -0.24907,-0.08241 z m 2.4626,-0.03719 c -0.45499,-0.166178 -0.58361,-0.443697 -0.20553,-0.443697 0.37555,0 1.0265,0.294998 1.0265,0.465201 0,0.194123 -0.24832,0.187616 -0.82087,-0.02155 z m -8.48075,5.741802 c 0.29633,-0.123821 0.6815,-0.458032 0.85591,-0.742693 0.29866,-0.487466 0.31477,-0.735839 0.27704,-4.270131 -0.0388,-3.634969 -0.0497,-3.752559 -0.35278,-3.752559 -0.30363,0 -0.31271,0.104232 -0.31271,3.596204 0,2.285109 -0.0612,3.699571 -0.16805,3.87973 -0.15103,0.254718 -0.21179,0.217422 -0.59865,-0.367072 -0.77985,-1.178431 -0.87497,-1.686676 -0.87497,-4.675109 0,-2.072615 -0.0528,-2.837063 -0.21071,-3.053183 -0.47145,-0.644751 -0.57097,-0.125522 -0.57097,2.979028 0,3.305324 -0.0471,3.549452 -0.91732,4.750693 l -0.48328,0.667141 -0.17968,-0.448869 c -0.10968,-0.273883 -0.19844,-1.750337 -0.2277,-3.787349 -0.0263,-1.836164 -0.0846,-3.375196 -0.12948,-3.420075 -0.0448,-0.04488 -0.17969,-0.04395 -0.29959,0.002 -0.29942,0.114906 -0.46777,2.727242 -0.33331,5.171597 0.12561,2.28119 0.41572,3.120962 1.19561,3.4598 0.67503,0.293262 2.63962,0.299629 3.3309,0.01081 z m -2.19776,-1.282748 c 0.30494,-0.399349 0.55443,-0.793402 0.55443,-0.875672 0,-0.08229 0.24625,0.216358 0.54724,0.663621 0.30099,0.447266 0.54725,0.84132 0.54725,0.875675 0,0.03436 -0.49575,0.06245 -1.10167,0.06245 h -1.10166 z m 38.01348,74.272413 c -1.85531,-1.79157 -3.37331,-3.30139 -3.37331,-3.35515 0,-0.0538 0.16267,-0.27334 0.36166,-0.48797 l 0.36166,-0.39023 4.1336,0.75048 c 2.27347,0.41278 4.3095,0.75317 4.52448,0.7564 0.32128,0.005 -0.0937,-0.4605 -2.33082,-2.61297 l -2.72175,-2.61885 0.37637,-0.42015 0.3764,-0.42015 3.43984,3.34679 3.43985,3.3468 -0.40921,0.41251 -0.40923,0.41249 -1.46706,-0.25315 c -0.80689,-0.13918 -2.80391,-0.49177 -4.43784,-0.78339 -1.63392,-0.29163 -3.00008,-0.50099 -3.03591,-0.46524 -0.0357,0.0357 1.15064,1.24355 2.63659,2.68399 l 2.70175,2.61898 -0.39687,0.36812 -0.39685,0.3681 z m -97.136483,-0.19045 -2.37268,-2.4305 3.388997,-3.32016 3.389,-3.32016 2.417126,2.40655 2.417127,2.40656 -0.355981,0.37892 -0.35598,0.37893 -1.982968,-2.02334 -1.982968,-2.02336 -1.055407,0.96163 c -0.580476,0.52891 -1.055408,1.04177 -1.055408,1.1397 0,0.098 0.824083,1.00431 1.831296,2.01415 l 1.831298,1.83609 -0.361795,0.33705 -0.361798,0.33707 -1.901241,-1.89666 -1.901241,-1.8967 -1.209587,1.2096 -1.209589,1.20959 2.062484,2.06674 c 2.038029,2.04224 2.05906,2.07052 1.773452,2.38612 -0.158961,0.17558 -0.366078,0.30886 -0.460245,0.29603 -0.09417,-0.0129 -1.238918,-1.11708 -2.543892,-2.45385 z M 166.7652,133.76677 c -1.98588,-1.60114 -3.61069,-2.96089 -3.61069,-3.02169 0,-0.0608 0.16137,-0.26216 0.35873,-0.44752 l 0.35871,-0.33699 3.51111,2.82596 c 1.93111,1.55427 3.57435,2.88618 3.65164,2.95977 0.15232,0.145 -0.28728,0.93165 -0.52054,0.93165 -0.0761,0 -1.76307,-1.31003 -3.74896,-2.91118 z m -109.368016,0.0241 c -0.13888,-0.21202 -0.252519,-0.43137 -0.252519,-0.48753 0,-0.17883 0.912365,-1.17135 3.40448,-3.70362 1.334636,-1.35617 2.391789,-2.50056 2.349231,-2.54314 -0.08971,-0.0896 -2.046124,0.71122 -5.321589,2.17855 -1.267266,0.56772 -2.360274,1.03221 -2.428906,1.03221 -0.06863,0 -0.249388,-0.21093 -0.401683,-0.46876 l -0.276894,-0.46874 1.860976,-2.15023 c 3.943463,-4.55638 4.391399,-5.06326 4.499706,-5.09169 0.06142,-0.0151 0.252459,0.15922 0.424537,0.38975 l 0.312864,0.41903 -2.836787,3.05103 c -1.560234,1.67808 -2.836787,3.08964 -2.836787,3.13681 0,0.13703 1.113211,-0.32185 4.443679,-1.83177 l 3.114647,-1.41204 0.363513,0.4543 c 0.19994,0.24985 0.363862,0.52619 0.364289,0.61409 4.27e-4,0.0879 -0.602454,0.75631 -1.339735,1.48538 -2.173471,2.14926 -4.547587,4.75471 -4.21015,4.62039 1.070493,-0.42617 7.676491,-2.90218 7.745032,-2.90295 0.04595,-5.4e-4 0.208579,0.21071 0.361374,0.46933 0.2176,0.36838 0.23338,0.48626 0.0728,0.54389 -0.895013,0.32116 -9.020514,3.05109 -9.08143,3.05109 -0.04299,0 -0.191752,-0.17345 -0.330648,-0.38538 z M 169.3306,130.66821 c -2.49389,-0.6204 -4.62286,-1.15807 -4.73105,-1.19483 -0.14091,-0.0478 -0.0965,-0.2105 0.15641,-0.57285 0.2237,-0.32057 0.43903,-0.47372 0.5876,-0.41789 0.12906,0.0484 1.53622,0.4381 3.12714,0.86586 1.59094,0.42778 3.40339,0.92611 4.0277,1.10738 0.62433,0.18119 1.17818,0.28653 1.23082,0.23389 0.0828,-0.0828 -1.74601,-2.43 -4.58077,-5.87908 l -0.82228,-1.0005 0.32603,-0.45785 c 0.17925,-0.25183 0.38005,-0.39966 0.44609,-0.32854 0.0662,0.0711 1.42461,1.8609 3.01907,3.97726 l 2.899,3.84798 -0.34115,0.48824 c -0.18766,0.26851 -0.44668,0.48164 -0.57567,0.47357 -0.12906,-0.008 -2.27498,-0.52225 -4.76889,-1.14264 z m 4.10436,-6.27325 c -2.30038,-1.15664 -4.18254,-2.13858 -4.18254,-2.18212 0,-0.16461 2.97635,-6.01761 3.06003,-6.01761 0.0768,0 0.69962,0.29791 0.8123,0.38851 0.0228,0.0194 -0.53021,1.14091 -1.22906,2.49451 -0.69884,1.3536 -1.2101,2.51822 -1.13609,2.58805 0.22212,0.20964 2.29715,1.25227 2.49218,1.25227 0.0996,0 0.70035,-1.01976 1.3352,-2.26615 0.63483,-1.24637 1.22874,-2.26659 1.31981,-2.26715 0.0911,-5.8e-4 0.29167,0.0911 0.4458,0.20382 0.26155,0.19131 0.20101,0.36308 -0.90841,2.57823 l -1.18865,2.37333 1.40425,0.70523 c 0.77233,0.38791 1.47559,0.70526 1.56278,0.70526 0.0872,0 0.7298,-1.14336 1.42797,-2.54079 0.69816,-1.39744 1.28755,-2.56103 1.30974,-2.58573 0.1011,-0.11273 0.86952,0.35399 0.82811,0.5028 -0.0642,0.23104 -3.08501,6.18933 -3.13256,6.17886 -0.0215,-0.005 -1.92046,-0.95476 -4.22086,-2.11139 z m -121.526958,0.40237 -0.241278,-0.46658 2.034368,-1.01941 2.03437,-1.01944 -1.13009,-2.26654 c -0.621549,-1.24662 -1.185066,-2.26656 -1.252261,-2.26656 -0.0672,0 -0.964334,0.42217 -1.993644,0.93814 -1.029309,0.51599 -1.905926,0.93814 -1.948039,0.93814 -0.04212,0 -0.185244,-0.21006 -0.31805,-0.46697 l -0.241482,-0.46697 3.722476,-1.86249 c 2.047365,-1.02435 3.983639,-1.97159 4.302833,-2.10497 0.579886,-0.24227 0.580547,-0.24211 0.814799,0.21092 0.128949,0.24935 0.234445,0.47702 0.234445,0.50589 0,0.0289 -0.773964,0.43441 -1.719922,0.90115 -0.94596,0.46673 -1.719924,0.89741 -1.719924,0.95707 0,0.10015 2.010436,4.38594 2.100802,4.47842 0.02212,0.0226 0.850562,-0.3396 1.840957,-0.80496 l 1.800719,-0.8461 0.24401,0.5117 0.244008,0.51168 -4.210626,2.05226 c -2.315844,1.12874 -4.243604,2.05224 -4.283908,2.05224 -0.04031,0 -0.181863,-0.20984 -0.314563,-0.46658 z m 125.180218,-7.90239 c -2.35503,-0.8094 -4.30892,-1.49872 -4.34197,-1.53178 -0.11378,-0.11379 1.63719,-4.99636 1.93468,-5.39479 0.56901,-0.76212 1.10588,-1.04423 1.9719,-1.03617 1.56683,0.0151 2.50664,0.98629 2.49166,2.57627 l -0.008,0.90236 0.53842,-0.36539 c 0.29611,-0.20102 0.77073,-0.44205 1.0547,-0.53577 0.85433,-0.28194 3.5336,-0.90554 3.5336,-0.82242 0,0.0427 -0.0791,0.34117 -0.17558,0.66355 l -0.1756,0.58613 -1.9743,0.49591 c -2.48442,0.62403 -2.80634,0.80693 -3.32225,1.88762 -0.82173,1.72131 -0.8924,1.60241 1.40296,2.35998 l 2.00996,0.66335 -0.15965,0.52021 c -0.0879,0.28612 -0.23582,0.51627 -0.3289,0.51144 -0.0931,-0.005 -2.09603,-0.67106 -4.45108,-1.4805 z m 0.55449,-2.96089 c 0.66829,-1.99378 0.68306,-2.76165 0.0651,-3.37967 -0.3525,-0.35252 -0.59983,-0.45706 -1.08124,-0.45706 -0.93958,0 -1.38715,0.57401 -2.09408,2.68559 -0.32195,0.96165 -0.56142,1.77237 -0.53219,1.80163 0.13229,0.13229 2.70297,0.96221 2.89978,0.93622 0.13099,-0.0173 0.43258,-0.66151 0.74268,-1.58671 z M 47.157007,113.68108 c -0.0973,-0.27909 -0.159004,-0.5235 -0.137114,-0.54311 0.02189,-0.0194 0.356415,-0.14456 0.7434,-0.27778 4.067909,-1.39983 7.110265,-2.47238 7.16317,-2.52528 0.03564,-0.0355 -0.149631,-0.65742 -0.411716,-1.38173 l -0.476518,-1.31691 0.404343,-0.18421 c 0.222388,-0.10121 0.460512,-0.12798 0.529164,-0.0595 0.174257,0.1743 2.249846,6.27602 2.164046,6.3618 -0.03846,0.0383 -0.25363,0.11591 -0.478182,0.17237 -0.389737,0.0978 -0.424669,0.0523 -0.76937,-0.99896 -0.198603,-0.60579 -0.412239,-1.18422 -0.47475,-1.28535 -0.0811,-0.13121 -1.181714,0.18572 -3.842833,1.10645 -2.051049,0.7097 -3.843377,1.32396 -3.982956,1.365 -0.17749,0.0522 -0.306963,-0.0779 -0.430687,-0.43286 z m 134.447623,-5.22564 c 0,-0.48134 0.0476,-0.54725 0.39591,-0.54725 1.15336,0 2.1048,-0.9616 2.42236,-2.44829 0.42776,-2.00258 -0.99744,-3.43402 -2.31513,-2.32524 -0.25244,0.21243 -0.79357,1.0514 -1.2025,1.86443 -0.91029,1.80985 -1.38727,2.39359 -2.17436,2.66099 -1.65746,0.5631 -3.06783,-0.66873 -3.06783,-2.67945 0,-2.21099 1.32157,-3.95212 2.99979,-3.95212 0.42201,0 0.45583,0.0405 0.41087,0.49276 -0.0437,0.44036 -0.12819,0.51573 -0.79283,0.70867 -0.92243,0.26775 -1.48788,1.03296 -1.62618,2.20066 -0.1672,1.41209 0.30163,2.22675 1.28161,2.22675 0.71844,0 1.00927,-0.31843 1.88697,-2.06607 1.19307,-2.37552 1.7696,-2.93733 3.01423,-2.93733 0.84514,0 1.29971,0.19605 1.87774,0.81018 0.81006,0.86054 1.02136,2.2908 0.56528,3.82654 -0.4834,1.62776 -1.70702,2.70049 -3.0896,2.70859 -0.56651,0.005 -0.58633,-0.015 -0.58633,-0.54382 z M 46.706198,107.64979 c -1.266264,-0.62418 -1.994868,-2.2134 -1.887329,-4.11659 0.0975,-1.72539 0.948946,-2.54043 3.199113,-3.06227 3.703011,-0.858786 5.434885,-1.160786 5.55664,-0.968996 0.253154,0.39881 0.1411,0.892656 -0.221611,0.976816 -0.193498,0.0448 -1.477571,0.32667 -2.853509,0.62614 -1.37594,0.29951 -2.762652,0.61844 -3.081584,0.70874 -0.750526,0.21244 -1.46713,0.93655 -1.593484,1.61007 -0.162537,0.86642 0.186366,2.10828 0.771785,2.74695 0.503395,0.54921 0.547392,0.56429 1.585098,0.54292 0.587031,-0.0129 2.333821,-0.30164 3.881752,-0.64339 l 2.814419,-0.6214 0.134808,0.53462 c 0.07414,0.29404 0.109323,0.55425 0.07817,0.57822 -0.03115,0.024 -1.463845,0.33863 -3.183769,0.69924 -3.363169,0.70513 -4.401497,0.7828 -5.200513,0.38893 z M 184.26267,99.853084 c -0.81697,-0.11026 -2.84335,-0.36051 -4.50308,-0.55613 l -3.01766,-0.35569 0.047,-0.55903 c 0.0323,-0.38593 0.11957,-0.55139 0.28141,-0.53439 4.81805,0.50588 9.11885,1.09679 9.18205,1.26156 0.11959,0.31185 -0.0978,0.983046 -0.31178,0.962556 -0.10579,-0.0106 -0.86089,-0.108616 -1.67785,-0.218876 z m -137.798349,-1.0003 c -1.732399,-0.69731 -2.610069,-1.9409 -2.734136,-3.87409 -0.12688,-1.977166 0.676513,-3.437172 2.342762,-4.257465 2.270773,-1.117897 4.926598,-0.676247 6.497589,1.080516 0.19311,0.215941 0.500534,0.872627 0.683164,1.4593 0.703503,2.259879 -0.156052,4.292769 -2.277707,5.386859 -1.082226,0.55811 -3.375385,0.66221 -4.511672,0.20489 z m 3.152138,-0.96105 c 1.090757,-0.23391 2.130606,-0.9376 2.523457,-1.70765 0.673814,-1.32079 0.288848,-3.292502 -0.800961,-4.102345 -0.7629,-0.566913 -1.435665,-0.747529 -2.778156,-0.745801 -2.425704,0.0024 -3.924674,1.305038 -3.924674,3.408706 0,0.99028 0.532803,2.00322 1.360307,2.58609 0.987285,0.69547 2.151666,0.87591 3.620027,0.561 z m 127.537021,-4.17288 c 0.11415,-4.191131 0.0989,-4.104367 0.72427,-4.104367 h 0.48883 l -0.0849,1.541974 -0.0849,1.541973 1.18034,0.0998 c 0.64918,0.0549 1.82719,0.0998 2.61779,0.0998 0.7906,0 2.1872,0.04584 3.10354,0.101916 l 1.66607,0.101917 v 0.539697 0.53974 l -4.29982,-0.11485 -4.2998,-0.11485 v 1.33669 c 0,1.64905 -0.0644,1.83137 -0.64688,1.83137 h -0.45707 z M 45.314217,88.595921 c -0.930066,-0.557485 -1.383461,-1.537977 -1.372686,-2.968524 0.01058,-1.402711 0.271987,-2.287493 0.88074,-2.98082 0.562073,-0.64017 1.074915,-0.935364 1.890982,-1.08845 l 0.580936,-0.10897 v 0.552231 c 0,0.484497 -0.05663,0.564667 -0.461727,0.653641 -1.128182,0.247786 -1.874411,1.415066 -1.880189,2.941064 -0.0054,1.426174 0.619224,2.298496 1.645845,2.298496 0.787988,0 1.292125,-0.709819 1.943375,-2.736243 0.434655,-1.35247 0.964322,-2.299942 1.471523,-2.632282 1.124116,-0.73655 2.678776,-0.281299 3.333154,0.976037 0.611916,1.175755 0.471444,3.197007 -0.301609,4.339813 -0.375025,0.554406 -1.392444,1.147168 -1.968998,1.147168 -0.286079,0 -0.341526,-0.08887 -0.341526,-0.547247 0,-0.416729 0.06527,-0.547387 0.273623,-0.547834 0.564768,-0.0012 1.251093,-0.590834 1.526188,-1.311162 0.626512,-1.640493 -0.0086,-3.285136 -1.268443,-3.285136 -0.774342,0 -1.013537,0.335632 -1.693519,2.376303 -0.308575,0.926054 -0.743157,1.951732 -0.965743,2.2793 -0.726817,1.069607 -2.124432,1.342442 -3.291926,0.642638 z M 177.07026,88.177216 v -0.688942 l 1.52447,-0.817437 c 0.83848,-0.449585 1.80005,-1.049705 2.13687,-1.333603 l 0.61241,-0.516165 -2.33232,-1.220272 c -1.28278,-0.671145 -2.3467,-1.231146 -2.36426,-1.244453 -0.0173,-0.0134 -0.0812,-0.332692 -0.14156,-0.709772 l -0.10967,-0.685592 0.76699,0.435103 c 0.42186,0.239298 1.75354,0.987545 2.95935,1.662757 l 2.19232,1.227666 1.40387,-0.147656 c 0.77211,-0.08123 1.66771,-0.148901 1.9902,-0.150429 0.5664,-0.0024 0.58633,0.01599 0.58633,0.544472 0,0.320655 -0.0776,0.547246 -0.18723,0.547246 -0.10298,0 -1.00002,0.07888 -1.99354,0.175139 l -1.80639,0.175151 -2.37645,1.624811 c -1.30708,0.893646 -2.48559,1.666684 -2.61898,1.717865 -0.1965,0.07535 -0.24252,-0.03762 -0.24252,-0.595877 z M 63.335355,61.353016 c -0.466944,-0.408482 -0.854742,-0.81522 -0.861777,-0.903861 -0.0071,-0.08863 0.208192,-0.244577 0.47827,-0.346521 l 0.491058,-0.185353 -0.09426,-1.373402 c -0.148036,-2.156676 -0.520418,-4.71528 -0.721553,-4.957631 -0.100812,-0.121473 -0.628599,-0.510983 -1.172864,-0.865586 -0.996955,-0.649543 -1.177643,-0.945591 -1.184821,-1.941267 -0.0052,-0.728545 -0.218556,-0.796847 -1.106579,-0.354325 -0.774163,0.385779 -1.392732,0.529552 -1.392732,0.32371 0,-0.04908 0.309837,-0.52402 0.688527,-1.055408 0.378689,-0.531386 0.798511,-1.353141 0.932933,-1.826121 0.261917,-0.921566 0.567533,-3.572521 0.567533,-4.922833 0,-0.763936 0.03357,-0.838327 0.457388,-1.013882 0.644149,-0.266813 1.355434,0.07362 1.306343,0.625245 -0.01896,0.212435 -0.119426,1.208204 -0.223383,2.212834 -0.154759,1.495651 -0.151614,1.871647 0.01746,2.075253 0.123174,0.148426 0.325719,0.210777 0.502417,0.154695 0.169927,-0.05393 0.530683,0.04447 0.846824,0.231004 1.056373,0.623277 1.283444,0.357944 1.426323,-1.666667 0.07918,-1.122145 0.156699,-1.418054 0.447674,-1.709025 0.378991,-0.378991 1.030498,-0.604357 1.370239,-0.473987 0.11567,0.04439 0.656786,0.984254 1.202462,2.088588 1.028569,2.081604 1.613909,3.030065 3.153297,5.109465 1.00686,1.360059 1.155281,2.038869 0.602956,2.75766 -0.255173,0.332081 -0.425998,0.387344 -1.208288,0.390893 -0.835683,0.0039 -0.9154,0.03451 -0.963067,0.371235 -0.03117,0.220214 0.08692,0.514939 0.295128,0.736573 0.307533,0.327353 0.325417,0.421812 0.156893,0.828663 -0.10462,0.252558 -0.518863,0.823219 -0.920556,1.268139 -0.661033,0.732164 -0.757866,0.788404 -1.020245,0.592534 -0.279716,-0.208817 -0.28047,-0.262724 -0.02155,-1.535639 0.368084,-1.809008 0.621924,-2.377856 1.214979,-2.722745 1.004083,-0.583922 0.982846,-0.96825 -0.111626,-2.019853 -0.647822,-0.622452 -1.050318,-1.225153 -1.693837,-2.536365 -0.464255,-0.945944 -0.885886,-1.879693 -0.936958,-2.074996 -0.06884,-0.263222 -0.18684,-0.341783 -0.456066,-0.303638 -0.510395,0.07231 -0.712765,1.176215 -0.49228,2.685336 0.139786,0.956722 0.246508,1.208724 0.737204,1.740609 0.680943,0.738099 0.685607,1.116832 0.01293,1.055872 -0.255627,-0.02316 -0.640677,-0.05834 -0.855668,-0.07818 -0.340979,-0.03146 -0.397514,0.03374 -0.442761,0.510626 -0.07771,0.819067 0.416452,2.428938 1.010807,3.292982 0.800925,1.164341 0.632524,1.427069 -0.445277,0.694684 -0.316385,-0.214999 -0.641815,-0.390893 -0.723172,-0.390893 -0.265683,0 -0.331846,0.457457 -0.181109,1.252256 0.159047,0.838604 0.365157,1.301927 1.190965,2.677116 0.598721,0.997028 0.62718,1.1817 0.249867,1.621341 -0.227229,0.264765 -0.983188,0.703555 -1.212104,0.703555 -0.03796,0 -0.451049,-0.334211 -0.917994,-0.742693 z m -0.268318,-9.81158 c 0.118434,-0.240998 0.250179,-0.871992 0.292739,-1.402209 l 0.0774,-0.964032 -0.672686,-0.575794 c -0.786076,-0.67285 -0.930715,-0.694833 -1.473851,-0.223993 -0.360354,0.31239 -0.415568,0.5007 -0.492819,1.680835 -0.100141,1.529844 0.03407,1.834772 0.88884,2.019577 0.714772,0.154544 1.118645,-0.0018 1.380393,-0.534384 z m 97.004233,6.762624 c -0.31328,-0.406158 -1.77218,-4.544438 -1.75012,-4.964326 0.006,-0.128991 0.16482,0.08562 0.3511,0.476946 0.29623,0.622084 1.92997,2.806545 2.099,2.806545 0.0342,0 0.48661,-0.369393 1.00516,-0.820873 0.51855,-0.45148 1.19884,-1.04392 1.51174,-1.316531 0.31289,-0.272613 0.53201,-0.532552 0.48692,-0.577643 -0.0742,-0.07406 -0.45852,-0.177963 -2.18412,-0.590237 -0.30099,-0.07192 -0.75143,-0.295333 -1.00097,-0.49649 -0.38616,-0.311266 -0.43619,-0.433808 -0.33596,-0.822779 l 0.11785,-0.457039 0.23707,0.350761 c 0.16611,0.245727 0.70439,0.494979 1.79781,0.832392 0.85843,0.2649 1.99352,0.714639 2.52241,0.999421 0.52892,0.284782 1.14309,0.559351 1.36482,0.610156 0.43386,0.09939 0.76951,0.65768 0.76951,1.279902 0,0.210948 -0.0726,0.383534 -0.16137,0.383534 -0.3281,0 -1.18527,-0.443271 -1.7755,-0.918156 -0.46356,-0.372977 -0.53778,-0.490235 -0.31271,-0.494027 0.2856,-0.0047 0.28533,-0.01228 -0.008,-0.234534 -0.39395,-0.29796 -0.71282,-0.292749 -0.71282,0.01164 0,0.608995 -3.08022,4.136776 -3.61195,4.136776 -0.1422,0 -0.32652,-0.08795 -0.40943,-0.195436 z m 10.1193,-4.427008 c -0.387,-0.122484 -0.98505,-0.395651 -1.32904,-0.60706 -0.34399,-0.211402 -1.1654,-0.667292 -1.82538,-1.013078 -0.65995,-0.345787 -1.23827,-0.690745 -1.28515,-0.766571 -0.097,-0.156979 1.87911,0.481321 3.73238,1.20559 0.68601,0.268096 1.38963,0.485206 1.56356,0.482472 0.31596,-0.0049 0.31596,-0.0052 0.005,-0.24742 -0.5967,-0.462615 -2.73133,-1.467531 -3.11733,-1.467531 -0.21352,0 -0.54919,-0.171866 -0.74618,-0.381947 -0.35987,-0.383806 -2.39925,-1.252066 -3.36751,-1.433715 -0.2855,-0.05356 -1.14763,0.02471 -1.91585,0.173913 -1.99541,0.38758 -3.03772,0.117551 -2.22808,-0.577227 0.2749,-0.235893 1.97565,-0.761727 2.39469,-0.74038 0.12345,0.0062 -0.16267,0.147477 -0.63567,0.313769 -0.47298,0.166287 -0.9655,0.352351 -1.09449,0.413468 -0.12906,0.06113 0.7505,0.15086 1.95444,0.199423 1.84104,0.07427 2.39564,0.158422 3.48897,0.529424 1.25521,0.425947 1.30752,0.431157 1.5195,0.151334 0.26108,-0.344644 0.28819,-0.625956 0.073,-0.758872 -0.0859,-0.05316 -0.15641,-0.277471 -0.15641,-0.498495 0,-0.396332 -0.0129,-0.400514 -0.89907,-0.303969 -0.50629,0.05513 -1.00151,0.03083 -1.13358,-0.05559 -0.19067,-0.124769 -0.16934,-0.153919 0.11415,-0.15588 0.64383,-0.0045 1.60582,-0.484365 1.60582,-0.801155 0,-0.162666 -0.098,-0.295736 -0.21782,-0.295736 -0.30268,0 -0.44025,-0.434448 -0.18442,-0.582203 0.11567,-0.06677 0.53275,-0.754647 0.92687,-1.528614 0.70671,-1.387701 0.71666,-1.398538 0.71814,-0.781783 0.001,0.63847 -0.3131,2.262357 -0.54252,2.800044 -0.1159,0.271496 -0.074,0.289721 0.46268,0.20259 0.80491,-0.130628 1.33871,-0.508445 1.33871,-0.947544 0,-0.467576 0.15254,-0.611226 0.41631,-0.392254 0.15641,0.12981 0.58214,0.107042 1.65612,-0.08866 1.50498,-0.274213 2.14921,-0.559682 2.14921,-0.952357 0,-0.431561 0.28772,-0.233181 0.47209,0.325514 0.14371,0.435329 0.14027,0.661167 -0.015,1.037581 l -0.1993,0.48114 -1.26215,-0.09225 c -0.69421,-0.05074 -1.50028,-0.141336 -1.79128,-0.201361 -0.41632,-0.08584 -0.51359,-0.06237 -0.4563,0.110074 0.0401,0.120545 0.27815,0.282214 0.52911,0.359256 2.22041,0.681636 4.41084,1.671323 4.93576,2.230086 0.35627,0.379222 0.3585,0.397925 0.0728,0.606802 -0.16201,0.118541 -0.61945,0.254126 -1.01632,0.301314 -2.84066,0.337747 -5.92184,1.105063 -5.48443,1.365797 0.12561,0.07492 0.77274,0.451361 1.4379,0.836547 0.8852,0.512592 1.23666,0.808971 1.31109,1.105575 0.17646,0.702766 -0.59754,0.875316 -1.97323,0.439923 z m 0.0465,-3.654615 c 0.2051,-0.07323 -0.006,-0.214397 -0.7818,-0.522386 l -1.06276,-0.422025 -0.27362,0.328251 c -0.1506,0.18055 -0.27363,0.458532 -0.27363,0.617762 0,0.2626 0.098,0.280644 1.0554,0.194123 0.58046,-0.05246 1.18187,-0.14054 1.33641,-0.195738 z m 2.84614,-0.502243 c 1.98556,-0.388237 2.2783,-0.53351 1.77931,-0.883013 -0.3326,-0.232957 -3.02176,-1.282646 -3.28599,-1.282646 -0.0743,0 -0.13509,0.358533 -0.13509,0.796739 0,0.554853 -0.0983,0.934601 -0.32337,1.250852 -0.30237,0.42465 -0.30491,0.454126 -0.039,0.45424 0.15641,6.7e-5 1.05824,-0.151204 2.00419,-0.336172 z m -2.27091,-0.86738 c 0.22605,-0.2874 0.3168,-0.594685 0.28496,-0.965142 -0.0574,-0.667098 -0.39546,-0.833425 -0.4654,-0.228909 -0.0481,0.415159 -0.0905,0.436245 -0.91033,0.451885 -1.05104,0.02003 -1.56356,0.174344 -1.56356,0.470743 0,0.275999 0.18594,0.287868 0.44707,0.02854 0.15771,-0.156656 0.17753,-0.144676 0.0996,0.0603 -0.0745,0.196062 0.0418,0.292654 0.49888,0.413822 0.97464,0.258387 1.25537,0.218031 1.6088,-0.231264 z m -6.47264,4.031588 c -0.25694,-0.283932 -0.25621,-0.302029 0.0151,-0.359668 0.23241,-0.04943 0.19714,-0.107594 -0.18917,-0.313112 -0.48386,-0.257348 -0.98733,-0.980098 -0.80779,-1.159632 0.0545,-0.05458 0.34966,0.120675 0.65575,0.389421 0.30609,0.268753 0.87364,0.568492 1.26123,0.666086 0.76509,0.192657 1.20923,0.695345 0.82786,0.937014 -0.40159,0.254468 -1.47585,0.156892 -1.76272,-0.160103 z m 0.24004,-5.628182 c -0.17431,-0.110462 -0.18163,-0.237281 -0.0373,-0.65135 0.1937,-0.555582 0.92545,-1.864753 1.04232,-1.864753 0.0394,0 0.0715,0.457342 0.0715,1.016318 0,0.807842 -0.0642,1.080464 -0.31273,1.329031 -0.34768,0.347691 -0.44876,0.370289 -0.76385,0.170746 z M 80.349359,42.614052 c -0.476964,-0.739354 -0.905074,-1.44296 -0.951355,-1.563566 -0.09152,-0.238489 0.341854,-0.313246 0.483864,-0.08346 0.04617,0.07469 0.38453,0.183609 0.751922,0.242031 0.792631,0.126039 1.447184,0.545983 2.0361,1.306346 0.47917,0.618651 0.558458,1.203827 0.182706,1.348032 -0.135952,0.05221 -0.559769,0.09491 -0.941657,0.09491 h -0.69433 z m 70.259491,0.947292 c -0.60511,-0.334164 -0.94465,-1.080357 -0.91819,-2.017863 0.031,-1.097343 -0.30694,-2.915461 -0.55989,-3.012531 -0.11485,-0.04404 -0.29576,-0.0114 -0.40217,0.07256 -0.34825,0.274815 -2.83076,1.119374 -3.77097,1.282905 -0.50569,0.08795 -1.66665,0.204313 -2.57989,0.258577 -1.31749,0.07828 -1.77343,0.04895 -2.20768,-0.142069 l -0.54724,-0.240725 0.7036,-0.01293 c 0.77076,-0.014 2.43271,-0.334985 3.70699,-0.715711 0.95561,-0.28551 4.99595,-2.322432 5.41674,-2.730823 0.26238,-0.254657 0.26768,-0.315804 0.0564,-0.651644 -0.30916,-0.491649 -0.63615,-1.539882 -0.51741,-1.658622 0.0519,-0.0519 0.26016,0.06136 0.46279,0.251725 0.20252,0.190353 0.73219,0.484329 1.17682,0.653272 0.78909,0.299836 0.81855,0.300245 1.23361,0.01723 0.23388,-0.159478 0.70668,-0.477718 1.05066,-0.707211 0.76181,-0.508251 1.86079,-1.372805 2.52733,-1.988254 0.27208,-0.251221 0.52742,-0.456765 0.56738,-0.456765 0.17517,0 0.45042,0.965279 0.36842,1.291979 -0.0497,0.197958 -0.39187,0.581489 -0.76041,0.852307 -2.3928,1.758312 -2.46345,1.857293 -1.41985,1.989365 0.56339,0.07132 1.31619,0.437889 1.59904,0.778683 0.17128,0.206338 0.13466,0.267522 -0.24594,0.412668 -0.45431,0.173202 -1.25813,0.115694 -2.59791,-0.18587 -0.6813,-0.153359 -0.81257,-0.131448 -1.56358,0.260801 -0.45089,0.235512 -1.04436,0.580527 -1.31878,0.766698 l -0.49894,0.338497 0.69328,1.53918 c 0.88079,1.955525 1.25025,2.430951 2.32579,2.992952 0.47888,0.250226 0.87085,0.501478 0.87105,0.558337 2.1e-4,0.05686 -0.40419,0.134917 -0.89868,0.17346 -0.49447,0.03855 -1.03977,0.114189 -1.21176,0.168118 -0.17193,0.05391 -0.50533,-0.0083 -0.74072,-0.138342 z M 84.088185,41.175741 c -0.3018,-0.374447 -0.37842,-0.399798 -0.670874,-0.221979 -0.445577,0.270921 -0.636678,0.115764 -0.590464,-0.479396 0.02155,-0.272514 -0.03189,-0.49828 -0.117852,-0.5017 -0.268174,-0.01081 -0.547249,-0.24528 -0.547249,-0.460064 0,-0.250171 1.25098,-1.964895 1.43349,-1.964895 0.07147,0 0.130128,0.100506 0.130128,0.223368 0,0.681803 1.167304,0.95468 1.719911,0.40206 0.443449,-0.443429 0.396522,-1.212739 -0.124522,-2.041116 -0.24045,-0.382319 -0.692398,-1.154291 -1.004378,-1.715491 -0.665385,-1.197019 -1.066633,-1.607214 -1.434203,-1.466164 -0.705603,0.270761 -0.990214,2.115731 -0.407718,2.642885 0.396351,0.358693 0.392483,0.429711 -0.06162,1.136939 -0.205973,0.320642 -0.419787,0.844766 -0.475288,1.164721 -0.11527,0.664846 -0.702553,1.434332 -1.350176,1.76923 -0.544549,0.281596 -0.636825,0.28327 -0.999425,0.0181 -0.275412,-0.201383 -0.267725,-0.241487 0.172341,-0.899049 1.097568,-1.640044 1.122191,-2.486366 0.07233,-2.486366 -0.153554,0 -0.379469,0.227528 -0.521363,0.525083 -0.277692,0.582326 -1.006164,0.848394 -1.540246,0.562562 -0.361495,-0.193454 -0.392868,-0.592719 -0.05671,-0.721715 0.354849,-0.136165 1.456689,-1.898241 1.572283,-2.514412 0.105678,-0.563326 -0.124596,-1.333384 -1.052781,-3.520587 -0.462576,-1.09002 -0.490425,-1.237199 -0.2749,-1.452725 0.462498,-0.462501 1.494848,0.163485 2.043965,1.23941 0.274266,0.537387 0.336033,0.579886 0.542603,0.373316 0.128215,-0.128215 0.27214,-0.541819 0.319849,-0.919134 0.0968,-0.765601 0.418633,-1.233276 0.848656,-1.233276 0.576334,0 0.491058,0.654652 -0.306012,2.349465 -0.71194,1.513791 -0.774632,1.744043 -0.829044,3.04484 -0.05867,1.40265 -0.05763,1.407211 0.321623,1.407211 0.338907,0 0.438825,-0.1623 0.914393,-1.485389 0.29364,-0.816962 0.620782,-1.794366 0.727,-2.172005 0.200802,-0.713656 0.576655,-1.111486 1.050374,-1.111486 0.364783,0 1.052221,1.188433 1.390791,2.404323 0.367017,1.318086 0.589447,1.80333 1.692885,3.692817 0.527063,0.902536 0.958287,1.763113 0.958287,1.912391 0,0.366333 -0.606751,0.496968 -1.349884,0.290625 -1.581059,-0.439003 -2.174456,-0.01723 -1.592567,1.132216 0.569698,1.125249 0.104502,1.953938 -0.603565,1.075357 z m 14.521926,-5.818228 c 0.3905,-0.258648 0.88303,-0.733582 1.09453,-1.055406 0.935709,-1.423853 1.545429,-2.56071 1.905709,-3.553274 l 0.38794,-1.068734 -0.92972,-0.859184 c -0.51134,-0.472551 -0.89951,-0.889393 -0.86257,-0.926317 0.0758,-0.07584 1.27609,0.471944 1.70022,0.775973 0.34575,0.247854 0.50467,0.04137 0.64537,-0.83854 0.10651,-0.665129 0.2977,-0.738415 0.87894,-0.336639 0.86882,0.60054 0.99313,1.051632 0.51801,1.87949 l -0.25949,0.452132 0.81954,0.772301 c 0.81424,0.767292 2.84684,2.20026 3.29565,2.323408 0.12906,0.0354 0.57295,0.110404 0.98659,0.166652 0.9508,0.129337 0.88525,0.357869 -0.21351,0.744284 -2.08105,0.731911 -2.58374,0.568084 -4.17727,-1.361381 -0.64201,-0.77736 -1.22392,-1.474831 -1.29312,-1.549935 -0.0691,-0.0751 -0.35196,0.31188 -0.62832,0.859962 -0.84831,1.682335 -3.398999,4.04547 -4.366549,4.04547 -0.11661,0 0.10756,-0.211618 0.49799,-0.47027 z m 28.675359,-0.08144 c -0.33067,-0.113671 -0.82109,-0.412983 -1.08983,-0.665118 -0.89313,-0.838032 -2.19011,-1.708381 -3.88829,-2.609281 -0.92392,-0.490134 -1.72251,-0.960218 -1.77467,-1.044632 -0.19133,-0.309633 0.11179,-0.337846 0.6811,-0.06341 0.32142,0.15493 0.9642,0.413596 1.42844,0.574826 0.46424,0.161222 1.91071,0.750687 3.21439,1.309908 2.27485,0.975801 2.42194,1.016763 3.6512,1.016763 0.79112,0 1.28086,0.06283 1.28086,0.164326 0,0.181992 -0.94147,0.617449 -1.33493,0.617449 -0.13767,0 -0.54669,0.203817 -0.90876,0.452919 -0.62472,0.429812 -0.68897,0.442373 -1.25951,0.246227 z m 0.11414,-3.630835 c -0.14801,-0.23649 -0.29039,-0.459404 -0.31654,-0.495365 -0.0261,-0.03596 -0.22325,0.02864 -0.43799,0.143557 -0.51631,0.27633 -0.60406,0.151893 -0.40316,-0.571677 0.2803,-1.009426 0.22136,-1.413826 -0.22226,-1.525169 -0.46724,-0.117268 -0.48438,-0.242684 -0.10039,-0.735579 0.15966,-0.20509 0.38806,-0.65433 0.5073,-0.998315 0.11936,-0.343984 0.3052,-0.681692 0.41316,-0.750463 0.10791,-0.06877 0.1952,-0.279852 0.19391,-0.469072 -0.002,-0.301199 -0.0698,-0.266167 -0.54497,0.281394 -0.82063,0.945801 -1.38719,2.171628 -1.27134,2.750779 0.11764,0.588423 -0.12216,1.07996 -0.52671,1.07996 -0.75389,0 -0.80887,-1.136243 -0.13488,-2.786199 0.52913,-1.295266 1.04169,-2.038719 0.85487,-1.239985 -0.0554,0.236489 -0.0558,0.429982 -0.001,0.429982 0.0548,0 0.58325,-0.495564 1.17471,-1.101249 1.49972,-1.535855 2.99786,-2.191515 3.90195,-1.707672 0.43295,0.231719 0.38098,0.506788 -0.31321,1.657764 -0.33858,0.561389 -0.71984,1.454632 -0.84724,1.984983 -0.35537,1.479475 -1.00093,3.902932 -1.12111,4.208676 -0.15749,0.400525 -0.49792,0.334384 -0.80494,-0.156353 z m 0.63567,-1.821647 c 0.15836,-0.72242 0.26218,-1.385655 0.23067,-1.473858 -0.0315,-0.08821 -0.25282,0.0086 -0.4918,0.215366 -0.5369,0.46432 -0.9072,1.945383 -0.58378,2.335071 0.37871,0.456313 0.55926,0.226254 0.84491,-1.076586 z m 0.99514,-3.416594 c 0.27997,-0.795304 0.50865,-1.569139 0.50816,-1.719632 -0.001,-0.423256 -0.4701,-0.328998 -1.36677,0.274856 -0.7516,0.506162 -0.8027,0.579332 -0.66243,0.948319 0.0836,0.219912 0.15211,0.568677 0.15211,0.775036 0,0.31771 0.53066,1.099116 0.7818,1.151211 0.0431,0.0088 0.30723,-0.634488 0.58721,-1.42979 z m -6.36721,3.987387 0.005,-0.742693 0.30751,0.369123 c 0.4138,0.496694 0.41091,1.116266 -0.005,1.116266 -0.26956,0 -0.312,-0.102516 -0.30751,-0.742696 z m -0.23802,-2.110815 c -0.1687,-0.495135 -0.33975,-1.851421 -0.24105,-1.912414 0.20921,-0.129314 0.82029,0.430481 1.03762,0.950597 0.35881,0.85876 0.2928,1.157262 -0.25595,1.157262 -0.26071,0 -0.50397,-0.08795 -0.54062,-0.195437 z m -23.377009,-0.83927 c 0,-0.139118 0.40457,-0.789949 0.89903,-1.4463 0.750119,-0.995683 0.907309,-1.135338 0.948829,-0.843071 0.0484,0.341162 0.0624,0.343668 0.54143,0.09605 0.27044,-0.13985 0.62365,-0.42201 0.78492,-0.627046 0.41633,-0.529277 1.08591,-0.835611 1.82647,-0.835611 0.51827,0 0.6632,0.06612 0.77107,0.351803 0.19325,0.511953 -0.0478,0.8369 -0.75443,1.016231 -0.62162,0.157776 -0.62238,0.15741 -0.66994,-0.33141 -0.0263,-0.269156 -0.1159,-0.489376 -0.19907,-0.489376 -0.0833,0 -0.39999,0.366 -0.7036,0.813328 -0.34966,0.515172 -0.99972,1.131346 -1.77328,1.680835 -1.264509,0.898224 -1.671329,1.047821 -1.671329,0.614575 z M 128.33653,23.26316 c 0.50119,-0.427256 0.58032,-0.574968 0.49347,-0.920992 -0.0866,-0.345253 0.0173,-0.540819 0.63852,-1.205321 0.40806,-0.436261 0.70624,-0.828892 0.66262,-0.872515 -0.0782,-0.07825 -2.46602,1.476057 -3.27891,2.134367 -0.44666,0.361734 -1.68993,0.564499 -2.38761,0.389396 -0.41561,-0.104303 -0.55621,-0.40699 -0.18917,-0.40699 0.11567,0 0.66096,-0.291531 1.21177,-0.647845 1.15502,-0.747174 4.444,-2.47929 4.70771,-2.47929 0.098,0 0.30612,-0.115894 0.46265,-0.257544 0.22378,-0.202546 0.39315,-0.226399 0.79301,-0.111708 0.27964,0.08019 0.53055,0.260671 0.55759,0.401044 0.0282,0.146789 -0.41847,0.742292 -1.05156,1.401668 -0.60538,0.630542 -1.10195,1.211259 -1.10348,1.290485 -0.001,0.07922 0.10968,0.268281 0.24708,0.420128 0.13746,0.151851 0.20296,0.351882 0.14565,0.444527 -0.17021,0.275412 -1.2097,0.73804 -1.88099,0.837139 l -0.62543,0.09235 z m -28.00768,-0.217541 c 0.8561,-0.917877 0.94605,-1.489989 0.36799,-2.340677 -0.21114,-0.310789 -0.34471,-0.628643 -0.29669,-0.706339 0.097,-0.156893 1.15859,-0.03047 1.79397,0.21362 0.22532,0.08657 0.48767,0.328535 0.58297,0.537713 0.0952,0.209182 0.24742,0.380322 0.33802,0.380322 0.30714,0 1.2492,-0.452249 1.2492,-0.599693 0,-0.249121 1.4317,-0.395433 1.57652,-0.161115 0.13315,0.215635 -0.10144,0.604449 -0.36478,0.604449 -0.0864,0 -0.62313,0.342411 -1.19264,0.760916 -0.56947,0.418502 -1.20441,0.848851 -1.41095,0.956329 -0.32759,0.170488 -0.36313,0.163162 -0.27854,-0.05731 0.14135,-0.368275 -0.0869,-0.316581 -1.3004,0.294525 -1.30883,0.659111 -1.599959,0.691177 -1.06467,0.117269 z"
       id="path5" /></g></svg>
