<?xml version="1.0" encoding="UTF-8" standalone="no"?>
<!-- Created with Inkscape (http://www.inkscape.org/) -->

<svg
   version="1.1"
   id="svg1"
   width="1244.16"
   height="428.16"
   viewBox="0 0 1244.16 428.16"
   sodipodi:docname="SWJTU_logo_horizontal.png"
   xmlns:inkscape="http://www.inkscape.org/namespaces/inkscape"
   xmlns:sodipodi="http://sodipodi.sourceforge.net/DTD/sodipodi-0.dtd"
   xmlns="http://www.w3.org/2000/svg"
   xmlns:svg="http://www.w3.org/2000/svg">
  <defs
     id="defs1">
    <clipPath
       clipPathUnits="userSpaceOnUse"
       id="clipPath10">
      <rect
         style="fill:#000000;fill-opacity:0.0970655"
         id="rect10"
         width="361.43088"
         height="404.55347"
         x="35.047764"
         y="13.356473" />
    </clipPath>
  </defs>
  <sodipodi:namedview
     id="namedview1"
     pagecolor="#ffffff"
     bordercolor="#000000"
     borderopacity="0.25"
     inkscape:showpageshadow="2"
     inkscape:pageopacity="0.0"
     inkscape:pagecheckerboard="0"
     inkscape:deskcolor="#d1d1d1"
     showgrid="false"
     showguides="true">
    <sodipodi:guide
       position="1245.1573,426.01687"
       orientation="0,-1"
       id="guide4"
       inkscape:locked="false" />
  </sodipodi:namedview>
  <g
     inkscape:groupmode="layer"
     inkscape:label="Image"
     id="g1">
    <g
       id="g3"
       clip-path="url(#clipPath10)"
       transform="translate(321.46918,-2.1431284)">
      <g
         inkscape:label="Clip"
         id="g2">
        <path
           style="fill:#000000"
           d="m 212.31565,418.08739 c -24.10823,-5.16853 -44.43543,-12.31646 -64.96001,-22.84277 -18.38197,-9.42745 -33.2125,-19.56134 -48.356591,-33.04272 -34.88088,-31.05117 -57.66464,-73.94207 -62.7244,-118.08 -0.49136,-4.28624 -0.56366,-31.48571 -0.24506,-92.19357 l 0.45193,-86.113585 5.83706,-2.97788 c 19.29108,-9.8417 34.51645,-25.02792 42.98548,-42.87497 l 2.35369,-4.96 128.088951,0.022 128.08895,0.022 2.24,4.90821 c 8.00593,17.54233 24.40288,33.89332 43.97382,43.85058 l 5.34087,2.71731 -0.21315,91.520005 c -0.23282,99.97149 -0.0313,94.3269 -3.99944,112.01959 -7.14922,31.87606 -23.05344,60.2262 -47.40403,84.50025 -30.7431,30.64646 -74.5298,53.32784 -121.67845,63.02905 -3.34429,0.68811 -6.26482,1.22027 -6.49007,1.18257 -0.22526,-0.0377 -1.70555,-0.34638 -3.28955,-0.68597 z m 12.48,-1.83587 c 30.95902,-6.1231 66.20189,-21.49778 92.79103,-40.48003 14.23608,-10.16327 29.52001,-24.42316 39.584,-36.93181 16.21543,-20.15434 28.58448,-46.07751 33.74244,-70.71778 3.52514,-16.84003 3.39124,-12.76411 3.63031,-110.50684 l 0.22176,-90.666845 -7.00533,-3.63977 c -17.39871,-9.03989 -32.4138,-23.88462 -40.93094,-40.46655 l -3.36948,-6.56 H 215.62789 87.796329 l -2.44201,4.96 c -8.7856,17.84459 -23.46052,32.40848 -42.37677,42.05617 l -5.81809,2.96735 -0.44953,85.568245 c -0.47551,90.51487 -0.45681,91.30897 2.49814,106.07902 15.41742,77.06254 80.165881,138.22575 167.347581,158.08122 5.104,1.16242 9.712,2.00921 10.24,1.88175 0.528,-0.12747 4.128,-0.85833 8,-1.62413 z m -17.6,-9.25643 C 177.8967,400.67841 150.40274,388.54455 126.28944,371.2889 87.665479,343.64932 59.191149,303.59864 48.846959,262.3619 c -4.05272,-16.15602 -3.77915,-9.15532 -4.03006,-103.12899 l -0.22921,-85.848995 4.72812,-2.59494 c 21.33278,-11.70812 41.18127,-30.97282 44.98112,-43.65814 l 1.1006,-3.6742 H 215.93659 c 111.42742,0 120.54021,0.0796 120.55425,1.05263 0.0266,1.84105 2.83706,7.99175 5.45455,11.93716 7.22914,10.89664 28.70352,28.88345 42.12524,35.28382 l 2.32502,1.10873 v 86.248685 c 0,93.80697 0.0288,92.94777 -3.6277,108.39424 -15.49697,65.46598 -74.73156,119.39236 -151.5063,137.92929 -14.02767,3.38692 -15.31116,3.47139 -24.066,1.5839 z m -12.95799,-112.79319 -0.16201,-99.04 -69.6411,-0.16285 -69.641091,-0.16285 0.22994,28.96285 0.22994,28.96285 2.02846,7.60425 c 2.99475,11.22664 5.62152,18.13039 11.10852,29.19575 7.85806,15.84697 17.57611,29.6815 31.764931,45.2203 7.79923,8.54127 8.45814,8.76758 13.79518,4.73808 1.83692,-1.38689 4.66978,-2.87732 6.29524,-3.31206 5.33573,-1.4271 5.35316,-1.46204 5.32602,-10.67596 -0.0199,-6.74972 -0.23724,-8.56508 -1.28,-10.69036 -1.23584,-2.51882 -1.32296,-2.56591 -5.41605,-2.92746 -2.288,-0.2021 -5.22903,-0.72482 -6.53563,-1.16159 -2.03464,-0.68014 -2.71293,-0.63407 -4.72557,0.32099 -2.2578,1.0714 -2.38423,1.06823 -3.22437,-0.0807 -2.72693,-3.72933 2.28584,-7.99124 9.39908,-7.99124 3.61605,0 7.47471,1.36767 8.04396,2.8511 0.53686,1.39904 3.26764,1.23155 4.06002,-0.24902 1.50107,-2.80479 0.8198,-4.72424 -2.57044,-7.24208 -3.10261,-2.30422 -3.44101,-2.40144 -8.47931,-2.43612 -5.55092,-0.0382 -9.44473,-0.99289 -9.91539,-2.43104 -0.20353,-0.62191 0.0915,-0.74804 1.04331,-0.44596 2.45009,0.77763 7.94287,1.47183 9.14934,1.15633 1.36531,-0.35703 1.48147,-0.99209 0.51261,-2.80242 -0.60668,-1.13358 -0.4114,-1.09617 1.76,0.33719 2.2814,1.50597 7.28987,3.58202 8.64161,3.58202 0.79577,0 0.0391,-8.33187 -1.14752,-12.63624 -1.06328,-3.85686 -3.0175,-5.57775 -5.59843,-4.92998 -2.60731,0.6544 -4.89327,3.16001 -4.89327,5.36347 0,1.55005 -0.33091,2.02142 -1.65182,2.35295 -1.35737,0.34067 -2.13179,-0.0565 -4.34423,-2.22781 -4.45114,-4.36846 -7.27752,-3.24821 -9.348361,3.70527 -1.57014,5.27224 -2.41242,6.11016 -5.6189,5.58982 -2.98381,-0.48421 -3.99669,-1.82503 -3.99669,-5.2907 0,-3.71124 2.23348,-6.2767 6.68651,-7.68039 l 3.40655,-1.07383 -0.3308,-2.46628 c -0.40099,-2.98962 0.35259,-3.11936 2.100341,-0.36162 1.07631,1.69828 1.70698,2.05534 3.63029,2.05534 1.66541,0 2.85254,0.50075 4.17242,1.76 1.0146,0.968 2.11697,1.7424 2.44971,1.7209 0.33274,-0.0215 1.46898,-1.22108 2.52498,-2.6657 2.44554,-3.34554 6.36793,-5.50297 8.07108,-4.43934 0.65536,0.40928 2.4009,0.74414 3.87899,0.74414 3.68982,0 5.24462,1.65859 7.27777,7.76358 1.97842,5.94067 3.64351,7.59642 7.63928,7.59642 1.90997,0 3.04273,-0.38479 3.89053,-1.32159 1.17038,-1.29326 1.16561,-1.37902 -0.22259,-4 -1.73509,-3.27593 -1.78227,-4.27841 -0.20136,-4.27841 1.25115,0 3.55464,2.43351 6.62606,7.00003 2.30259,3.42345 6.75876,5.71239 9.07047,4.6591 2.07175,-0.94395 4.45265,-4.75279 6.15644,-9.84875 1.61261,-4.82324 2.14091,-5.49279 3.46621,-4.39289 1.40889,1.16928 1.24049,3.38743 -0.93288,12.2877 -2.14309,8.77631 -2.38038,12.143 -0.95621,13.56717 1.86137,1.86137 3.44121,1.8558 6.52837,-0.023 5.80792,-3.53463 6.9084,-4.04934 8.65786,-4.04934 1.31978,0 1.76998,0.31309 1.76998,1.2309 0,2.33429 -3.26894,5.16705 -9.2571,8.02189 -8.9149,4.25017 -10.9739,7.45767 -10.44505,16.27124 0.47448,7.90732 4.9263,14.72668 11.17069,17.11144 5.05211,1.92942 3.12774,2.48453 -8.61293,2.48453 -12.96288,0 -13.25956,-0.12416 -11.01866,-4.61113 1.29825,-2.59948 1.55423,-4.23074 1.7997,-11.46836 0.31525,-9.29531 -0.15783,-14.86515 -1.40779,-16.57457 -0.77175,-1.05543 -1.02625,-1.03793 -4.60289,0.3165 -3.30192,1.2504 -4.53208,1.38319 -9.62179,1.03863 -4.89534,-0.3314 -5.97278,-0.23005 -6.68562,0.62887 -0.99333,1.19689 -1.60693,10.94273 -0.9604,15.25408 0.69789,4.65392 1.978,5.70463 7.50039,6.15633 4.80756,0.39323 12.35743,3.36601 12.1387,4.77965 -0.0548,0.3542 -2.04201,0.64 -4.44995,0.64 -3.47991,0 -5.05273,0.35419 -7.85661,1.76927 -3.41355,1.72276 -3.58813,1.74445 -6.64287,0.82511 -3.46811,-1.04375 -4.42593,-0.68307 -5.07722,1.91187 -0.534,2.12764 -2.03793,1.9796 -4.28077,-0.42136 -1.79449,-1.92101 -2.07919,-2.00065 -7.66453,-2.14392 -4.80695,-0.1233 -6.03936,0.05 -7.19306,1.01123 l -1.39224,1.16003 1.70052,1.46389 c 20.12246,17.32239 33.25033,26.46023 50.79499,35.35656 10.39612,5.27153 26.10418,11.08727 30.22651,11.19103 l 1.44202,0.0363 z M 91.035639,311.42163 c -1.056,-0.64652 -3.02794,-2.40519 -4.38208,-3.90817 -2.30606,-2.55951 -2.43497,-2.91356 -2.03411,-5.58668 0.40909,-2.72802 0.30356,-2.98702 -2.39076,-5.86747 -1.55031,-1.6574 -3.34441,-4.3899 -3.98689,-6.07222 -1.08791,-2.84866 -1.09722,-3.20749 -0.13547,-5.2243 0.56797,-1.19104 1.60932,-2.47415 2.31412,-2.85135 1.87333,-1.00258 3.02694,1.27133 1.95629,3.8561 -1.19738,2.89072 -0.37732,4.54826 3.35322,6.77775 4.85015,2.89861 6.49153,4.84599 6.38875,7.57981 -0.12959,3.44718 2.63413,6.2143 6.66948,6.67768 2.567361,0.29481 3.162351,0.6038 3.322301,1.72539 0.13942,0.97754 -0.42834,1.75141 -1.99554,2.72 -2.706021,1.67241 -6.512201,1.74513 -9.079311,0.17346 z m 79.840001,-13.82045 c -2.11915,-0.95514 -2.82438,-3.02368 -1.34299,-3.93923 0.40535,-0.25052 2.55639,-0.39659 4.7801,-0.3246 4.92716,0.15951 6.20176,-0.46029 7.47123,-3.63301 0.54024,-1.3502 1.48665,-2.8706 2.10312,-3.37867 1.03576,-0.85363 1.08565,-0.77798 0.65715,0.99623 -2.03976,8.44572 -7.922,12.86937 -13.66861,10.27928 z m 5.27482,-13.40393 c -1.23291,-0.90153 -1.21734,-0.97525 0.71354,-3.37849 2.64363,-3.29036 4.09164,-6.19827 4.09164,-8.21686 0,-1.85918 -1.65083,-5.44 -2.50796,-5.44 -0.79526,0 -1.35672,-1.75099 -0.92348,-2.88 0.49629,-1.2933 4.59509,-1.25227 7.92308,0.0793 2.60082,1.04064 4.48255,3.49462 4.45431,5.80889 -0.0318,2.60278 -2.55277,6.56741 -5.81649,9.14723 -1.86341,1.47295 -3.69708,3.29799 -4.07481,4.05565 -0.85971,1.7244 -2.22893,2.01679 -3.85983,0.82425 z m -14.18181,-5.88339 c -0.21275,-0.55443 -0.0597,-2.09984 0.34008,-3.43426 2.1259,-7.09561 -0.32616,-13.92391 -7.36446,-20.50789 -2.31082,-2.16165 -4.03636,-4.09541 -3.83453,-4.29724 0.20182,-0.20182 1.83714,0.26551 3.63404,1.03851 1.7969,0.77301 3.89366,1.31625 4.65948,1.2072 1.22426,-0.17434 1.38753,-0.58467 1.35215,-3.39828 -0.0221,-1.76 -0.2696,-5.072 -0.54993,-7.36 -0.52341,-4.27192 0.35063,-9.6 1.57483,-9.6 0.3386,0 0.61533,2.13995 0.61533,4.75834 0,2.61708 0.28884,5.51804 0.64187,6.44657 0.92345,2.42887 2.61439,1.80699 3.47991,-1.27982 0.45465,-1.62148 1.14858,-2.63814 1.89938,-2.78273 1.07586,-0.20719 1.13486,0.0532 0.65146,2.87491 -0.29235,1.7065 -0.55268,9.15073 -0.57851,16.54273 -0.0398,11.38091 -0.21978,13.82862 -1.17495,15.97658 -1.94975,4.38458 -4.44451,6.16501 -5.34615,3.81538 z m -79.257571,-1.56634 c -0.6559,-2.06654 0.29362,-5.02583 2.37215,-7.39316 1.58377,-1.80381 2.37451,-2.19246 4.46079,-2.19246 5.20132,0 6.84042,-2.91212 2.7355,-4.86004 -4.92423,-2.33669 -7.49889,-8.01678 -7.51534,-16.57996 -0.0132,-6.89106 1.62866,-11.87176 5.22877,-15.86157 2.88278,-3.19482 5.43651,-4.29843 9.94645,-4.29843 2.792551,0 3.869811,0.31613 5.300551,1.55548 1.43596,1.24387 1.63627,1.71741 0.99991,2.36378 -0.6392,0.64926 -1.1685,0.45121 -2.6901,-1.00657 -1.71319,-1.64134 -2.18437,-1.77511 -4.927991,-1.39906 -3.602,0.49371 -5.66881,2.19918 -7.34326,6.05943 -2.44569,5.63823 -1.5835,6.58332 7.04484,7.72228 5.365121,0.70821 6.164281,1.21478 5.581241,3.5378 -0.5111,2.0364 -2.45998,2.17419 -5.188951,0.36686 -2.81411,-1.86371 -6.30413,-1.69059 -7.94391,0.39407 -2.09255,2.66024 -2.77895,5.98205 -1.60601,7.77218 0.99341,1.51614 1.37123,1.52615 5.09623,0.13496 0.71846,-0.26832 1.68973,-0.94987 2.15836,-1.51454 0.46863,-0.56467 1.3928,-1.02667 2.0537,-1.02667 0.96344,0 1.20163,0.47922 1.20163,2.4176 0,3.06281 1.329351,4.9682 4.105391,5.88438 3.68672,1.21673 3.56242,4.19249 -0.24093,5.76789 -1.22312,0.50663 -1.94446,1.26707 -1.94446,2.04985 0,3.74096 -3.515511,5.3556 -10.199181,4.68438 -4.0844,-0.41018 -4.43508,-0.34288 -5.40128,1.03657 -0.56831,0.81138 -1.21075,2.42115 -1.42764,3.57728 -0.44634,2.37917 -1.24711,2.72756 -1.85646,0.80767 z m 47.364541,-3.72131 c -2.64002,-1.61 -5.52271,-5.02689 -6.97718,-8.27013 -0.66946,-1.4928 -1.56676,-2.71418 -1.99401,-2.71418 -1.914,0 -10.03327,-4.74407 -11.81159,-6.90149 -3.29333,-3.99537 -2.08129,-4.65722 2.05112,-1.12003 2.57855,2.20714 8.26694,4.59373 9.35147,3.92346 0.31271,-0.19327 0.45042,-1.00626 0.30603,-1.80666 -0.14439,-0.8004 -0.008,-3.26834 0.30387,-5.4843 0.56155,-3.99452 0.55028,-4.04049 -1.31583,-5.36928 -1.19519,-0.85105 -3.40724,-1.49811 -6.06014,-1.7727 -4.42226,-0.45772 -5.93372,-1.52331 -5.93372,-4.18332 0,-3.4428 3.19438,-3.77588 6.37996,-0.66525 1.25065,1.22123 2.9908,2.30123 3.86698,2.4 1.51081,0.1703 1.60083,-0.002 1.74347,-3.34043 0.24173,-5.65697 1.5281,-15.58365 2.17707,-16.8 0.32865,-0.616 1.23543,-1.11892 2.01504,-1.11761 2.00469,0.003 5.47278,2.26758 6.3194,4.12572 0.63448,1.39253 0.36836,2.07956 -2.34203,6.04636 -2.84905,4.16974 -3.02695,4.66343 -2.60542,7.23042 0.24883,1.51531 0.56144,3.98164 0.69468,5.48074 0.40787,4.58877 1.24676,4.97529 5.10929,2.35412 1.69046,-1.14718 2.61937,-1.43794 3.09009,-0.96723 0.47071,0.47072 -0.51762,1.76371 -3.28775,4.30122 l -3.96078,3.62818 v 4.3996 c 0,4.78312 1.29151,8.83848 2.81478,8.83848 0.52804,0 1.73981,-1.02227 2.6928,-2.27171 0.953,-1.24944 2.91166,-2.95997 4.35257,-3.80118 3.00246,-1.75283 8.93022,-2.78769 9.61562,-1.67868 0.28221,0.45663 -0.20432,0.71661 -1.358,0.72563 -2.75256,0.0215 -6.70183,2.08657 -9.00326,4.70774 -2.42858,2.76601 -2.57309,4.07174 -0.71242,6.4372 1.13143,1.43837 1.24213,1.99489 0.65372,3.28631 -0.87244,1.91479 -3.40284,2.07008 -6.17583,0.379 z m 24.09647,-1.69581 c -1.88295,-0.88467 -4.42298,-1.6085 -5.64451,-1.6085 -1.93715,0 -2.19483,-0.18401 -2.01645,-1.44 0.16198,-1.14051 0.67038,-1.47431 2.44451,-1.60498 2.79612,-0.20593 11.84,3.5954 11.84,4.97659 0,1.54815 -2.94669,1.40441 -6.62355,-0.32311 z m 15.54909,-8.06426 c -0.49309,-0.79784 -0.46426,-0.82676 4.03446,-4.04765 3.52877,-2.52643 4.31811,-4.5447 2.4,-6.13659 -1.34695,-1.11787 -1.20271,-1.86486 0.64,-3.31434 1.22943,-0.96707 1.6,-1.85047 1.6,-3.81418 0,-1.4056 -0.32484,-3.1626 -0.72187,-3.90446 -0.39703,-0.74186 -0.80768,-2.66692 -0.91257,-4.27793 -0.1671,-2.5667 -0.56113,-3.26615 -3.18491,-5.65349 -1.90486,-1.73322 -2.8608,-3.07207 -2.62751,-3.68 0.49403,-1.28745 0.7393,-1.23688 5.52686,1.13951 5.09129,2.52715 7.04106,5.12021 7.03761,9.35954 -0.001,1.81923 -0.49376,3.75129 -1.28757,5.05327 -0.9708,1.59228 -1.12677,2.40392 -0.63761,3.31793 2.53928,4.74468 -1.98554,12.87566 -8.73441,15.69552 -2.73801,1.14401 -2.5953,1.13204 -3.13248,0.26287 z m -32.27423,-19.90253 c 0.20959,-2.19213 0.71984,-4.07209 1.14357,-4.21333 1.1284,-0.37614 0.947,-1.5506 -0.82862,-5.36483 -2.2723,-4.88115 -2.11906,-7.48866 0.63374,-10.78355 1.71231,-2.0495 2.24,-3.26461 2.24,-5.15803 0,-3.1607 -1.48545,-4.06987 -5.70208,-3.48993 -2.82469,0.38849 -3.21981,0.25862 -5.81836,-1.91241 -1.97865,-1.65311 -3.17273,-2.21885 -4.11372,-1.94901 -3.96612,1.13732 -4.81184,1.10903 -6.49814,-0.21742 -2.11749,-1.66561 -7.68936,-1.85062 -10.58821,-0.35156 -1.74941,0.90465 -5.01412,6.28567 -5.03323,8.29596 -0.0128,1.34835 -1.98128,3.44111 -2.903771,3.08712 -1.22573,-0.47035 -1.25806,-5.27056 -0.0549,-8.15013 1.100571,-2.63405 3.031551,-3.96722 10.116831,-6.98476 6.20735,-2.64364 9.44675,-2.95617 14.12359,-1.36261 2.89508,0.98645 8.15199,5.74979 8.15199,7.3866 0,0.52151 1.02611,0.62182 3.44856,0.3371 3.91359,-0.45996 7.59536,0.70366 8.68836,2.74595 1.00931,1.88592 0.79721,5.21291 -0.58925,9.2427 -1.30607,3.79617 -1.18023,5.52043 0.40288,5.52043 1.73334,0 3.19217,-1.19972 5.99159,-4.9274 5.24082,-6.97863 5.57275,-7.2326 9.4529,-7.2326 3.18393,0 3.68404,0.20849 5.96026,2.48471 1.36659,1.36659 2.4847,3.09459 2.4847,3.84 0,1.21947 -0.36012,1.35529 -3.59339,1.35529 -2.6747,0 -4.38839,-0.43269 -6.703,-1.69246 -3.87558,-2.10936 -4.62075,-1.63207 -5.65435,3.62165 -0.79644,4.04823 -0.6502,3.87597 -7.72926,9.1041 -2.07104,1.52954 -3.15592,2.93028 -3.86231,4.98685 -1.18197,3.44113 -2.40897,5.73986 -3.06377,5.73986 -0.26458,0 -0.31075,-1.78123 -0.10261,-3.95829 z M 253.21972,389.6238 c 39.94271,-13.2451 78.52385,-42.98868 101.9824,-78.6219 6.54665,-9.94426 13.00554,-23.00208 16.34505,-33.04449 4.91829,-14.79003 4.75983,-13.23847 5.0653,-49.59781 l 0.27492,-32.72231 -45.64587,-0.44077 c -25.10523,-0.24242 -55.86987,-0.34938 -68.36587,-0.23769 l -22.72,0.20307 -0.16439,98.24 c -0.0904,54.032 -0.0187,98.62294 0.15947,99.09097 0.4241,1.11436 2.29483,0.70367 13.06899,-2.86907 z m 56.80329,-45.1819 c -0.19529,-1.144 -2.44993,-18.712 -5.0103,-39.04 -2.56037,-20.328 -4.82855,-36.96 -5.0404,-36.96 -0.21185,0 -6.37025,14.616 -13.68533,32.48 -7.31509,17.864 -13.41517,32.6 -13.55575,32.74667 -1.41333,1.4746 0.61387,-5.53383 10.5686,-36.53772 6.3667,-19.82901 11.57582,-36.41189 11.57582,-36.85085 0,-0.51923 -1.00633,-0.7981 -2.88,-0.7981 h -2.88 v -8 -8 h -9.48026 -9.48027 l -1.71973,-1.79502 c -1.67418,-1.74747 -1.71974,-2.00178 -1.71974,-9.6 v -7.80498 h -6.64 -6.64 l -0.4,-2 c -0.22,-1.1 -0.4,-2.972 -0.4,-4.16 v -2.16 h 51.52 51.52 v 4.16 4.16 h -6.4 -6.4 v 7.56026 c 0,7.42894 -0.0309,7.58983 -1.7763,9.26207 -1.74101,1.66799 -1.96673,1.70534 -11.36,1.87974 l -9.5837,0.17793 -0.1797,7.84 -0.1797,7.84 h -2.8603 c -2.15755,0 -2.8603,0.24387 -2.8603,0.99258 0,0.54592 3.32711,15.55481 7.39358,33.35309 6.57201,28.76463 7.75905,34.99867 6.17162,32.41175 -0.24486,-0.39903 -4.1791,-13.27869 -8.74274,-28.62147 -4.56365,-15.34277 -8.48245,-27.89595 -8.70845,-27.89595 -0.226,0 -0.30444,3.384 -0.1743,7.52 0.3541,11.25426 1.50564,62.01238 1.50278,66.24 -0.003,3.98387 -0.92049,4.96605 -1.49513,1.6 z m 2.63956,-96 0.18692,-4.96 h -8.02692 -8.02692 v 5.1397 5.1397 l 7.84,-0.1797 7.84,-0.1797 z m 20.61308,-18.4 v -5.76 h -29.44 -29.44 v 5.76 5.76 h 29.44 29.44 z m -127.21146,122.72 c 1.38156,-1.496 3.48256,-4.31737 4.66889,-6.26971 2.1863,-3.59801 6.04895,-12.59353 6.07893,-14.1569 0.009,-0.46936 0.7347,1.25544 1.61267,3.8329 3.16546,9.29284 9.63127,19.53593 12.10684,19.17956 2.13712,-0.30764 1.85177,-2.16086 -0.97326,-6.3209 -3.78275,-5.57034 -7.98589,-14.83559 -9.12052,-20.10495 -0.53056,-2.464 -1.1628,-7.576 -1.40497,-11.36 -0.41874,-6.54319 -0.37926,-6.88 0.80664,-6.88 1.78659,0 5.32414,2.5519 7.01431,5.05995 1.8598,2.75975 2.66971,5.60337 3.32025,11.65751 0.57279,5.33057 0.94199,6.32254 2.35317,6.32254 3.85667,0 1.44688,-14.73077 -3.53478,-21.60775 -1.88549,-2.60284 -6.38093,-5.27225 -8.87878,-5.27225 -1.34875,0 -1.39793,-0.23712 -1.39793,-6.74008 0,-5.42602 -0.18876,-6.81252 -0.96815,-7.1116 -2.17821,-0.83586 -2.87185,0.95842 -2.87185,7.42874 v 6.22033 l -2.65628,0.79584 c -1.69015,0.50638 -3.85593,1.99809 -5.95461,4.10131 -3.7705,3.77864 -5.31724,7.9922 -5.93571,16.16977 -0.31188,4.12383 -0.21444,4.76012 0.7879,5.14475 1.70415,0.65395 2.64249,-1.10887 3.13165,-5.88329 0.82063,-8.00984 3.46938,-12.7055 8.64027,-15.31735 l 2.17323,-1.09771 -0.36159,8.54465 c -0.221,5.22244 -0.78248,9.91136 -1.4441,12.05981 -1.49488,4.85423 -5.37229,12.37843 -8.74239,16.96483 -3.74696,5.09927 -3.78279,5.16746 -3.33198,6.34225 0.65478,1.70631 2.24704,1.15114 4.88215,-1.70225 z m -51.01477,-43.72943 c 3.84786,-1.82593 3.55266,-4.22748 -0.74618,-6.07017 -2.88156,-1.23519 -3.69028,-2.5204 -1.58596,-2.5204 2.97315,0 3.30517,-4.34944 0.52517,-6.87965 -3.84187,-3.49666 -7.12795,-3.62453 -11.02752,-0.42913 -2.39224,1.96027 -3.19037,2.26276 -5.52544,2.09416 l -2.72932,-0.19706 0.19527,3.17542 c 0.34623,5.6301 2.14941,7.00567 6.36456,4.85526 1.38443,-0.70629 2.69681,-1.1045 2.9164,-0.88491 0.21958,0.21959 0.39924,1.46798 0.39924,2.77421 0,2.93443 1.1459,3.96014 5.03263,4.50483 1.63206,0.22872 3.21185,0.45433 3.51065,0.50136 0.2988,0.047 1.50053,-0.36873 2.6705,-0.92392 z m 53.83529,-26.01467 c 0.26653,-0.43126 0.69635,-4.10326 0.95516,-8.16 0.27191,-4.26216 1.00314,-9.07277 1.73216,-11.3955 1.23809,-3.94471 4.04857,-8.4604 5.26559,-8.4604 2.09393,0 5.19217,9.05245 6.68083,19.52 1.28102,9.00764 1.37463,9.28 3.18947,9.28 1.13427,0 1.60461,-0.44885 1.9054,-1.81833 0.86638,-3.94463 -2.5783,-19.63757 -5.52347,-25.16327 l -2.00875,-3.76881 1.2973,-1.4248 c 2.09081,-2.29629 2.73725,-4.02362 2.73725,-7.31415 0,-3.44356 -2.19692,-7.46602 -4.47206,-8.18812 -0.96106,-0.30503 -1.28794,-0.96634 -1.28794,-2.60565 0,-2.64923 0.7852,-2.76608 3.9835,-0.59277 2.65596,1.80477 5.68166,5.89335 7.23588,9.77772 1.10257,2.7556 2.12609,3.54769 3.49279,2.70302 1.31483,-0.81261 0.33776,-4.89544 -2.13588,-8.92514 -2.36766,-3.85705 -7.0601,-7.8794 -10.25441,-8.79005 -1.81916,-0.51862 -2.01729,-0.8317 -2.17066,-3.43018 -0.27131,-4.5964 -0.68939,-5.73947 -2.09926,-5.73947 -1.57661,0 -2.53196,2.27158 -2.53196,6.02036 0,2.62758 -0.0999,2.76698 -2.49905,3.48577 -3.29888,0.98836 -8.48873,5.72782 -10.91411,9.96695 -2.0998,3.67007 -2.42219,5.57569 -1.12538,6.65195 1.08884,0.90365 1.96162,0.26425 3.33746,-2.44503 2.14453,-4.22296 5.11052,-7.80739 7.73118,-9.3432 1.4423,-0.84524 2.81305,-1.5368 3.04612,-1.5368 0.23308,0 0.42378,0.95466 0.42378,2.12147 0,1.78867 -0.34648,2.28668 -2.20868,3.1747 -2.71915,1.29667 -4.20049,3.46411 -4.64804,6.80079 -0.47681,3.55494 0.21038,5.71939 2.49281,7.85149 l 1.96277,1.83351 -1.64982,2.38902 c -2.28936,3.31511 -3.34673,6.06964 -4.53042,11.80204 -1.01759,4.92801 -1.39845,15.27383 -0.59196,16.08032 0.70284,0.70283 2.66319,0.48265 3.1824,-0.35744 z m 6.31094,-33.23874 c -4.77905,-2.62815 -4.57053,-8.11143 0.38653,-10.16472 1.94535,-0.80579 2.1202,-0.75142 3.86549,1.2019 2.60351,2.91383 2.26018,5.95737 -0.96693,8.57143 -1.60477,1.29991 -1.62801,1.30268 -3.28509,0.39139 z m 101.44,-63.89716 v -6.4 l 1.76,-0.009 c 3.00289,-0.0149 4.64,-0.71128 4.64,-1.97371 0,-1.56513 -2.57936,-2.19912 -5.21249,-1.28121 -2.34296,0.81676 -2.92611,0.601 -1.52298,-0.5635 0.53651,-0.44526 0.97547,-1.23899 0.97547,-1.76384 0,-0.73673 -0.47419,-0.85784 -2.08,-0.53127 -1.144,0.23266 -3.02899,0.58637 -4.18887,0.78603 -2.22731,0.38341 -2.48327,1.67812 -0.3981,2.01371 3.06628,0.4935 3.11034,0.88739 0.26697,2.38639 -1.584,0.83506 -3.54912,1.53132 -4.36693,1.54722 -1.06317,0.0207 -1.42609,0.34811 -1.27346,1.14892 0.31404,1.64772 2.78253,1.72449 5.74808,0.17876 1.43333,-0.74709 2.72276,-1.24164 2.8654,-1.099 0.14264,0.14264 0.0687,1.88117 -0.16423,3.86339 l -0.42359,3.60404 -2.63263,-0.36555 c -1.44796,-0.20105 -3.43388,-0.66893 -4.41316,-1.03974 -1.55796,-0.58991 -3.07463,-0.3307 -2.32615,0.39757 1.1252,1.09481 10.16301,5.48438 11.30667,5.49153 1.39793,0.009 1.44,-0.17796 1.44,-6.391 z m -72.68593,4.55432 c 0.19228,-0.31113 1.64928,-1.1766 3.23777,-1.92328 3.85535,-1.81223 3.78769,-2.91097 -0.15184,-2.46584 -2.21075,0.24979 -4.60981,-0.12038 -8.79479,-1.35702 -5.38656,-1.5917 -5.7759,-1.82246 -6.08493,-3.60653 -0.4574,-2.64068 -2.45204,-3.01458 -2.06645,-0.38736 l 0.27988,1.90694 -2.30631,-0.70783 c -2.31299,-0.70987 -3.39211,-0.45072 -2.71115,0.6511 0.20044,0.32431 2.03422,1.19849 4.07508,1.94263 2.04085,0.74413 5.5777,2.5004 7.85965,3.90282 4.13897,2.54367 6.00135,3.11509 6.66309,2.04437 z m -28.80076,-2.6591 c 0.36159,-0.35704 -0.29015,-0.95498 -1.66881,-1.53102 -2.4143,-1.00875 -8.8445,-7.5651 -8.8445,-9.018 0,-0.47886 0.288,-1.04865 0.64,-1.2662 1.04411,-0.6453 0.73228,-2.53958 -0.66494,-4.03932 -1.68535,-1.80901 -2.16371,-1.76478 -3.09832,0.28647 l -0.76872,1.68715 -1.45526,-1.36715 c -1.4018,-1.31693 -2.97276,-1.81766 -2.97276,-0.94756 0,0.23078 0.72414,1.369 1.60921,2.52938 l 1.60921,2.10979 -1.224,2.01271 c -2.10666,3.46414 -7.20918,8.33948 -9.13016,8.72368 -2.26258,0.45251 -2.40077,1.48485 -0.19877,1.48485 2.3502,0 6.42964,-2.26095 9.84704,-5.45753 l 2.97073,-2.77878 1.82542,3.31816 c 2.68531,4.88119 3.87171,5.68245 7.73132,5.22144 1.76,-0.21022 3.46699,-0.64585 3.79331,-0.96807 z m 48.5897,-1.88143 c 2.25018,-1.42112 5.45219,-4.03882 7.11557,-5.8171 3.33802,-3.56862 3.44224,-3.55081 5.87157,1.00331 1.58082,2.96346 2.85548,4.16 4.4316,4.16 1.71912,0 6.7766,-3.16309 6.29735,-3.93854 -0.18406,-0.2978 -1.58779,-0.54146 -3.1194,-0.54146 -2.28513,0 -3.36921,-0.46197 -6.04223,-2.57488 -1.79161,-1.41619 -3.25747,-2.8136 -3.25747,-3.10536 0,-1.74554 3.15378,-4.87173 5.84008,-5.789 5.67957,-1.93936 6.8247,-4.22511 1.87863,-3.74985 l -3.16129,0.30376 1.56129,-3.08106 c 1.73298,-3.41988 1.94138,-5.04751 0.79329,-6.19561 -1.37333,-1.37333 -2.086,-0.80706 -3.67862,2.92292 -0.86164,2.018 -2.15764,4.6243 -2.88,5.79178 -1.24009,2.00425 -1.48303,2.10771 -4.35338,1.85395 -1.672,-0.14781 -3.04,-0.007 -3.04,0.31338 0,0.32017 0.84448,1.35789 1.87662,2.30605 l 1.87662,1.72392 -3.48148,4.94071 c -3.16023,4.48482 -10.32475,11.37929 -11.82499,11.37929 -0.33373,0 -0.60677,0.324 -0.60677,0.72 0,1.27741 3.63434,0.0697 7.90301,-2.62621 z m -107.44744,0.7374 c 0.21851,-0.99485 0.0902,-2.61647 -0.28508,-3.60359 -0.94584,-2.48773 -3.20383,-5.54726 -3.81515,-5.16944 -0.27872,0.17226 -0.70637,2.07744 -0.95033,4.23373 -0.36527,3.2286 -0.24969,4.13476 0.6549,5.13432 1.70077,1.87933 3.91813,1.57917 4.39566,-0.59502 z m -52.39278,-1.53172 c 0.66946,-1.48529 1.9372,-3.55647 2.8172,-4.60261 l 1.6,-1.90209 0.32,1.82982 c 0.44936,2.56949 1.592,2.67238 2.60189,0.23428 0.91711,-2.21408 4.22436,-6.29887 5.0999,-6.29887 0.29105,0 0.62122,0.648 0.7337,1.44 0.2981,2.09897 2.02079,1.76088 2.76543,-0.54274 0.3525,-1.09051 1.05153,-2.4775 1.55339,-3.0822 0.95554,-1.15135 4.4849,-3.18919 4.86504,-2.80905 0.12122,0.12122 -0.91355,2.47669 -2.29948,5.23439 -1.38593,2.75769 -2.51987,5.72906 -2.51987,6.60305 0,1.49251 -0.15164,1.56344 -2.4958,1.1674 -3.8999,-0.65889 -11.37166,3.01834 -9.04932,4.45362 0.30744,0.19001 1.86788,0.52487 3.46766,0.74415 2.69499,0.36939 2.96504,0.27498 3.6758,-1.28497 0.95601,-2.09821 1.43953,-2.11531 2.36521,-0.0837 0.74232,1.62921 2.79437,2.11463 4.46333,1.05582 0.45479,-0.28852 1.78436,-3.09211 2.95461,-6.2302 1.17025,-3.13809 2.97563,-7.14562 4.01195,-8.90562 2.77567,-4.71395 2.90427,-5.30229 1.47205,-6.73451 -1.63305,-1.63305 -2.06676,-1.6 -5.51388,0.42015 -3.12689,1.83248 -3.70888,1.63722 -4.36131,-1.46316 -0.41176,-1.95674 -0.309,-2.07244 3.41081,-3.84 4.17797,-1.98527 4.90112,-2.86716 3.89408,-4.74884 -0.9598,-1.79341 -1.99774,-1.563 -7.58589,1.68393 -3.74305,2.17486 -5.93875,3.01227 -8.6253,3.28954 -1.9822,0.20458 -3.604,0.62391 -3.604,0.93184 0,0.30792 0.86021,1.08299 1.91158,1.72237 l 1.91158,1.1625 -1.59158,1.38386 c -1.26984,1.10411 -1.59158,1.98685 -1.59158,4.36679 0,2.83837 -0.19057,3.15648 -3.93253,6.56423 -4.89778,4.46034 -5.51344,4.82586 -6.604,3.92078 -1.050161,-0.87155 -1.369001,-0.42673 -1.962751,2.73825 -0.36871,1.96537 -0.22736,2.60076 0.74189,3.33477 2.236961,1.69406 3.786571,1.16143 5.100191,-1.75303 z m 9.16526,-15.31653 c -0.68779,-1.28513 -0.54093,-1.62972 1.37684,-3.23075 1.18072,-0.98571 2.80563,-1.79219 3.61093,-1.79219 2.06356,0 2.08109,3.42145 0.0242,4.71861 -2.80437,1.76853 -4.18351,1.85228 -5.01194,0.30433 z m 49.97194,15.13706 c 0.4066,-1.232 0.95105,-2.24 1.2099,-2.24 0.25884,0 1.29839,0.864 2.3101,1.92 3.11109,3.24728 3.85657,2.68959 5.03819,-3.76899 0.57244,-3.12894 1.61071,-6.94494 2.30726,-8.48 3.0471,-6.71524 0.90045,-8.45199 -5.49244,-4.44367 -4.97181,3.11732 -5.93203,3.27533 -4.07757,0.67099 0.77509,-1.08852 3.32512,-2.91992 5.80358,-4.16805 3.23818,-1.63072 4.42098,-2.56667 4.42098,-3.49832 0,-1.75952 -2.37514,-1.66745 -4.33533,0.16804 l -1.53783,1.44 0.42361,-2.27102 c 0.32731,-1.75474 0.13226,-2.6277 -0.85799,-3.84 -1.70717,-2.08998 -2.58337,-1.20255 -4.25319,4.30768 -1.46933,4.84868 -3.17501,6.50728 -7.25467,7.05448 -2.02711,0.27189 -2.6646,0.63808 -2.6646,1.53061 0,1.52306 2.11519,2.63428 4.07705,2.14188 0.84882,-0.21304 1.72791,-0.0887 1.95353,0.2764 0.4856,0.78573 -1.78841,2.37573 -4.27058,2.98601 -1.95039,0.47954 -2.42741,2.4609 -0.74765,3.10549 1.99319,0.76486 4.89353,0.36663 6.49302,-0.89153 0.89499,-0.704 2.16441,-1.28 2.82094,-1.28 0.84661,0 1.19369,-0.46523 1.19369,-1.6 0,-1.81077 2.0345,-4.16 3.60267,-4.16 0.89775,0 0.98135,0.54201 0.60147,3.89969 -0.49246,4.35278 -1.35171,7.04404 -2.46956,7.73491 -0.9955,0.61525 -3.01954,-1.27697 -2.58294,-2.41473 0.24087,-0.62771 -0.1467,-0.89987 -1.2815,-0.89987 -2.69214,0 -5.01075,1.15751 -4.80643,2.39949 0.10139,0.61628 -0.0685,1.5242 -0.37746,2.0176 -0.37369,0.59671 -0.20761,1.15608 0.49598,1.67056 0.58177,0.4254 1.05777,1.24571 1.05777,1.82291 0,2.06892 2.42162,1.16796 3.2,-1.19056 z m 81.40846,-8.45619 c 0.59864,-3.58894 1.53464,-7.3882 2.08,-8.4428 1.29172,-2.49792 1.25373,-3.7315 -0.12845,-4.17037 -1.76606,-0.56076 -1.42327,-4.23267 0.64874,-6.94922 3.7605,-4.93027 1.49759,-6.1279 -4.49173,-2.37721 -5.63071,3.52613 -11.59496,7.86876 -11.64078,8.47579 -0.0199,0.264 1.2721,0.48 2.87118,0.48 2.5677,0 3.29682,-0.35263 6.24,-3.01793 1.83292,-1.65986 2.97259,-2.61026 2.53259,-2.112 -0.44,0.49826 -0.8,1.47365 -0.8,2.16754 0,0.69388 -0.49255,1.80586 -1.09456,2.47107 -0.76493,0.84525 -0.8768,1.34404 -0.37148,1.65635 0.85805,0.5303 -3.57164,5.55497 -4.89719,5.55497 -0.92823,0 -2.57137,4.72648 -2.58706,7.44164 -0.0131,2.27188 1.54577,3.57761 2.91478,2.44143 0.55247,-0.45851 0.87307,-1.33622 0.71244,-1.95048 -0.19773,-0.75612 -0.005,-1.00682 0.5955,-0.77623 0.54644,0.20968 0.88757,1.29819 0.88757,2.83211 0,2.42586 0.74893,3.22858 1.65079,1.76935 0.30314,-0.49049 0.64007,-0.376 1.05019,0.35683 0.33211,0.59346 1.08426,0.988 1.67143,0.87676 0.82363,-0.15604 1.31631,-1.6934 2.15604,-6.7276 z m -3.72891,3.3573 c -0.19816,-0.51638 -0.0679,-1.74038 0.28956,-2.72 0.62178,-1.70418 0.65203,-1.66363 0.70037,0.93889 0.0514,2.76833 -0.3405,3.47349 -0.98993,1.78111 z M 236.041,175.9619 c 0,-0.352 0.41159,-1.36 0.91465,-2.24 0.50305,-0.88 0.91464,-1.312 0.91464,-0.96 0,0.352 -0.41159,1.36 -0.91464,2.24 -0.50306,0.88 -0.91465,1.312 -0.91465,0.96 z m 5.09843,-5.05745 c -0.9298,-2.44555 -0.87383,-2.65771 1.03022,-3.90529 l 1.69401,-1.10996 -0.44677,2.79635 c -0.57953,3.62736 -1.42776,4.45378 -2.27746,2.2189 z m 61.34474,7.9757 c 0.61841,-0.33096 1.96669,-1.8172 2.99619,-3.30276 1.98848,-2.86939 6.92569,-5.70034 9.87529,-5.66241 1.49191,0.0192 1.44867,0.10342 -0.64,1.24692 -2.08619,1.14214 -2.13014,1.22744 -0.64,1.24223 2.53598,0.0252 10.56105,-2.16603 12.43874,-3.39634 0.94053,-0.61626 1.88054,-1.56476 2.08891,-2.10777 0.47031,-1.22561 -0.97977,-2.24084 -2.68765,-1.88167 -0.704,0.14805 -2.23697,0.46641 -3.40659,0.70745 l -2.12659,0.43827 1.75013,-2.78108 c 0.96257,-1.5296 2.89081,-4.13746 4.28498,-5.79524 4.4378,-5.27693 2.04498,-6.33025 -6.52069,-2.87042 -2.14568,0.86668 -3.90124,1.48875 -3.90124,1.38237 0,-0.10637 1.008,-0.81638 2.24,-1.5778 2.64424,-1.63423 2.98489,-3.88568 0.81759,-5.40371 -1.93788,-1.35735 -2.42463,-1.25463 -2.28096,0.48135 0.13908,1.68053 -3.22903,6.80798 -4.48563,6.8287 -0.59436,0.01 -0.71395,0.62694 -0.42253,2.18037 0.63351,3.37685 -0.65398,3.26661 -2.91006,-0.24919 -2.14521,-3.34301 -3.64446,-4.23994 -2.93776,-1.75752 0.22547,0.792 0.74053,2.808 1.14457,4.48 0.41857,1.73214 1.10034,3.04 1.5847,3.04 1.14604,0 1.07847,1.57373 -0.10992,2.56 -0.528,0.4382 -0.96,1.04947 -0.96,1.35837 0,0.98045 1.46885,0.60734 2.89926,-0.73646 0.82802,-0.77789 1.80634,-1.13516 2.44125,-0.89153 1.82456,0.70015 1.1622,1.82541 -1.7888,3.03891 -1.56391,0.6431 -4.17776,2.34376 -5.80854,3.77923 l -2.96505,2.60994 1.32855,-2.17923 c 1.42155,-2.33179 1.63466,-3.13923 0.82855,-3.13923 -0.27762,0 -1.42962,1.526 -2.56,3.3911 -2.84868,4.70032 -2.68006,6.63337 0.4333,4.96715 z m 14.79148,-9.33409 c 0,-0.37381 2.03876,-1.20081 4.48,-1.81727 0.88,-0.22221 0.448,0.14997 -0.96,0.82708 -2.71837,1.30726 -3.52,1.53277 -3.52,0.99019 z m -1.61791,-3.53313 c -0.25634,-0.41478 -0.0692,-1.00553 0.41591,-1.31278 1.46432,-0.92749 2.0524,-0.64838 1.14146,0.54175 -0.47149,0.616 -0.90992,1.21116 -0.97428,1.32258 -0.0643,0.11142 -0.32674,-0.13678 -0.58309,-0.55155 z m -0.94209,-3.69561 c 0,-0.28853 0.72,-1.15062 1.6,-1.91577 1.54166,-1.34046 1.6,-1.34548 1.6,-0.13793 0,0.68928 -0.55707,1.55138 -1.23793,1.91576 -1.49385,0.79949 -1.96207,0.83241 -1.96207,0.13794 z m 4.96917,-3.37167 -1.10234,-1.92074 2.91964,-1.2515 c 1.60581,-0.68833 3.20797,-1.25151 3.56037,-1.25151 0.51338,0 -1.21359,2.60585 -3.90496,5.89224 -0.2037,0.24873 -0.86641,-0.41209 -1.47271,-1.46849 z m -87.67218,16.64616 c 0.24228,-1.25803 -2.20896,-4.42991 -3.42345,-4.42991 -1.15766,0 -1.15044,0.75415 0.0344,3.58981 0.98546,2.35855 3.00045,2.85804 3.38907,0.8401 z m -33.37835,-5.78656 c 1.71675,-0.74616 3.76936,-1.94836 4.56136,-2.67156 0.792,-0.7232 1.44,-0.97671 1.44,-0.56335 0,0.43226 0.95166,0.75156 2.24,0.75156 1.95164,0 2.24,-0.20224 2.24,-1.571 0,-2.29044 -3.47151,-2.86348 -6.43377,-1.06203 -1.48016,0.90014 -2.29414,1.08857 -2.59556,0.60086 -0.59575,-0.96394 -5.66394,3.277 -5.67914,4.75217 -0.0148,1.43493 0.43971,1.40949 4.22711,-0.23665 z m 108.29408,-4.31252 c 0.20271,-1.4257 -2.00211,-4.57083 -3.20428,-4.57083 -0.74133,0 -0.65735,1.99921 0.18556,4.41717 0.83359,2.39124 2.68716,2.48559 3.01872,0.15366 z m -102.86693,-4.02679 c 1.78906,0.0318 8.48871,-2.46979 8.74146,-3.26404 0.56556,-1.77726 -1.65553,-2.33833 -4.64156,-1.17251 -0.96112,0.37524 -1.69271,0.0496 -2.97677,-1.32499 -1.02669,-1.09907 -2.36268,-1.8225 -3.3657,-1.8225 -1.77461,0 -2.04276,0.65498 -1.03731,2.53368 0.46961,0.87748 0.2982,1.58614 -0.68645,2.83792 -0.7218,0.91762 -1.72346,1.6684 -2.22592,1.6684 -0.50245,0 -0.91354,0.32592 -0.91354,0.72427 0,0.49868 0.8472,0.57879 2.72,0.2572 1.496,-0.25689 3.4696,-0.45373 4.38579,-0.43743 z m 12.73421,-67.744045 v -52.48 l 46.88,0.0267 46.88,0.0267 3.30808,6.88782 c 4.09296,8.52204 9.34576,15.71942 17.74594,24.31544 9.24643,9.46199 18.42411,16.62036 28.00324,21.84185 l 4.70274,2.56342 -62.24,0.009 -62.24,0.009 v 6.720005 6.72 h 17.6 17.6 v 8.30971 8.30972 l -17.44,0.17028 -17.44,0.17029 -0.17711,9.44 -0.17711,9.44 h 68.49711 68.49711 v -4.70344 c 0,-2.58689 -0.18626,-6.90689 -0.41391,-9.6 l -0.41391,-4.89655 h -17.18609 -17.18609 v -8.32 -8.32 h 17.6 17.6 V 94.052685 77.743465 l -3.36,-1.70107 c -15.14922,-7.66959 -35.89214,-27.87956 -43.10809,-42.0005 l -1.55347,-3.04 H 215.54799 102.3219 l -0.41987,1.32289 c -0.23093,0.72759 -2.187091,3.96759 -4.347021,7.2 -7.36231,11.01792 -24.35742,26.4441 -37.62961,34.15577 l -5.04976,2.9341 v 34.793625 34.79362 h 80.960001 80.96001 z M 67.726539,137.25573 c -2.69843,-5.85432 -2.49251,-7.47319 1.2291,-9.66254 1.584,-0.93184 16.87702,-9.43808 33.984501,-18.90277 l 31.10449,-17.208525 0.69945,-2.59436 c 0.64,-2.37388 1.25999,-2.94158 7.2955,-6.68019 12.70432,-7.86951 20.35606,-13.05 20.35606,-13.78175 0,-0.40596 -2.87534,-5.17637 -6.38965,-10.6009 -3.51432,-5.42454 -6.39432,-10.34044 -6.4,-10.92423 -0.0105,-1.07701 11.88838,-8.21857 13.69334,-8.21857 0.48959,0 3.43016,4.20996 6.53459,9.35547 l 5.64444,9.35547 4.58837,-0.41579 4.58838,-0.41579 3.91027,6.32695 c 2.15064,3.47982 3.91026,6.71525 3.91026,7.18985 0,0.4746 -0.87056,1.7611 -1.93458,2.85889 l -1.93459,1.99599 4.75403,9.87448 c 5.97306,12.40651 8.13184,18.722765 8.54807,25.010335 0.49916,7.54008 -2.19476,18.13789 -6.03282,23.73293 -0.90125,1.31383 -1.84712,2.25993 -2.10194,2.10245 -0.25482,-0.15749 -0.64315,-2.81997 -0.86296,-5.91664 -0.65284,-9.19727 -3.04588,-17.27789 -8.10685,-27.37459 -4.20584,-8.390685 -10.91885,-18.880005 -12.08292,-18.880005 -0.57944,0 -26.14877,14.8654 -46.59377,27.088505 -7.36472,4.40302 -18.70519,10.80141 -25.20104,14.21864 -6.495841,3.41724 -14.546631,7.86898 -17.890631,9.89277 -5.46657,3.30836 -12.35957,7.04009 -13.00398,7.04009 -0.13559,0 -1.17289,-2.00977 -2.30512,-4.46617 z M 296.79565,127.2172 c -1.73593,-0.69134 -3.2,-2.31262 -3.2,-3.54358 0,-0.66545 0.73954,-1.94944 1.64343,-2.85333 1.62807,-1.62808 1.63195,-1.65621 0.41521,-3.01091 -1.94097,-2.16104 -2.12274,-2.76656 -1.34375,-4.47626 0.7789,-1.7095 3.79043,-3.31984 5.17259,-2.76592 0.45788,0.18351 0.21533,0.35639 -0.53901,0.38418 -1.84361,0.0679 -2.3423,1.65926 -1.20761,3.85351 1.90649,3.68674 4.21877,2.17168 3.38024,-2.21481 -0.36013,-1.88386 0.20434,-2.02595 1.65971,-0.41778 1.40361,1.55097 1.33726,3.03153 -0.20495,4.57374 -1.25885,1.25885 -1.25752,1.27129 0.32,2.97346 1.88328,2.03209 2.0496,4.74278 0.38352,6.25056 -1.29354,1.17064 -4.9192,1.8685 -6.47938,1.24714 z m 4.35012,-2.47544 c 0.1369,-1.39713 -0.25287,-2.35631 -1.39263,-3.42706 -1.84515,-1.73343 -2.69911,-1.42614 -3.27086,1.177 -0.59221,2.69633 0.6253,4.63476 2.75641,4.38856 1.38941,-0.16052 1.75323,-0.56849 1.90708,-2.1385 z m 9.83587,1.87834 c -1.86928,-1.30929 -1.64343,-3.6962 0.37687,-3.98309 1.71068,-0.24291 2.57649,1.39206 1.45364,2.74501 -0.42168,0.50809 -0.58091,1.22443 -0.35383,1.59185 0.56932,0.92117 0.22618,0.83896 -1.47668,-0.35377 z m 15.91965,-0.7741 c -3.54778,-3.54777 -2.74427,-12.45632 1.31272,-14.55428 2.41909,-1.25096 2.74245,-1.17063 1.25906,0.31277 -1.05401,1.05401 -1.24512,2.17118 -1.2593,7.3616 -0.009,3.36546 0.14878,6.5503 0.35105,7.07741 0.48585,1.2661 2.54985,1.2295 3.04236,-0.0539 0.79246,-2.06514 0.38426,-6.25159 -0.73153,-7.50232 -1.08554,-1.21682 -1.07076,-1.24066 0.48,-0.7747 2.55755,0.76848 3.84,2.27724 3.84,4.51765 0,2.64234 -1.67691,4.65909 -4.29436,5.16466 -1.7193,0.33208 -2.37168,0.0795 -4,-1.54885 z m -44.34564,0.73204 c 0.56763,-0.22904 0.8,-2.24558 0.8,-6.94254 0,-5.76635 -0.14439,-6.65747 -1.12,-6.91243 -0.86482,-0.226 -0.80052,-0.3096 0.28223,-0.36692 0.77122,-0.0408 1.58022,-0.36225 1.79777,-0.71425 0.21755,-0.352 0.95454,-0.64 1.63777,-0.64 1.15635,0 1.24223,0.49997 1.24223,7.232 0,4.77156 0.26128,7.49329 0.768,8 0.59733,0.59733 -0.007,0.75677 -2.72,0.71747 -1.9184,-0.0278 -3.128,-0.19578 -2.688,-0.37333 z m 33.37366,-0.45621 c 0.4755,-0.57294 0.67036,-3.36494 0.55836,-8.00055 -0.0946,-3.91627 -6.6e-4,-7.12024 0.20879,-7.11993 1.35939,0.002 2.76888,2.99419 3.01532,6.40121 0.33116,4.57828 -0.0458,6.29311 -1.7963,8.17208 -1.4634,1.57077 -3.24244,2.06091 -1.98617,0.54719 z m -3.84119,-5.63006 c -1.71365,-0.59079 -3.13247,-2.85744 -3.13247,-5.00429 0,-1.78837 2.59846,-4.38477 4.8,-4.7962 1.67708,-0.31342 1.73781,-0.27859 0.48,0.27528 -1.25625,0.55318 -1.44,1.1104 -1.44,4.36672 0,2.05294 0.3408,4.07342 0.75733,4.48995 1.0711,1.0711 0.48228,1.33983 -1.46486,0.66854 z m 19.11956,-5.77378 c -0.36402,-1.09206 0.96359,-3.70517 1.88545,-3.71109 1.30999,-0.008 2.31354,2.48958 1.42857,3.55591 -0.92489,1.11442 -2.96247,1.20983 -3.31402,0.15518 z M 284.14394,84.114565 c 0.46565,-7.94737 1.14864,-11.97836 1.97775,-11.67267 0.23868,0.088 1.58596,0.16 2.99396,0.16 2.304,0 2.56,0.16 2.56,1.6 0,1.17334 -0.34134,1.6 -1.28,1.6 -0.85334,0 -1.28,-0.42666 -1.28,-1.28 0,-0.84923 -0.42667,-1.28 -1.26781,-1.28 -1.60577,0 -2.19358,2.17454 -1.77248,6.55705 0.24848,2.58597 0.69956,3.61765 2.11351,4.83387 1.56429,1.34555 2.28424,1.51103 5.54705,1.27502 4.87301,-0.35248 6.20378,-1.62782 6.69831,-6.41931 0.20369,-1.97356 0.0565,-4.46166 -0.32954,-5.56894 -0.38376,-1.10084 -0.44344,-1.84435 -0.13263,-1.65226 0.8356,0.51643 1.38972,3.59122 2.1931,12.16959 0.65634,7.00828 0.83202,7.68498 1.9951,7.68498 1.20495,0 1.26894,-0.39627 1.15868,-7.17546 -0.0642,-3.94651 -0.53143,-8.84251 -1.03831,-10.88 -0.5499,-2.21041 -0.79628,-5.29274 -0.61087,-7.64233 0.29087,-3.68602 0.20536,-4.00683 -1.33731,-5.01763 -0.90642,-0.59391 -2.81101,-1.23582 -4.23242,-1.42647 -4.52805,-0.60734 -2.78097,-1.45776 3.01562,-1.46791 5.9267,-0.0104 7.62342,-0.52365 7.01054,-2.1208 -0.47419,-1.2357 -5.28148,-1.99772 -9.47194,-1.50142 -2.38616,0.2826 -3.1386,0.16543 -3.1386,-0.48875 0,-0.47325 0.7448,-1.0474 1.65512,-1.27587 2.53239,-0.63559 4.74488,-3.19961 4.74488,-5.49878 0,-1.69895 -0.21187,-1.96337 -1.43346,-1.78909 -0.83876,0.11967 -1.52496,0.73556 -1.65399,1.48451 -0.35417,2.05565 -2.03138,2.88068 -5.83488,2.8702 -4.00642,-0.011 -4.90372,-0.39203 -5.2524,-2.2302 -0.3849,-2.02909 -2.7415,-1.66 -2.9866,0.46777 -0.27179,2.35942 2.34102,4.97223 4.97224,4.97223 1.28363,0 1.94909,0.31957 1.94909,0.93599 0,0.73965 -1.22754,0.97458 -5.85222,1.12 -4.78934,0.15059 -5.98077,0.39074 -6.56,1.32223 -1.16139,1.8677 0.63758,2.38147 6.81222,1.9455 3.69874,-0.26115 5.6,-0.16974 5.6,0.26922 0,0.36554 -1.03366,0.85853 -2.29701,1.09553 -1.26335,0.23701 -2.97189,0.73842 -3.79674,1.11425 -1.83133,0.83441 -3.14852,3.7855 -2.62343,5.87765 0.21331,0.84986 -0.0743,2.79946 -0.63906,4.33242 -1.06918,2.90202 -2.04548,18.10452 -1.28923,20.07528 0.22088,0.57559 0.90647,0.94995 1.52353,0.8319 0.96697,-0.18499 1.18662,-1.3186 1.59023,-8.2073 z m 6.03837,-1.69933 c -0.23466,-0.23467 -0.42666,-1.09867 -0.42666,-1.92 0,-1.40036 0.24175,-1.49334 3.88313,-1.49334 3.73343,0 3.8658,0.0555 3.43374,1.44 -0.24717,0.792 -0.77058,1.65159 -1.16313,1.9102 -0.89487,0.58953 -5.15374,0.63648 -5.72708,0.0631 z m 4.80883,-8.0468 c 0.30116,-2.11092 2.34,-2.29587 2.21894,-0.20129 -0.0646,1.11838 -0.46183,1.63399 -1.25894,1.6343 -0.84037,3.3e-4 -1.10759,-0.39855 -0.96,-1.43301 z m -6.23317,-5.94689 c 1.59991,-1.21011 2.91768,-1.20092 2.91768,0.0203 0,0.66059 -0.64873,0.95365 -2.08,0.93965 -1.96749,-0.0192 -2.0128,-0.0712 -0.83768,-0.96 z m 6.75768,0.0203 c 0,-1.07715 0.11721,-1.12044 1.54765,-0.57153 1.43002,0.54875 1.25827,1.53153 -0.26765,1.53153 -0.71111,0 -1.28,-0.42667 -1.28,-0.96 z m 4.29764,-2.67076 c -0.25977,-0.41292 -1.33302,-0.9398 -2.38498,-1.17085 -2.39987,-0.5271 -2.50314,-1.60168 -0.15266,-1.58859 2.36149,0.0131 3.53654,0.84774 3.24795,2.30689 -0.15925,0.80521 -0.39425,0.95493 -0.71031,0.45255 z m -13.25764,-0.79661 c 0,-0.75209 2.59972,-1.97263 4.20166,-1.97263 1.49707,0 1.0453,1.10937 -0.62221,1.52789 -0.84729,0.21266 -1.99929,0.56269 -2.56,0.77785 -0.56252,0.21587 -1.01945,0.0666 -1.01945,-0.33311 z m -26.26177,25.06638 c 1.22002,-0.61546 2.80402,-2.12701 3.52,-3.35901 1.21551,-2.09157 1.30163,-3.3088 1.29967,-18.37009 -0.002,-16.55559 -0.23177,-18.13109 -2.51488,-17.25498 -0.87373,0.33528 -1.00429,2.47056 -1.01282,16.56498 -0.01,16.57937 -0.35542,19.2205 -2.19915,16.81697 -0.53872,-0.70228 -1.77409,-2.86088 -2.74527,-4.79688 -1.72986,-3.4484 -1.76916,-3.78037 -1.9316,-16.32 -0.0912,-7.04 -0.31268,-13.448 -0.49219,-14.24 -0.35078,-1.54766 -1.84459,-1.92843 -2.62318,-0.66864 -0.2622,0.42425 -0.49519,6.83225 -0.51777,14.24 -0.0387,12.6919 -0.12492,13.63473 -1.49553,16.34864 -1.84015,3.64364 -4.42399,6.81486 -5.04589,6.19295 -0.90167,-0.90166 -1.39171,-7.81527 -1.44562,-20.39518 -0.0543,-12.68219 -0.34964,-14.29145 -2.32204,-12.6545 -0.76546,0.63527 -0.92924,3.3036 -0.9167,14.93509 0.008,7.7889 0.27728,15.29135 0.59752,16.67211 0.69046,2.97704 2.44176,5.50691 4.56891,6.6001 2.42857,1.24809 12.59586,1.04073 15.27654,-0.31156 z m -12.02248,-2.55901 c 0.12233,-0.264 1.18606,-1.97379 2.36384,-3.79954 l 2.14143,-3.31953 2.16846,3.22232 c 1.19265,1.77227 2.00792,3.48206 1.81172,3.79953 -0.42744,0.69161 -8.80535,0.78759 -8.48545,0.0972 z M 929.36054,267.83454 c -3.2729,-0.78136 -7.2998,-3.01223 -12.7249,-7.04949 -8.3504,-6.21428 -24.0708,-13.83036 -38.3072,-18.55871 -5.2901,-1.75703 -6.7866,-2.5699 -9.28,-5.04094 l -2.9728,-2.94611 1.7394,-0.21924 c 0.9567,-0.12058 5.2767,0.92185 9.6,2.31653 4.3234,1.39467 10.0206,2.87855 12.6606,3.29752 2.64,0.41897 10.848,2.73955 18.24,5.15686 18.2116,5.95547 26.8217,8.29089 30.5666,8.29089 1.7295,0 6.7657,-0.44635 11.1915,-0.99188 8.2416,-1.01587 9.5274,-0.80944 8.6819,1.39379 -0.5049,1.31595 -5.9519,4.67358 -8.8095,5.4304 -4.5686,1.20997 -6.4713,2.29673 -10.4177,5.95047 -4.0751,3.77276 -5.3028,4.13136 -10.1679,2.96991 z m 244.52176,-2.00666 c -0.2359,-0.38169 -3.0609,-1.9413 -6.2778,-3.46581 -11.0714,-5.24682 -31.279,-16.6194 -32.3221,-18.19047 l -1.0293,-1.55026 2.2313,0.44118 c 1.2272,0.24264 4.3912,1.4653 7.0312,2.71702 3.8786,1.83898 6.2129,2.44773 12.16,3.1712 4.048,0.49244 8.8751,1.14887 10.7269,1.45874 4.9899,0.83497 5.5681,0.18617 5.6998,-6.39568 0.059,-2.93257 0.5448,-7.78711 1.0802,-10.78787 1.4154,-7.93128 2.0041,-15.34408 1.2187,-15.34408 -1.1507,0 -8.0792,3.34484 -10.8987,5.26151 -6.8711,4.67111 -15.5404,7.2303 -19.4087,5.72954 -1.6234,-0.6298 -3.7782,-4.11091 -3.7782,-6.10369 0,-0.83697 0.6495,-0.94143 4,-0.6434 3.5932,0.31962 4.3616,0.16057 7.5551,-1.56384 9.4969,-5.12817 21.342,-9.85579 28.4835,-11.36841 4.4988,-0.95287 8.7587,-2.31493 11.1338,-3.55992 l 3.847,-2.01653 4.4752,1.41241 c 4.8189,1.52087 7.0654,3.63263 7.0654,6.64164 0,1.24322 -0.5278,1.80292 -2.411,2.55643 -6.0207,2.40898 -15.9246,3.88888 -20.309,3.03468 l -2.56,-0.49875 2.08,-0.86115 c 4.3405,-1.79698 1.4328,-2.40855 -3.1489,-0.66233 l -1.709,0.65133 1.229,2.41056 c 0.6759,1.32581 1.2358,3.57367 1.2442,4.99524 0.01,1.42158 0.3147,3.73668 0.6806,5.14468 0.8979,3.45459 0.7793,33.1115 -0.1405,35.13017 -0.3831,0.84078 -1.3983,1.84844 -2.2561,2.23926 -1.9912,0.90729 -5.1365,0.91646 -5.6926,0.0166 z m -697.40665,-7.74169 c -3.66645,-2.53083 -3.68,-2.55219 -3.68,-5.80238 0,-1.79422 0.42196,-5.58865 0.93769,-8.43208 0.51573,-2.84343 1.01973,-6.17788 1.12,-7.40988 0.26055,-3.20133 2.27958,-3.32973 5.74294,-0.36522 1.46837,1.25687 3.08536,2.28522 3.5933,2.28522 1.72199,0 9.37651,-5.95024 16.44607,-12.78436 3.872,-3.74305 9.51014,-8.86664 12.52921,-11.38577 3.01906,-2.51912 6.85802,-6.04361 8.53103,-7.83219 l 3.04184,-3.25197 -0.17828,-11.01285 c -0.12202,-7.53827 0.0588,-11.44455 0.57309,-12.38111 0.41324,-0.75254 2.8867,-3.27938 5.49656,-5.6152 6.53746,-5.85099 6.68995,-7.02544 1.16522,-8.97468 -3.85856,-1.36138 -10.19195,-5.86303 -11.32131,-8.04698 -0.95007,-1.83724 -0.93191,-1.89689 0.70245,-2.30709 0.92276,-0.23159 5.03079,-0.22701 9.12897,0.0102 6.71038,0.38839 8.08755,0.27024 13.85122,-1.18829 8.43143,-2.13362 23.96339,-9.89835 38.29918,-19.14649 8.56311,-5.52414 8.89876,-5.65973 11.40832,-4.60836 4.64426,1.94567 7.10881,7.23683 5.72604,12.29329 -0.68203,2.49405 -0.8904,2.67306 -3.58114,3.07656 -3.03757,0.45551 -5.50932,1.63324 -16.54833,7.88484 -7.25391,4.10802 -12.1327,7.71124 -13.23832,9.77711 -0.53355,0.99694 -0.22497,1.69328 1.68927,3.81211 2.1804,2.41345 2.36907,2.95118 2.73352,7.79088 0.3534,4.69295 0.56097,5.32474 2.13444,6.49668 l 1.74297,1.29819 7.19597,-3.3391 c 3.95778,-1.83651 9.10678,-4.6447 11.44221,-6.24043 5.91757,-4.0433 8.21012,-4.2602 13.53775,-1.28082 2.71779,1.51987 4.52602,3.03903 5.27687,4.43328 1.07931,2.00415 1.08366,2.32275 0.0789,5.7791 -0.58488,2.01191 -2.20451,5.16224 -3.59918,7.00074 -1.39467,1.8385 -3.55597,5.77522 -4.80287,8.74826 -1.2469,2.97304 -3.21873,6.57304 -4.38183,8 -1.16311,1.42696 -2.44208,3.21339 -2.84217,3.96985 -1.67728,3.17129 -7.53437,18.53172 -11.28919,29.6063 -2.21876,6.54408 -4.41342,12.76232 -4.87704,13.81832 -2.63794,6.00862 -6.35004,8.161 -13.56877,7.86753 l -4.61281,-0.18753 -2.73295,-5.12 c -2.91906,-5.46867 -4.07978,-6.72 -6.23339,-6.72 -1.86839,0 -4.57215,3.05501 -5.09774,5.76 -0.78157,4.02243 -0.99833,4.34848 -3.57676,5.38017 -2.91156,1.16497 -7.39179,1.28143 -13.40292,0.34838 -2.288,-0.35514 -5.6483,-0.8192 -7.46735,-1.03124 -3.62131,-0.42211 -4.0879,-1.02665 -3.56135,-4.61426 0.39727,-2.70681 3.01309,-4.36927 13.19291,-8.38466 14.65001,-5.77864 17.39859,-6.16113 23.18561,-3.2265 4.35209,2.20699 5.45732,2.32707 7.9369,0.86234 2.52224,-1.48992 3.19805,-3.35393 4.13831,-11.41423 0.75627,-6.48304 1.12548,-7.67787 4.66679,-15.10275 3.86499,-8.10354 6.39249,-12.49149 12.72347,-22.08896 3.47524,-5.2683 4.03868,-7.05833 2.65672,-8.44029 -1.54941,-1.54941 -4.64309,-0.78002 -10.432,2.59442 -6.33449,3.69246 -15.56427,11.99234 -17.22294,15.48772 -0.55939,1.17882 -1.01706,3.16278 -1.01706,4.40881 0,1.24603 -0.24919,2.41951 -0.55374,2.60774 -0.30456,0.18823 -0.72425,1.39294 -0.93265,2.67715 -0.51188,3.15438 -2.07369,4.73616 -4.67637,4.73616 -2.55739,0 -3.77522,-1.89558 -4.44067,-6.91199 -0.49952,-3.76554 -2.03891,-5.58745 -4.25079,-5.03089 -4.20423,1.05788 -14.33786,11.87389 -18.036,19.25051 -1.88818,3.76632 -4.86979,11.34585 -4.86979,12.37946 0,0.95662 -2.26455,1.61294 -3.84,1.11291 -1.38004,-0.43801 -1.73067,-3.14682 -1.37328,-10.60941 0.33542,-7.00369 -2.96467,-6.49759 -10.69471,1.64014 -4.50278,4.74025 -6.67786,8.55112 -12.60151,22.07853 -1.61588,3.6901 -3.27829,6.92569 -3.69424,7.1902 -0.41594,0.26452 -2.77226,0.45487 -5.23626,0.423 -4.13182,-0.0534 -4.766,-0.25535 -8.16,-2.59812 z m 67.91988,-63.2724 c 5.10342,-1.9397 7.84694,-3.45307 11.0046,-6.07035 3.40998,-2.82642 4.31952,-5.28606 4.38634,-11.86185 0.0457,-4.49471 -0.0785,-4.96263 -1.73988,-6.5543 -2.62077,-2.51085 -6.74532,-2.93352 -10.41663,-1.06745 -3.98698,2.02652 -12.55568,7.74955 -15.84762,10.5846 -2.57465,2.21733 -2.7426,2.55349 -2.3447,4.69291 0.73128,3.93186 2.96597,8.36005 5.04675,10.00046 2.47064,1.94777 5.30494,2.02669 9.91114,0.27598 z m 280.31551,63.73697 c -5.6704,-1.43979 -11.8735,-6.38515 -14.4351,-11.5083 -3.0627,-6.12521 -12.5359,-23.43362 -12.9738,-23.70426 -0.2411,-0.14897 -1.9787,1.88313 -3.8615,4.51577 -6.68761,9.35101 -19.10271,19.35333 -31.91844,25.7153 -4.19407,2.08202 -5.37533,2.3688 -10.72,2.60255 -4.01656,0.17567 -6.00654,0.035 -6.00654,-0.42463 0,-0.37803 1.08,-0.85172 2.4,-1.05263 1.32,-0.2009 5.01013,-1.64992 8.2003,-3.22004 4.82001,-2.37228 6.6047,-3.70752 10.56,-7.90061 11.71135,-12.41545 15.49893,-16.94145 18.44179,-22.03715 1.73156,-2.99829 3.81769,-6.35687 4.63589,-7.46352 l 1.4876,-2.0121 -1.4354,-2.68964 c -0.7895,-1.47931 -3.04565,-4.56165 -5.01371,-6.84965 -3.23436,-3.76015 -6.2952,-8.8746 -5.6796,-9.4902 0.13264,-0.13264 1.8634,0.50153 3.84614,1.40925 2.23564,1.02351 5.18044,3.22588 7.75257,5.79805 l 4.1477,4.14763 1.9215,-3.01237 c 1.0569,-1.6568 2.3859,-4.66836 2.9534,-6.69236 0.5674,-2.024 1.3454,-3.68 1.7288,-3.68 1.5504,0 7.0909,4.64903 9.1052,7.64022 1.7462,2.59285 2.1478,3.80564 2.1478,6.48507 0,3.05883 -0.207,3.49993 -2.88,6.13505 -1.584,1.56159 -2.8762,3.32985 -2.8716,3.92946 0.02,2.60281 9.415,14.70505 18.2357,23.4902 l 8.9961,8.96 6.2589,2.09079 c 6.1485,2.05392 9.3809,3.65044 9.3809,4.63333 0,1.03886 -5.3011,2.55588 -8.9313,2.55588 -2.0819,0 -4.5961,0.30925 -5.587,0.68721 -3.5162,1.34119 -7.0044,1.67344 -9.8863,0.9417 z m -181.7217,-3.90866 c -2.26253,-1.64093 -4.44972,-3.40554 -4.86043,-3.92136 -1.46241,-1.83662 -1.55459,-6.85757 -0.28568,-15.55884 0.693,-4.752 1.4438,-10.09377 1.66847,-11.87061 0.22466,-1.77683 0.64151,-3.60765 0.92632,-4.06848 0.91377,-1.47851 3.1079,-0.1554 3.92965,2.36967 0.42411,1.30318 1.56183,3.27891 2.52827,4.39051 5.98271,6.88132 7.90325,12.11624 7.55553,20.59459 -0.30333,7.39622 -1.78859,10.58148 -5.06213,10.85618 -1.87027,0.15694 -3.03492,-0.35108 -6.4,-2.79166 z m 335.727,1.74712 c -0.7376,-0.7376 -0.1733,-1.27041 2.3993,-2.26544 1.496,-0.57862 4.0697,-2.12975 5.7193,-3.44695 1.6495,-1.31721 5.9695,-4.731 9.6,-7.58619 11.18686,-8.79812 19.51636,-18.12646 30.50986,-34.16874 2.5328,-3.696 6.1379,-8.89998 8.0113,-11.56441 4.9191,-6.99619 4.9198,-7.55685 0.015,-10.78174 -4.08,-2.68239 -7.9319,-6.61765 -9.6062,-9.81385 -0.884,-1.68755 -0.8586,-1.76 0.6163,-1.76 0.8461,0 2.5722,0.432 3.8359,0.96 2.6872,1.12276 8.2181,1.23855 13.5812,0.28432 5.4924,-0.97724 5.9262,-1.16126 6.4061,-2.71706 0.2388,-0.77399 1.9721,-3.75388 3.8519,-6.62197 1.8798,-2.86809 4.5598,-8.05209 5.9555,-11.52 1.3958,-3.46791 3.8308,-8.7935 5.4111,-11.83466 1.5803,-3.04115 3.0724,-6.85715 3.3158,-8.48 0.3675,-2.45071 0.6741,-2.94991 1.8098,-2.94641 1.7618,0.005 4.1616,1.63768 6.7047,4.56027 2.8147,3.2348 2.854,7.46084 0.1068,11.4992 -1.0538,1.54897 -2.7656,4.97631 -3.8042,7.61631 -1.0385,2.64 -2.9058,6.672 -4.1496,8.96 -2.9269,5.38452 -2.9889,6.69972 -0.2904,6.16 1.1,-0.22 2.5195,-0.4 3.1543,-0.4 0.6349,0 1.6267,-0.47235 2.204,-1.04967 0.8882,-0.88823 2.0891,-0.99662 7.8079,-0.70474 6.688,0.34133 7.8381,0.76174 7.864,2.87441 0.01,0.44 -1.0961,1.90596 -2.4479,3.25768 -2.7779,2.77794 -9.9468,6.03052 -16.6227,7.5419 -8.056,1.8238 -9.6274,2.71726 -13.3678,7.60048 -3.7153,4.85045 -8.9211,13.39468 -9.261,15.19985 -0.1403,0.74542 1.0982,2.13651 3.7036,4.16 2.1529,1.67205 6.7609,5.43543 10.24,8.36308 10.2487,8.6242 16.5002,10.95293 29.4879,10.98433 7.4333,0.018 7.963,1.89352 1.1577,4.09887 -4.4441,1.44017 -7.0704,3.1695 -8.7799,5.7812 -1.8161,2.77458 -3.4533,3.53797 -8.6228,4.0207 -3.5167,0.32839 -4.2686,0.20324 -5.4957,-0.91475 -0.7819,-0.71235 -2.6119,-2.03314 -4.0668,-2.93507 -2.2193,-1.37584 -3.2372,-2.80554 -6.3219,-8.87908 -3.7879,-7.45808 -11.5482,-18.53931 -13.8437,-19.76779 -1.4626,-0.78279 -1.3615,-0.8368 -2.4887,1.3286 -2.4784,4.76128 -19.8983,22.42915 -26.4674,26.84425 -11.5252,7.74613 -23.18176,14.80923 -26.47216,16.04032 -3.5496,1.3281 -10.7694,2.61361 -11.3602,2.02275 z m -307.71418,-3.75494 c -1.02131,-0.26485 -1.10531,-0.78808 -0.73305,-4.56597 0.48936,-4.9662 -0.25276,-6.10838 -4.54553,-6.99589 -1.89529,-0.39185 -2.57802,-0.86823 -2.72811,-1.90357 -0.29681,-2.04747 1.00139,-4.00695 2.65471,-4.00695 3.16149,0 3.8649,-2.5582 1.34542,-4.89318 -2.30066,-2.13218 -1.98878,-5.30066 0.64546,-6.55739 2.70277,-1.28943 11.88043,-3.73809 15.88638,-4.2386 2.7319,-0.34133 3.58748,-0.21927 4.2757,0.60999 0.73286,0.88305 0.67088,1.24736 -0.41818,2.45794 -1.83619,2.04109 -2.0786,3.15488 -1.16141,5.33624 0.93957,2.23457 6.41112,6.00617 8.70814,6.00261 2.09981,-0.003 5.21093,-1.9966 7.21306,-4.62154 1.77597,-2.32841 3.61091,-9.51386 3.61091,-14.13995 0,-1.4741 0.53587,-4.55402 1.19081,-6.84425 1.56901,-5.48653 2.82821,-14.31687 2.55095,-17.8889 -0.2058,-2.65143 -0.39831,-2.92396 -2.67512,-3.78715 -2.32293,-0.88068 -2.63654,-0.84029 -5.89913,0.75984 -3.9636,1.94393 -8.27524,5.62536 -9.60894,8.20446 -0.55952,1.08199 -0.91857,3.66019 -0.91857,6.59591 0,5.37934 0.64143,4.72306 -6.0011,6.13998 -3.90075,0.83207 -4.60699,1.21435 -10.13687,5.48696 -2.47016,1.90854 -5.24964,3.67618 -6.17662,3.92807 -0.92698,0.2519 -4.56541,0.46496 -8.08541,0.47348 -5.60468,0.0136 -6.64798,-0.1614 -8.39548,-1.40791 -2.21873,-1.58264 -3.66092,-4.43171 -3.337,-6.59227 0.17752,-1.184 1.00226,-1.61602 5.01248,-2.62565 5.33669,-1.34358 14.89702,-5.67374 17.12,-7.75416 2.07418,-1.94116 1.83739,-4.32827 -0.67047,-6.75898 -2.51713,-2.4397 -3.0248,-2.47025 -7.16953,-0.43139 -3.94655,1.94138 -4.1388,1.94272 -7.86128,0.055 -4.34625,-2.20403 -5.49413,-3.71525 -5.54004,-7.29362 l -0.0387,-3.01556 5.12,-0.32 c 2.816,-0.176 5.4656,-0.5441 5.88801,-0.818 0.42241,-0.2739 2.92563,-1.04983 5.56271,-1.72428 5.78884,-1.48054 7.98324,-2.56512 11.35723,-5.61331 3.79921,-3.43237 6.8623,-10.46217 9.83195,-22.56441 0.56143,-2.288 1.90156,-6.84404 2.97805,-10.12453 2.20186,-6.70988 3.3626,-7.81656 7.08013,-6.75038 2.39485,0.68683 4.41113,3.72708 5.99208,9.03517 0.94145,3.16093 0.92219,3.67117 -0.32467,8.60185 -1.64059,6.48764 -1.64144,6.91789 -0.0137,6.91789 2.20168,0 5.2289,-1.88021 9.08043,-5.63988 3.47801,-3.39507 3.84598,-3.58609 6.95843,-3.61237 2.82743,-0.0239 3.46563,0.21019 4.57116,1.67654 0.89127,1.18215 1.15855,2.2078 0.87243,3.34779 -0.81442,3.24494 -4.34563,5.69634 -15.15732,10.52236 -13.40987,5.98577 -15.72438,7.49428 -21.18435,13.80713 -2.46334,2.84814 -5.4629,5.9914 -6.66569,6.98503 -2.62813,2.17112 -2.76513,3.72564 -0.48631,5.51816 2.15896,1.69824 3.10605,1.40421 9.2403,-2.86871 2.67347,-1.86225 8.07759,-4.99917 12.00916,-6.97092 3.93156,-1.97175 8.25075,-4.58101 9.59821,-5.79835 3.2332,-2.92101 4.68496,-3.38402 8.84177,-2.81993 5.28752,0.71753 5.56734,1.14192 5.07276,7.69359 -0.52392,6.9402 -1.84883,12.11574 -4.15724,16.23956 -4.62633,8.26461 -6.79442,16.15944 -9.66408,35.19044 -2.20382,14.61529 -2.84677,17.33652 -4.22073,17.86376 -3.46981,1.33148 -6.877,-0.68911 -11.23595,-6.66336 -3.28725,-4.5054 -7.90759,-8.31084 -10.09054,-8.31084 -2.03641,0 -4.36192,2.3918 -4.81162,4.94877 -1.78405,10.14407 -4.83319,13.90401 -10.1561,12.52361 z m 257.23978,-13.67883 c -0.9274,-0.72955 -1.6863,-1.72149 -1.6863,-2.20431 0,-0.48282 -0.6978,-1.68592 -1.5506,-2.67355 l -1.5507,-1.79569 -1.8093,1.67756 c -2.5379,2.353 -5.0783,2.86745 -5.9663,1.20821 -0.4357,-0.81414 -0.4724,-1.69659 -0.1,-2.40577 1.0788,-2.05412 1.5051,-6.57705 1.0484,-11.12407 -0.4319,-4.30035 -0.5176,-4.48298 -1.9373,-4.12666 -3.7571,0.94297 -5.8815,-1.7564 -3.8814,-4.93179 0.4911,-0.77961 1.967,-4.13492 3.2798,-7.45624 1.9295,-4.88155 2.2469,-6.26297 1.6563,-7.20876 -0.6142,-0.98342 -0.4807,-1.2839 0.8369,-1.88426 1.7926,-0.81675 3.1387,-3.56333 2.8266,-5.76745 -0.1748,-1.23518 -0.8821,-0.48141 -3.9962,4.25923 -5.8004,8.82981 -8.285,14.57081 -8.3096,19.2 -0.011,2.112 0.2216,5.18758 0.5173,6.83462 0.9411,5.2424 -0.6326,8.20538 -4.3581,8.20538 -2.1341,0 -3.6146,-1.17603 -5.7859,-4.59604 -1.8556,-2.92257 -1.4271,-9.4478 1.1532,-17.5606 1.218,-3.82985 2.676,-8.60593 3.2399,-10.61351 0.8972,-3.19399 2.7384,-5.62985 4.2554,-5.62985 0.222,0 0.2617,1.47741 0.088,3.28314 -0.2072,2.15658 -0.083,3.19971 0.3613,3.04 0.3723,-0.13373 2.9679,-3.41114 5.7682,-7.28314 6.3372,-8.76283 14.8676,-17.08897 19.8557,-19.38039 2.7683,-1.27168 4.9659,-1.7359 9.1912,-1.94149 5.2853,-0.25717 5.6325,-0.19077 7.2,1.37675 0.9059,0.90582 1.647,2.33874 1.647,3.18426 0,0.84552 -1.7021,4.81861 -3.7823,8.82909 -4.1393,7.97987 -5.524,12.15625 -6.1312,18.49178 -0.2192,2.288 -1.2182,9.344 -2.22,15.68 -1.0017,6.336 -2.1043,13.90872 -2.4503,16.82827 -0.8915,7.52382 -3.352,9.67724 -7.4099,6.48528 z m 1.603,-11.47355 c 0.2251,-1.936 0.7291,-5.96044 1.12,-8.94321 0.3909,-2.98276 0.7107,-6.77998 0.7107,-8.43826 v -3.01505 l -3.5633,3.56328 -3.5632,3.56329 -0.3675,7.77669 c -0.3652,7.72963 -0.3582,7.78121 1.1633,8.524 3.058,1.49294 4.0519,0.82361 4.5,-3.03074 z m 6.3386,-38.15889 c 1.9648,-7.21551 2.5693,-13.89994 1.3659,-15.10334 -1.0376,-1.03756 -6.0267,2.37581 -14.6744,10.03965 -0.6351,0.56284 -0.5516,1.19797 0.404,3.07223 0.6625,1.29949 1.407,4.25295 1.6544,6.56324 0.4452,4.15747 0.4758,4.21091 2.9806,5.21315 1.5872,0.63508 2.9259,1.75853 3.5906,3.01329 l 1.0598,2.00067 0.8404,-3.84 c 0.4621,-2.112 1.7126,-7.0435 2.7787,-10.95889 z m -49.7183,46.79407 c -0.2036,-0.53065 -0.1983,-1.89865 0.012,-3.04 0.2102,-1.14135 -0.02,-3.58718 -0.5117,-5.43518 -0.823,-3.09372 -0.8069,-3.36 0.2027,-3.36 1.184,0 4.5876,3.28944 5.7508,5.55793 0.9446,1.84211 0.9156,5.5073 -0.051,6.47407 -1.1126,1.11257 -4.9536,0.97263 -5.4024,-0.19682 z m 235.31126,-20.75613 c -1.4838,-2.77256 0.4257,-7.34641 7.4539,-17.85436 3.6877,-5.51358 7.1077,-10.43955 7.5999,-10.94659 1.2873,-1.3262 2.0016,-0.23919 0.9404,1.43101 -2.8695,4.51574 -11.4441,19.95518 -11.2117,20.18759 0.5874,0.58745 3.819,-2.13681 10.4692,-8.82579 9.5267,-9.58229 18.1614,-15.23281 31.4197,-20.56115 l 6.1077,-2.45459 0.1914,-3.1676 c 0.1869,-3.0942 0.141,-3.18422 -1.9819,-3.88485 -1.1953,-0.39449 -3.5466,-1.58814 -5.225,-2.65257 -2.9462,-1.86843 -3.0953,-1.89588 -4.3126,-0.79419 -0.6935,0.62762 -2.2577,2.49904 -3.476,4.1587 -2.32,3.16042 -5.1097,5.19692 -8.0759,5.89532 -2.1066,0.49603 -2.5054,-1.08602 -0.539,-2.1384 1.744,-0.93334 6.317,-8.00745 7.1313,-11.03155 0.5969,-2.21643 0.5349,-2.67218 -0.4624,-3.40145 -0.7992,-0.58437 -1.5063,-0.65231 -2.3103,-0.22199 -0.6373,0.34105 -2.0814,0.53084 -3.2091,0.42176 -2.0023,-0.19369 -2.0512,-0.27345 -2.0832,-3.39835 -0.018,-1.76 -0.8165,-5.936 -1.7743,-9.28 -1.7838,-6.22779 -4.8484,-16.32881 -5.3882,-17.76 -0.1659,-0.44 0.1344,-0.8 0.6674,-0.8 2.3915,0 13.3304,15.62068 16.0226,22.88 0.6854,1.848 1.4393,3.36 1.6753,3.36 1.1962,0 5.2029,-7.02663 6.3175,-11.07914 0.609,-2.21414 0.4999,-2.68645 -1.1821,-5.12 -1.0191,-1.47447 -2.0421,-3.48161 -2.2734,-4.4603 -0.4187,-1.77159 -0.409,-1.77758 2.2168,-1.3577 2.9891,0.47797 1.8694,1.50459 10.7121,-9.82221 7.018,-8.98955 10.1681,-15.73067 7.9821,-17.0817 -0.3174,-0.19613 -0.8858,-1.24234 -1.2632,-2.32492 l -0.6862,-1.96832 2.0632,0.44525 c 2.9836,0.6439 6.2865,2.46146 8.2692,4.55043 1.8687,1.96889 3.7139,5.8422 3.7139,7.79575 0,2.17091 -4.6029,6.30302 -14.08,12.6397 -5.104,3.41272 -9.4156,6.3237 -9.5814,6.46885 -0.1658,0.14515 0.1222,0.53912 0.64,0.87548 1.2881,0.83678 3.2976,0.26932 6.9038,-1.94961 5.9086,-3.63558 31.6448,-12.92026 38.2382,-13.79489 1.8215,-0.24164 4.3527,-0.11086 5.8957,0.30462 2.4185,0.65125 2.7037,0.93134 2.7037,2.65516 0,2.96056 -1.6291,5.58787 -6.7115,10.82355 -6.4406,6.63475 -20.8085,26.16947 -20.8085,28.2913 0,0.3339 -1.152,2.21583 -2.56,4.18208 -2.4483,3.41907 -3.1668,5.28662 -2.034,5.28662 0.2893,0 1.8013,-0.42981 3.36,-0.95514 4.0536,-1.36617 18.246,-4.16486 21.1204,-4.16486 9.7139,0 9.2724,6.93796 -0.859,13.49736 -4.95,3.20474 -13.3979,6.1789 -20.8867,7.35329 -3.3774,0.52964 -9.0207,1.80409 -12.5407,2.83211 -5.6758,1.65764 -13.1078,3.1787 -15.5983,3.19241 -1.5517,0.009 0.4434,-1.77796 2.8856,-2.58396 1.2236,-0.40384 5.1606,-2.11126 8.7488,-3.79425 3.5882,-1.68299 11.9959,-5.14485 18.6839,-7.69302 11.6668,-4.44513 15.68,-6.42606 15.68,-7.73971 0,-0.70029 -0.1175,-0.677 -13.7392,2.72368 -11.7358,2.92988 -13.1867,3.47303 -16.5888,6.21029 -2.6569,2.13769 -5.4652,2.57886 -8.2729,1.29961 -1.2755,-0.58118 -2.3009,-0.37301 -5.9501,1.20798 -2.4249,1.05059 -7.145,2.98775 -10.489,4.3048 -11.4379,4.50487 -14.3538,6.77592 -20.9406,16.30941 -2.3105,3.344 -5.528,7.47126 -7.1501,9.1717 -4.8333,5.06669 -10.1104,7.03157 -11.5684,4.30735 z m 66.2005,-51.4888 c 3.7062,-4.18536 6.7386,-7.83876 6.7386,-8.11865 0,-0.27989 -2.47,0.63226 -5.4889,2.02701 -3.0189,1.39474 -6.9069,2.84 -8.64,3.21168 -3.0803,0.6606 -3.1511,0.72858 -3.1511,3.02697 0,4.32497 1.6795,8.15123 3.3414,7.61234 0.2537,-0.0823 3.4937,-3.57399 7.2,-7.75935 z m -13.7414,-7.43025 c 0,-1.408 0.288,-2.56 0.64,-2.56 0.352,0 0.64,0.5184 0.64,1.152 0,2.63414 1.2851,2.63074 6.306,-0.0167 7.8292,-4.12828 9.1359,-6.45518 6.9528,-12.38157 -1.2718,-3.45247 -4.4225,-7.31371 -5.9679,-7.31371 -2.5959,0 -2.8282,0.77128 -0.8955,2.97252 2.5849,2.94401 2.5336,5.08782 -0.1554,6.49725 -2.8141,1.47504 -7.7376,6.70577 -9.5547,10.15093 -1.2868,2.43981 -1.357,2.89783 -0.5253,3.42789 1.8857,1.20175 2.56,0.69376 2.56,-1.92859 z m 26.3344,-8.18284 c 1.9879,-2.71544 6.6679,-9.07104 10.4,-14.12356 3.8819,-5.25529 6.7856,-9.80176 6.7856,-10.62442 0,-1.35871 -0.1676,-1.41057 -3.04,-0.94039 -3.5863,0.58706 -6.4466,1.60091 -12.96,4.59364 -2.64,1.21302 -5.952,2.57072 -7.36,3.01711 -4.0842,1.29485 -6.72,2.66516 -6.72,3.49365 0,0.42203 0.87,1.60084 1.9333,2.61957 1.0634,1.01873 2.9946,3.39305 4.2916,5.27627 2.1054,3.05701 2.3613,3.86565 2.3867,7.54399 0.016,2.26598 0.1724,4.11126 0.3484,4.10063 0.176,-0.0106 1.9465,-2.24105 3.9344,-4.95649 z m -317.53436,65.85281 c -1.0636,-0.29412 -1.6652,-0.97001 -1.7945,-2.0162 -0.107,-0.86557 -0.8732,-3.73377 -1.7026,-6.37377 -0.8295,-2.64 -1.6598,-5.88 -1.8453,-7.2 -0.2863,-2.0387 -0.1567,-2.4 0.861,-2.4 5.2935,0 11.3171,6.97428 12.5198,14.4957 0.3657,2.287 0.2451,2.59548 -1.2876,3.29381 -1.8263,0.83214 -4.2104,0.90293 -6.7508,0.20046 z m 286.08296,-6.78635 c -0.6516,-0.78512 -0.5223,-1.19586 0.7217,-2.29357 1.3184,-1.16344 1.349,-1.27963 0.2353,-0.89421 -5.9893,2.07276 -10.036,1.84091 -13.1169,-0.75149 -3.2746,-2.75537 -2.6238,-3.42227 3.3569,-3.43999 6.7039,-0.0199 10.2729,-0.84815 14.0282,-3.25564 2.5914,-1.66125 3.4839,-1.88999 6.72,-1.7222 3.2912,0.17063 3.7556,0.36039 3.9329,1.60703 0.5112,3.59446 -8.2991,11.70645 -12.7142,11.70645 -1.322,0 -2.7211,-0.42293 -3.1639,-0.95638 z M 771.5161,191.15351 c -3.01993,-0.66167 -1.5431,-5.85603 2.5382,-8.92748 1.3039,-0.98127 4.68612,-3.97917 7.51604,-6.66199 7.412,-7.02675 8.6653,-7.42446 8.6653,-2.74979 0,0.85121 0.099,1.54765 0.2198,1.54765 1.4654,0 8.24,-3.01946 10.5516,-4.70284 7.0146,-5.1083 11.0974,-5.94329 18.2072,-3.72362 4.5464,1.41936 5.8503,3.02104 5.2675,6.4704 -0.7435,4.40105 -1.3414,4.75692 -8.63,5.13663 l -6.5155,0.33943 0.4155,-1.92 c 0.7322,-3.38319 0.6726,-6.27069 -0.1351,-6.54658 -0.4284,-0.14635 -3.4524,2.42726 -6.72,5.71912 -5.6959,5.73837 -6.2049,6.08676 -12.341,8.44716 -3.51998,1.35407 -8.22204,3.46 -10.44899,4.67985 -4.4663,2.44649 -6.89398,3.26378 -8.59055,2.89206 z m 367.3702,-20.47161 c -2.4535,-2.782 -6.8079,-20.29605 -5.3969,-21.70706 0.68,-0.68006 10.6481,9.34926 11.6946,11.76651 1.8322,4.23203 0.5436,9.8505 -2.4427,10.65047 -2.2455,0.60149 -2.7863,0.50189 -3.855,-0.70992 z m -216.17066,-1.37992 c 0,-0.31896 2.016,-2.52621 4.48,-4.905 2.464,-2.37879 4.48,-4.5864 4.48,-4.90579 0,-0.3194 -0.432,-1.01272 -0.96,-1.54072 -0.5508,-0.55084 -0.9562,-2.0998 -0.9511,-3.63428 0.01,-2.31759 0.4857,-3.22916 3.5841,-6.83429 4.5341,-5.2756 6.9603,-8.86006 6.3859,-9.43447 -0.2467,-0.24665 -0.6629,-0.10146 -0.925,0.32265 -0.2622,0.42411 -2.2361,1.99977 -4.3865,3.50146 -2.1504,1.5017 -8.217,6.80234 -13.4813,11.7792 -9.5448,9.02368 -9.5837,9.05157 -13.9787,10.03121 -8.9687,1.99907 -16.5936,1.77001 -17.312,-0.52005 -0.1105,-0.352 1.4519,-1.41995 3.4719,-2.37322 2.03,-0.95802 6.1059,-3.93041 9.1127,-6.64569 2.992,-2.70186 10.624,-8.31954 16.96,-12.48374 6.336,-4.1642 12.7062,-8.45023 14.1559,-9.52451 1.4498,-1.07427 3.9694,-2.40756 5.5991,-2.96286 1.7832,-0.6076 3.4905,-1.75036 4.2876,-2.86981 1.2214,-1.71531 1.6374,-1.86017 5.3418,-1.86017 4.3718,0 5.6147,0.7677 6.3645,3.93098 0.4742,2.0002 -2.6697,7.65612 -6.5291,11.74611 -1.3302,1.4096 -4.0673,4.79989 -6.0827,7.53397 l -3.6642,4.97105 2.2266,2.06895 c 3.4468,3.20271 3.5437,4.89507 0.4408,7.69837 -3.2551,2.94077 -8.9746,5.8367 -13.3718,6.7704 -4.1055,0.87178 -5.2485,0.90233 -5.2485,0.14025 z M 780.63566,157.06181 c 0,-0.36304 0.504,-0.81764 1.12,-1.0102 6.30308,-1.97039 11.54268,-6.08126 13.64068,-10.70215 1.6861,-3.71348 1.5578,-5.15117 -1.0007,-11.21766 -1.232,-2.92119 -2.24,-5.57644 -2.24,-5.90057 0,-1.52125 7.7152,0.061 13.5433,2.77742 5.2818,2.46188 7.5767,5.22334 7.5767,9.11714 0,0.83631 0.225,1.65961 0.5,1.82955 0.2749,0.16994 2.7835,-0.0876 5.5746,-0.57226 3.8217,-0.66365 5.3361,-1.22784 6.1335,-2.28492 0.9933,-1.31683 1.4276,-1.38265 7.02,-1.06378 4.7509,0.27088 6.1328,0.57461 6.8065,1.49603 2.0261,2.77084 0.8205,4.49987 -3.9947,5.72918 -2.0899,0.53355 -7.9759,2.96608 -13.0799,5.40563 -11.6156,5.55188 -19.1504,6.96448 -13.6,2.54968 l 1.76,-1.3999 -2.88,0.47594 c -1.584,0.26177 -5.184,1.16761 -8,2.01298 -5.2175,1.56631 -14.62425,3.41798 -17.36381,3.41798 -0.83389,0 -1.51617,-0.29704 -1.51617,-0.66009 z"
           id="path1" />
      </g>
    </g>
  </g>
</svg>
